G04 #@! TF.GenerationSoftware,KiCad,Pcbnew,(5.1.4-0-10_14)*
G04 #@! TF.CreationDate,2020-06-13T19:46:11-07:00*
G04 #@! TF.ProjectId,TG4xhotswap,54473478-686f-4747-9377-61702e6b6963,rev?*
G04 #@! TF.SameCoordinates,Original*
G04 #@! TF.FileFunction,Paste,Top*
G04 #@! TF.FilePolarity,Positive*
%FSLAX46Y46*%
G04 Gerber Fmt 4.6, Leading zero omitted, Abs format (unit mm)*
G04 Created by KiCad (PCBNEW (5.1.4-0-10_14)) date 2020-06-13 19:46:11*
%MOMM*%
%LPD*%
G04 APERTURE LIST*
%ADD10R,1.100000X1.800000*%
%ADD11R,1.800000X1.400000*%
%ADD12R,1.600000X1.200000*%
G04 APERTURE END LIST*
D10*
X234490000Y-36660000D03*
X234490000Y-42860000D03*
X230790000Y-36660000D03*
X230790000Y-42860000D03*
D11*
X43636900Y-61251100D03*
X43636900Y-57951100D03*
X38836900Y-57951100D03*
X38836900Y-61251100D03*
D12*
X19847100Y-29298900D03*
X22647100Y-29298900D03*
X38884400Y-29260800D03*
X41684400Y-29260800D03*
X57934400Y-29222700D03*
X60734400Y-29222700D03*
X76984400Y-29248100D03*
X79784400Y-29248100D03*
X96009000Y-29248100D03*
X98809000Y-29248100D03*
X115084400Y-29248100D03*
X117884400Y-29248100D03*
X134185200Y-29222700D03*
X136985200Y-29222700D03*
X153197100Y-29260800D03*
X155997100Y-29260800D03*
X172259800Y-29222700D03*
X175059800Y-29222700D03*
X191297100Y-29222700D03*
X194097100Y-29222700D03*
X210347100Y-29260800D03*
X213147100Y-29260800D03*
X235442300Y-29337000D03*
X238242300Y-29337000D03*
X243195300Y-31902400D03*
X240395300Y-31902400D03*
X19859800Y-31965900D03*
X22659800Y-31965900D03*
X43659600Y-32016700D03*
X46459600Y-32016700D03*
X62709600Y-31978600D03*
X65509600Y-31978600D03*
X81746900Y-31991300D03*
X84546900Y-31991300D03*
X100847700Y-32016700D03*
X103647700Y-32016700D03*
X119846900Y-32016700D03*
X122646900Y-32016700D03*
X138896900Y-32004000D03*
X141696900Y-32004000D03*
X157972300Y-31978600D03*
X160772300Y-31978600D03*
X177009600Y-31991300D03*
X179809600Y-31991300D03*
X196085000Y-31978600D03*
X198885000Y-31978600D03*
X215541400Y-32029400D03*
X218341400Y-32029400D03*
X231800000Y-31080000D03*
X229000000Y-31080000D03*
X53171900Y-48285400D03*
X55971900Y-48285400D03*
X53184600Y-51015900D03*
X55984600Y-51015900D03*
X67011200Y-51003200D03*
X64211200Y-51003200D03*
X91265200Y-50927000D03*
X88465200Y-50927000D03*
X110289800Y-50914300D03*
X107489800Y-50914300D03*
X129327100Y-50914300D03*
X126527100Y-50914300D03*
X148377100Y-50965100D03*
X145577100Y-50965100D03*
X167452500Y-50927000D03*
X164652500Y-50927000D03*
X186451700Y-50939700D03*
X183651700Y-50939700D03*
X208371900Y-51015900D03*
X205571900Y-51015900D03*
X231416400Y-48463200D03*
X234216400Y-48463200D03*
X239328500Y-50914300D03*
X242128500Y-50914300D03*
X19847100Y-70091300D03*
X22647100Y-70091300D03*
X38909800Y-69761100D03*
X41709800Y-69761100D03*
X69834300Y-70104000D03*
X72634300Y-70104000D03*
X104645000Y-70129400D03*
X107445000Y-70129400D03*
X155597400Y-70104000D03*
X158397400Y-70104000D03*
X188896800Y-67398900D03*
X191696800Y-67398900D03*
X210372500Y-70104000D03*
X213172500Y-70104000D03*
X229374700Y-70091300D03*
X232174700Y-70091300D03*
X248447100Y-70104000D03*
X251247100Y-70104000D03*
M02*
