  0
SECTION
  2
HEADER
  9
$ANGBASE
  50
0.0
  9
$ANGDIR
  70
1
  9
$MEASUREMENT
  70
0
  0
ENDSEC
  0
SECTION
  2
TABLES
  0
TABLE
  2
LTYPE
  70
4
  0
LTYPE
  5
40F
  2
CONTINUOUS
  70
0
  3
Solid line
  72
65
  73
0
  40
0.0
  0
LTYPE
  5
410
  2
DASHDOT
 70
0
  3
Dash Dot ____ _ ____ _
 72
65
 73
4
 40
2.0
 49
1.25
 49
-0.25
 49
0.25
 49
-0.25
  0
LTYPE
  5
411
  2
DASHED
 70
0
  3
Dashed __ __ __ __ __
 72
65
 73
2
 40
0.75
 49
0.5
 49
-0.25
  0
LTYPE
  5
43B
  2
DOTTED
 70
0
  3
Dotted .  .  .  .
 72
65
 73
2
 40
0.2
 49
0.0
 49
-0.2
  0
ENDTAB
  0
TABLE
  2
STYLE
  70
4
  0
STYLE
  2
KICAD
  70
0
  40
0
  41
1
  42
1
  50
0
  71
0
  3
isocp.shx
  0
STYLE
  2
KICADB
  70
0
  40
0
  41
1
  42
1
  50
0
  71
0
  3
isocp.shx
  0
STYLE
  2
KICADI
  70
0
  40
0
  41
1
  42
1
  50
15
  71
0
  3
isocp.shx
  0
STYLE
  2
KICADBI
  70
0
  40
0
  41
1
  42
1
  50
15
  71
0
  3
isocp.shx
  0
ENDTAB
  0
TABLE
  2
LAYER
  70
1
  0
LAYER
  2
BLACK
  70
0
  62
7
  6
CONTINUOUS
  0
ENDTAB
  0
ENDSEC
  0
SECTION
  2
ENTITIES
0
LINE
8
BLACK
6
CONTINUOUS
10
3.23886
20
-3.7788
11
3.25385
21
-3.78178
0
LINE
8
BLACK
6
CONTINUOUS
10
3.25385
20
-3.78178
11
3.26998
21
-3.78846
0
LINE
8
BLACK
6
CONTINUOUS
10
3.26998
20
-3.78846
11
3.28449
21
-3.79816
0
LINE
8
BLACK
6
CONTINUOUS
10
3.28449
20
-3.79816
11
3.29684
21
-3.81051
0
LINE
8
BLACK
6
CONTINUOUS
10
3.29684
20
-3.81051
11
3.30654
21
-3.82502
0
LINE
8
BLACK
6
CONTINUOUS
10
3.30654
20
-3.82502
11
3.31322
21
-3.84115
0
LINE
8
BLACK
6
CONTINUOUS
10
3.31322
20
-3.84115
11
3.3162
21
-3.85614
0
LINE
8
BLACK
6
CONTINUOUS
10
3.3162
20
-3.85614
11
3.31642
21
-3.85727
0
LINE
8
BLACK
6
CONTINUOUS
10
3.31642
20
-3.85727
11
3.31662
21
-3.85827
0
LINE
8
BLACK
6
CONTINUOUS
10
3.31662
20
-3.85827
11
3.31662
21
-3.87573
0
LINE
8
BLACK
6
CONTINUOUS
10
3.31662
20
-3.87573
11
3.31322
21
-3.89285
0
LINE
8
BLACK
6
CONTINUOUS
10
3.31322
20
-3.89285
11
3.30654
21
-3.90898
0
LINE
8
BLACK
6
CONTINUOUS
10
3.30654
20
-3.90898
11
3.29684
21
-3.92349
0
LINE
8
BLACK
6
CONTINUOUS
10
3.29684
20
-3.92349
11
3.28449
21
-3.93584
0
LINE
8
BLACK
6
CONTINUOUS
10
3.28449
20
-3.93584
11
3.26998
21
-3.94554
0
LINE
8
BLACK
6
CONTINUOUS
10
3.26998
20
-3.94554
11
3.25385
21
-3.95222
0
LINE
8
BLACK
6
CONTINUOUS
10
3.25385
20
-3.95222
11
3.23886
21
-3.9552
0
LINE
8
BLACK
6
CONTINUOUS
10
3.23886
20
-3.9552
11
3.23673
21
-3.95562
0
LINE
8
BLACK
6
CONTINUOUS
10
3.23673
20
-3.95562
11
3.21927
21
-3.95562
0
LINE
8
BLACK
6
CONTINUOUS
10
3.21927
20
-3.95562
11
3.21714
21
-3.9552
0
LINE
8
BLACK
6
CONTINUOUS
10
3.21714
20
-3.9552
11
3.20215
21
-3.95222
0
LINE
8
BLACK
6
CONTINUOUS
10
3.20215
20
-3.95222
11
3.18602
21
-3.94554
0
LINE
8
BLACK
6
CONTINUOUS
10
3.18602
20
-3.94554
11
3.17151
21
-3.93584
0
LINE
8
BLACK
6
CONTINUOUS
10
3.17151
20
-3.93584
11
3.15916
21
-3.92349
0
LINE
8
BLACK
6
CONTINUOUS
10
3.15916
20
-3.92349
11
3.14946
21
-3.90898
0
LINE
8
BLACK
6
CONTINUOUS
10
3.14946
20
-3.90898
11
3.14278
21
-3.89285
0
LINE
8
BLACK
6
CONTINUOUS
10
3.14278
20
-3.89285
11
3.13938
21
-3.87573
0
LINE
8
BLACK
6
CONTINUOUS
10
3.13938
20
-3.87573
11
3.13938
21
-3.85827
0
LINE
8
BLACK
6
CONTINUOUS
10
3.13938
20
-3.85827
11
3.13958
21
-3.85727
0
LINE
8
BLACK
6
CONTINUOUS
10
3.13958
20
-3.85727
11
3.1398
21
-3.85614
0
LINE
8
BLACK
6
CONTINUOUS
10
3.1398
20
-3.85614
11
3.14278
21
-3.84115
0
LINE
8
BLACK
6
CONTINUOUS
10
3.14278
20
-3.84115
11
3.14946
21
-3.82502
0
LINE
8
BLACK
6
CONTINUOUS
10
3.14946
20
-3.82502
11
3.15916
21
-3.81051
0
LINE
8
BLACK
6
CONTINUOUS
10
3.15916
20
-3.81051
11
3.17151
21
-3.79816
0
LINE
8
BLACK
6
CONTINUOUS
10
3.17151
20
-3.79816
11
3.18602
21
-3.78846
0
LINE
8
BLACK
6
CONTINUOUS
10
3.18602
20
-3.78846
11
3.20215
21
-3.78178
0
LINE
8
BLACK
6
CONTINUOUS
10
3.20215
20
-3.78178
11
3.21714
21
-3.7788
0
LINE
8
BLACK
6
CONTINUOUS
10
3.21714
20
-3.7788
11
3.21927
21
-3.77838
0
LINE
8
BLACK
6
CONTINUOUS
10
3.21927
20
-3.77838
11
3.23673
21
-3.77838
0
LINE
8
BLACK
6
CONTINUOUS
10
3.23673
20
-3.77838
11
3.23886
21
-3.7788
0
LINE
8
BLACK
6
CONTINUOUS
10
10.6479
20
-3.7778
11
10.6629
21
-3.78078
0
LINE
8
BLACK
6
CONTINUOUS
10
10.6629
20
-3.78078
11
10.679
21
-3.78746
0
LINE
8
BLACK
6
CONTINUOUS
10
10.679
20
-3.78746
11
10.6935
21
-3.79716
0
LINE
8
BLACK
6
CONTINUOUS
10
10.6935
20
-3.79716
11
10.7058
21
-3.80951
0
LINE
8
BLACK
6
CONTINUOUS
10
10.7058
20
-3.80951
11
10.7155
21
-3.82402
0
LINE
8
BLACK
6
CONTINUOUS
10
10.7155
20
-3.82402
11
10.7222
21
-3.84015
0
LINE
8
BLACK
6
CONTINUOUS
10
10.7222
20
-3.84015
11
10.7252
21
-3.85514
0
LINE
8
BLACK
6
CONTINUOUS
10
10.7252
20
-3.85514
11
10.7256
21
-3.85727
0
LINE
8
BLACK
6
CONTINUOUS
10
10.7256
20
-3.85727
11
10.7256
21
-3.87473
0
LINE
8
BLACK
6
CONTINUOUS
10
10.7256
20
-3.87473
11
10.7252
21
-3.87686
0
LINE
8
BLACK
6
CONTINUOUS
10
10.7252
20
-3.87686
11
10.7222
21
-3.89185
0
LINE
8
BLACK
6
CONTINUOUS
10
10.7222
20
-3.89185
11
10.7155
21
-3.90798
0
LINE
8
BLACK
6
CONTINUOUS
10
10.7155
20
-3.90798
11
10.7058
21
-3.92249
0
LINE
8
BLACK
6
CONTINUOUS
10
10.7058
20
-3.92249
11
10.6935
21
-3.93484
0
LINE
8
BLACK
6
CONTINUOUS
10
10.6935
20
-3.93484
11
10.679
21
-3.94454
0
LINE
8
BLACK
6
CONTINUOUS
10
10.679
20
-3.94454
11
10.6629
21
-3.95122
0
LINE
8
BLACK
6
CONTINUOUS
10
10.6629
20
-3.95122
11
10.6479
21
-3.9542
0
LINE
8
BLACK
6
CONTINUOUS
10
10.6479
20
-3.9542
11
10.6457
21
-3.95462
0
LINE
8
BLACK
6
CONTINUOUS
10
10.6457
20
-3.95462
11
10.6283
21
-3.95462
0
LINE
8
BLACK
6
CONTINUOUS
10
10.6283
20
-3.95462
11
10.6261
21
-3.9542
0
LINE
8
BLACK
6
CONTINUOUS
10
10.6261
20
-3.9542
11
10.6111
21
-3.95122
0
LINE
8
BLACK
6
CONTINUOUS
10
10.6111
20
-3.95122
11
10.595
21
-3.94454
0
LINE
8
BLACK
6
CONTINUOUS
10
10.595
20
-3.94454
11
10.5805
21
-3.93484
0
LINE
8
BLACK
6
CONTINUOUS
10
10.5805
20
-3.93484
11
10.5682
21
-3.92249
0
LINE
8
BLACK
6
CONTINUOUS
10
10.5682
20
-3.92249
11
10.5585
21
-3.90798
0
LINE
8
BLACK
6
CONTINUOUS
10
10.5585
20
-3.90798
11
10.5518
21
-3.89185
0
LINE
8
BLACK
6
CONTINUOUS
10
10.5518
20
-3.89185
11
10.5488
21
-3.87686
0
LINE
8
BLACK
6
CONTINUOUS
10
10.5488
20
-3.87686
11
10.5484
21
-3.87473
0
LINE
8
BLACK
6
CONTINUOUS
10
10.5484
20
-3.87473
11
10.5484
21
-3.85727
0
LINE
8
BLACK
6
CONTINUOUS
10
10.5484
20
-3.85727
11
10.5488
21
-3.85514
0
LINE
8
BLACK
6
CONTINUOUS
10
10.5488
20
-3.85514
11
10.5518
21
-3.84015
0
LINE
8
BLACK
6
CONTINUOUS
10
10.5518
20
-3.84015
11
10.5585
21
-3.82402
0
LINE
8
BLACK
6
CONTINUOUS
10
10.5585
20
-3.82402
11
10.5682
21
-3.80951
0
LINE
8
BLACK
6
CONTINUOUS
10
10.5682
20
-3.80951
11
10.5805
21
-3.79716
0
LINE
8
BLACK
6
CONTINUOUS
10
10.5805
20
-3.79716
11
10.595
21
-3.78746
0
LINE
8
BLACK
6
CONTINUOUS
10
10.595
20
-3.78746
11
10.6111
21
-3.78078
0
LINE
8
BLACK
6
CONTINUOUS
10
10.6111
20
-3.78078
11
10.6261
21
-3.7778
0
LINE
8
BLACK
6
CONTINUOUS
10
10.6261
20
-3.7778
11
10.6283
21
-3.77738
0
LINE
8
BLACK
6
CONTINUOUS
10
10.6283
20
-3.77738
11
10.6457
21
-3.77738
0
LINE
8
BLACK
6
CONTINUOUS
10
10.6457
20
-3.77738
11
10.6479
21
-3.7778
0
LINE
8
BLACK
6
CONTINUOUS
10
8.19286
20
-3.7778
11
8.20785
21
-3.78078
0
LINE
8
BLACK
6
CONTINUOUS
10
8.20785
20
-3.78078
11
8.22398
21
-3.78746
0
LINE
8
BLACK
6
CONTINUOUS
10
8.22398
20
-3.78746
11
8.23849
21
-3.79716
0
LINE
8
BLACK
6
CONTINUOUS
10
8.23849
20
-3.79716
11
8.25084
21
-3.80951
0
LINE
8
BLACK
6
CONTINUOUS
10
8.25084
20
-3.80951
11
8.26054
21
-3.82402
0
LINE
8
BLACK
6
CONTINUOUS
10
8.26054
20
-3.82402
11
8.26722
21
-3.84015
0
LINE
8
BLACK
6
CONTINUOUS
10
8.26722
20
-3.84015
11
8.2702
21
-3.85514
0
LINE
8
BLACK
6
CONTINUOUS
10
8.2702
20
-3.85514
11
8.27062
21
-3.85727
0
LINE
8
BLACK
6
CONTINUOUS
10
8.27062
20
-3.85727
11
8.27062
21
-3.87473
0
LINE
8
BLACK
6
CONTINUOUS
10
8.27062
20
-3.87473
11
8.2702
21
-3.87686
0
LINE
8
BLACK
6
CONTINUOUS
10
8.2702
20
-3.87686
11
8.26722
21
-3.89185
0
LINE
8
BLACK
6
CONTINUOUS
10
8.26722
20
-3.89185
11
8.26054
21
-3.90798
0
LINE
8
BLACK
6
CONTINUOUS
10
8.26054
20
-3.90798
11
8.25084
21
-3.92249
0
LINE
8
BLACK
6
CONTINUOUS
10
8.25084
20
-3.92249
11
8.23849
21
-3.93484
0
LINE
8
BLACK
6
CONTINUOUS
10
8.23849
20
-3.93484
11
8.22398
21
-3.94454
0
LINE
8
BLACK
6
CONTINUOUS
10
8.22398
20
-3.94454
11
8.20785
21
-3.95122
0
LINE
8
BLACK
6
CONTINUOUS
10
8.20785
20
-3.95122
11
8.19286
21
-3.9542
0
LINE
8
BLACK
6
CONTINUOUS
10
8.19286
20
-3.9542
11
8.19073
21
-3.95462
0
LINE
8
BLACK
6
CONTINUOUS
10
8.19073
20
-3.95462
11
8.17327
21
-3.95462
0
LINE
8
BLACK
6
CONTINUOUS
10
8.17327
20
-3.95462
11
8.17114
21
-3.9542
0
LINE
8
BLACK
6
CONTINUOUS
10
8.17114
20
-3.9542
11
8.15615
21
-3.95122
0
LINE
8
BLACK
6
CONTINUOUS
10
8.15615
20
-3.95122
11
8.14002
21
-3.94454
0
LINE
8
BLACK
6
CONTINUOUS
10
8.14002
20
-3.94454
11
8.12551
21
-3.93484
0
LINE
8
BLACK
6
CONTINUOUS
10
8.12551
20
-3.93484
11
8.11316
21
-3.92249
0
LINE
8
BLACK
6
CONTINUOUS
10
8.11316
20
-3.92249
11
8.10346
21
-3.90798
0
LINE
8
BLACK
6
CONTINUOUS
10
8.10346
20
-3.90798
11
8.09678
21
-3.89185
0
LINE
8
BLACK
6
CONTINUOUS
10
8.09678
20
-3.89185
11
8.0938
21
-3.87686
0
LINE
8
BLACK
6
CONTINUOUS
10
8.0938
20
-3.87686
11
8.09338
21
-3.87473
0
LINE
8
BLACK
6
CONTINUOUS
10
8.09338
20
-3.87473
11
8.09338
21
-3.85727
0
LINE
8
BLACK
6
CONTINUOUS
10
8.09338
20
-3.85727
11
8.0938
21
-3.85514
0
LINE
8
BLACK
6
CONTINUOUS
10
8.0938
20
-3.85514
11
8.09678
21
-3.84015
0
LINE
8
BLACK
6
CONTINUOUS
10
8.09678
20
-3.84015
11
8.10346
21
-3.82402
0
LINE
8
BLACK
6
CONTINUOUS
10
8.10346
20
-3.82402
11
8.11316
21
-3.80951
0
LINE
8
BLACK
6
CONTINUOUS
10
8.11316
20
-3.80951
11
8.12551
21
-3.79716
0
LINE
8
BLACK
6
CONTINUOUS
10
8.12551
20
-3.79716
11
8.14002
21
-3.78746
0
LINE
8
BLACK
6
CONTINUOUS
10
8.14002
20
-3.78746
11
8.15615
21
-3.78078
0
LINE
8
BLACK
6
CONTINUOUS
10
8.15615
20
-3.78078
11
8.17114
21
-3.7778
0
LINE
8
BLACK
6
CONTINUOUS
10
8.17114
20
-3.7778
11
8.17327
21
-3.77738
0
LINE
8
BLACK
6
CONTINUOUS
10
8.17327
20
-3.77738
11
8.19073
21
-3.77738
0
LINE
8
BLACK
6
CONTINUOUS
10
8.19073
20
-3.77738
11
8.19286
21
-3.7778
0
LINE
8
BLACK
6
CONTINUOUS
10
5.71686
20
-3.7778
11
5.73185
21
-3.78078
0
LINE
8
BLACK
6
CONTINUOUS
10
5.73185
20
-3.78078
11
5.74798
21
-3.78746
0
LINE
8
BLACK
6
CONTINUOUS
10
5.74798
20
-3.78746
11
5.76249
21
-3.79716
0
LINE
8
BLACK
6
CONTINUOUS
10
5.76249
20
-3.79716
11
5.77484
21
-3.80951
0
LINE
8
BLACK
6
CONTINUOUS
10
5.77484
20
-3.80951
11
5.78454
21
-3.82402
0
LINE
8
BLACK
6
CONTINUOUS
10
5.78454
20
-3.82402
11
5.79122
21
-3.84015
0
LINE
8
BLACK
6
CONTINUOUS
10
5.79122
20
-3.84015
11
5.7942
21
-3.85514
0
LINE
8
BLACK
6
CONTINUOUS
10
5.7942
20
-3.85514
11
5.79462
21
-3.85727
0
LINE
8
BLACK
6
CONTINUOUS
10
5.79462
20
-3.85727
11
5.79462
21
-3.87473
0
LINE
8
BLACK
6
CONTINUOUS
10
5.79462
20
-3.87473
11
5.7942
21
-3.87686
0
LINE
8
BLACK
6
CONTINUOUS
10
5.7942
20
-3.87686
11
5.79122
21
-3.89185
0
LINE
8
BLACK
6
CONTINUOUS
10
5.79122
20
-3.89185
11
5.78454
21
-3.90798
0
LINE
8
BLACK
6
CONTINUOUS
10
5.78454
20
-3.90798
11
5.77484
21
-3.92249
0
LINE
8
BLACK
6
CONTINUOUS
10
5.77484
20
-3.92249
11
5.76249
21
-3.93484
0
LINE
8
BLACK
6
CONTINUOUS
10
5.76249
20
-3.93484
11
5.74798
21
-3.94454
0
LINE
8
BLACK
6
CONTINUOUS
10
5.74798
20
-3.94454
11
5.73185
21
-3.95122
0
LINE
8
BLACK
6
CONTINUOUS
10
5.73185
20
-3.95122
11
5.71686
21
-3.9542
0
LINE
8
BLACK
6
CONTINUOUS
10
5.71686
20
-3.9542
11
5.71473
21
-3.95462
0
LINE
8
BLACK
6
CONTINUOUS
10
5.71473
20
-3.95462
11
5.69727
21
-3.95462
0
LINE
8
BLACK
6
CONTINUOUS
10
5.69727
20
-3.95462
11
5.69514
21
-3.9542
0
LINE
8
BLACK
6
CONTINUOUS
10
5.69514
20
-3.9542
11
5.68015
21
-3.95122
0
LINE
8
BLACK
6
CONTINUOUS
10
5.68015
20
-3.95122
11
5.66402
21
-3.94454
0
LINE
8
BLACK
6
CONTINUOUS
10
5.66402
20
-3.94454
11
5.64951
21
-3.93484
0
LINE
8
BLACK
6
CONTINUOUS
10
5.64951
20
-3.93484
11
5.63716
21
-3.92249
0
LINE
8
BLACK
6
CONTINUOUS
10
5.63716
20
-3.92249
11
5.62746
21
-3.90798
0
LINE
8
BLACK
6
CONTINUOUS
10
5.62746
20
-3.90798
11
5.62078
21
-3.89185
0
LINE
8
BLACK
6
CONTINUOUS
10
5.62078
20
-3.89185
11
5.6178
21
-3.87686
0
LINE
8
BLACK
6
CONTINUOUS
10
5.6178
20
-3.87686
11
5.61738
21
-3.87473
0
LINE
8
BLACK
6
CONTINUOUS
10
5.61738
20
-3.87473
11
5.61738
21
-3.85727
0
LINE
8
BLACK
6
CONTINUOUS
10
5.61738
20
-3.85727
11
5.6178
21
-3.85514
0
LINE
8
BLACK
6
CONTINUOUS
10
5.6178
20
-3.85514
11
5.62078
21
-3.84015
0
LINE
8
BLACK
6
CONTINUOUS
10
5.62078
20
-3.84015
11
5.62746
21
-3.82402
0
LINE
8
BLACK
6
CONTINUOUS
10
5.62746
20
-3.82402
11
5.63716
21
-3.80951
0
LINE
8
BLACK
6
CONTINUOUS
10
5.63716
20
-3.80951
11
5.64951
21
-3.79716
0
LINE
8
BLACK
6
CONTINUOUS
10
5.64951
20
-3.79716
11
5.66402
21
-3.78746
0
LINE
8
BLACK
6
CONTINUOUS
10
5.66402
20
-3.78746
11
5.68015
21
-3.78078
0
LINE
8
BLACK
6
CONTINUOUS
10
5.68015
20
-3.78078
11
5.69514
21
-3.7778
0
LINE
8
BLACK
6
CONTINUOUS
10
5.69514
20
-3.7778
11
5.69727
21
-3.77738
0
LINE
8
BLACK
6
CONTINUOUS
10
5.69727
20
-3.77738
11
5.71473
21
-3.77738
0
LINE
8
BLACK
6
CONTINUOUS
10
5.71473
20
-3.77738
11
5.71686
21
-3.7778
0
LINE
8
BLACK
6
CONTINUOUS
10
0.784861
20
-3.7778
11
0.79985
21
-3.78078
0
LINE
8
BLACK
6
CONTINUOUS
10
0.79985
20
-3.78078
11
0.815978
21
-3.78746
0
LINE
8
BLACK
6
CONTINUOUS
10
0.815978
20
-3.78746
11
0.830493
21
-3.79716
0
LINE
8
BLACK
6
CONTINUOUS
10
0.830493
20
-3.79716
11
0.842837
21
-3.80951
0
LINE
8
BLACK
6
CONTINUOUS
10
0.842837
20
-3.80951
11
0.852536
21
-3.82402
0
LINE
8
BLACK
6
CONTINUOUS
10
0.852536
20
-3.82402
11
0.859216
21
-3.84015
0
LINE
8
BLACK
6
CONTINUOUS
10
0.859216
20
-3.84015
11
0.862198
21
-3.85514
0
LINE
8
BLACK
6
CONTINUOUS
10
0.862198
20
-3.85514
11
0.862622
21
-3.85727
0
LINE
8
BLACK
6
CONTINUOUS
10
0.862622
20
-3.85727
11
0.862622
21
-3.87473
0
LINE
8
BLACK
6
CONTINUOUS
10
0.862622
20
-3.87473
11
0.862198
21
-3.87686
0
LINE
8
BLACK
6
CONTINUOUS
10
0.862198
20
-3.87686
11
0.859216
21
-3.89185
0
LINE
8
BLACK
6
CONTINUOUS
10
0.859216
20
-3.89185
11
0.852536
21
-3.90798
0
LINE
8
BLACK
6
CONTINUOUS
10
0.852536
20
-3.90798
11
0.842837
21
-3.92249
0
LINE
8
BLACK
6
CONTINUOUS
10
0.842837
20
-3.92249
11
0.830493
21
-3.93484
0
LINE
8
BLACK
6
CONTINUOUS
10
0.830493
20
-3.93484
11
0.815978
21
-3.94454
0
LINE
8
BLACK
6
CONTINUOUS
10
0.815978
20
-3.94454
11
0.79985
21
-3.95122
0
LINE
8
BLACK
6
CONTINUOUS
10
0.79985
20
-3.95122
11
0.784861
21
-3.9542
0
LINE
8
BLACK
6
CONTINUOUS
10
0.784861
20
-3.9542
11
0.782729
21
-3.95462
0
LINE
8
BLACK
6
CONTINUOUS
10
0.782729
20
-3.95462
11
0.765271
21
-3.95462
0
LINE
8
BLACK
6
CONTINUOUS
10
0.765271
20
-3.95462
11
0.763139
21
-3.9542
0
LINE
8
BLACK
6
CONTINUOUS
10
0.763139
20
-3.9542
11
0.74815
21
-3.95122
0
LINE
8
BLACK
6
CONTINUOUS
10
0.74815
20
-3.95122
11
0.732022
21
-3.94454
0
LINE
8
BLACK
6
CONTINUOUS
10
0.732022
20
-3.94454
11
0.717507
21
-3.93484
0
LINE
8
BLACK
6
CONTINUOUS
10
0.717507
20
-3.93484
11
0.705163
21
-3.92249
0
LINE
8
BLACK
6
CONTINUOUS
10
0.705163
20
-3.92249
11
0.695464
21
-3.90798
0
LINE
8
BLACK
6
CONTINUOUS
10
0.695464
20
-3.90798
11
0.688784
21
-3.89185
0
LINE
8
BLACK
6
CONTINUOUS
10
0.688784
20
-3.89185
11
0.685802
21
-3.87686
0
LINE
8
BLACK
6
CONTINUOUS
10
0.685802
20
-3.87686
11
0.685378
21
-3.87473
0
LINE
8
BLACK
6
CONTINUOUS
10
0.685378
20
-3.87473
11
0.685378
21
-3.85727
0
LINE
8
BLACK
6
CONTINUOUS
10
0.685378
20
-3.85727
11
0.685802
21
-3.85514
0
LINE
8
BLACK
6
CONTINUOUS
10
0.685802
20
-3.85514
11
0.688784
21
-3.84015
0
LINE
8
BLACK
6
CONTINUOUS
10
0.688784
20
-3.84015
11
0.695464
21
-3.82402
0
LINE
8
BLACK
6
CONTINUOUS
10
0.695464
20
-3.82402
11
0.705163
21
-3.80951
0
LINE
8
BLACK
6
CONTINUOUS
10
0.705163
20
-3.80951
11
0.717507
21
-3.79716
0
LINE
8
BLACK
6
CONTINUOUS
10
0.717507
20
-3.79716
11
0.732022
21
-3.78746
0
LINE
8
BLACK
6
CONTINUOUS
10
0.732022
20
-3.78746
11
0.74815
21
-3.78078
0
LINE
8
BLACK
6
CONTINUOUS
10
0.74815
20
-3.78078
11
0.763139
21
-3.7778
0
LINE
8
BLACK
6
CONTINUOUS
10
0.763139
20
-3.7778
11
0.765271
21
-3.77738
0
LINE
8
BLACK
6
CONTINUOUS
10
0.765271
20
-3.77738
11
0.782729
21
-3.77738
0
LINE
8
BLACK
6
CONTINUOUS
10
0.782729
20
-3.77738
11
0.784861
21
-3.7778
0
LINE
8
BLACK
6
CONTINUOUS
10
2.04304
20
-2.568
11
2.0649
21
-2.57705
0
LINE
8
BLACK
6
CONTINUOUS
10
2.0649
20
-2.57705
11
2.0649
21
-2.57705
0
LINE
8
BLACK
6
CONTINUOUS
10
2.0649
20
-2.57705
11
2.08457
21
-2.5902
0
LINE
8
BLACK
6
CONTINUOUS
10
2.08457
20
-2.5902
11
2.1013
21
-2.60693
0
LINE
8
BLACK
6
CONTINUOUS
10
2.1013
20
-2.60693
11
2.1013
21
-2.60693
0
LINE
8
BLACK
6
CONTINUOUS
10
2.1013
20
-2.60693
11
2.11445
21
-2.6266
0
LINE
8
BLACK
6
CONTINUOUS
10
2.11445
20
-2.6266
11
2.1235
21
-2.64846
0
LINE
8
BLACK
6
CONTINUOUS
10
2.1235
20
-2.64846
11
2.12812
21
-2.67167
0
LINE
8
BLACK
6
CONTINUOUS
10
2.12812
20
-2.67167
11
2.12812
21
-2.69533
0
LINE
8
BLACK
6
CONTINUOUS
10
2.12812
20
-2.69533
11
2.1235
21
-2.71854
0
LINE
8
BLACK
6
CONTINUOUS
10
2.1235
20
-2.71854
11
2.11445
21
-2.7404
0
LINE
8
BLACK
6
CONTINUOUS
10
2.11445
20
-2.7404
11
2.11445
21
-2.7404
0
LINE
8
BLACK
6
CONTINUOUS
10
2.11445
20
-2.7404
11
2.1013
21
-2.76007
0
LINE
8
BLACK
6
CONTINUOUS
10
2.1013
20
-2.76007
11
2.08457
21
-2.7768
0
LINE
8
BLACK
6
CONTINUOUS
10
2.08457
20
-2.7768
11
2.07467
21
-2.78342
0
LINE
8
BLACK
6
CONTINUOUS
10
2.07467
20
-2.78342
11
2.0649
21
-2.78995
0
LINE
8
BLACK
6
CONTINUOUS
10
2.0649
20
-2.78995
11
2.04304
21
-2.799
0
LINE
8
BLACK
6
CONTINUOUS
10
2.04304
20
-2.799
11
2.01983
21
-2.80362
0
LINE
8
BLACK
6
CONTINUOUS
10
2.01983
20
-2.80362
11
1.99617
21
-2.80362
0
LINE
8
BLACK
6
CONTINUOUS
10
1.99617
20
-2.80362
11
1.97296
21
-2.799
0
LINE
8
BLACK
6
CONTINUOUS
10
1.97296
20
-2.799
11
1.9511
21
-2.78995
0
LINE
8
BLACK
6
CONTINUOUS
10
1.9511
20
-2.78995
11
1.94133
21
-2.78342
0
LINE
8
BLACK
6
CONTINUOUS
10
1.94133
20
-2.78342
11
1.93143
21
-2.7768
0
LINE
8
BLACK
6
CONTINUOUS
10
1.93143
20
-2.7768
11
1.9147
21
-2.76007
0
LINE
8
BLACK
6
CONTINUOUS
10
1.9147
20
-2.76007
11
1.90155
21
-2.7404
0
LINE
8
BLACK
6
CONTINUOUS
10
1.90155
20
-2.7404
11
1.90155
21
-2.7404
0
LINE
8
BLACK
6
CONTINUOUS
10
1.90155
20
-2.7404
11
1.8925
21
-2.71854
0
LINE
8
BLACK
6
CONTINUOUS
10
1.8925
20
-2.71854
11
1.88788
21
-2.69533
0
LINE
8
BLACK
6
CONTINUOUS
10
1.88788
20
-2.69533
11
1.88788
21
-2.67167
0
LINE
8
BLACK
6
CONTINUOUS
10
1.88788
20
-2.67167
11
1.8925
21
-2.64846
0
LINE
8
BLACK
6
CONTINUOUS
10
1.8925
20
-2.64846
11
1.90155
21
-2.6266
0
LINE
8
BLACK
6
CONTINUOUS
10
1.90155
20
-2.6266
11
1.9147
21
-2.60693
0
LINE
8
BLACK
6
CONTINUOUS
10
1.9147
20
-2.60693
11
1.9147
21
-2.60693
0
LINE
8
BLACK
6
CONTINUOUS
10
1.9147
20
-2.60693
11
1.93143
21
-2.5902
0
LINE
8
BLACK
6
CONTINUOUS
10
1.93143
20
-2.5902
11
1.9511
21
-2.57705
0
LINE
8
BLACK
6
CONTINUOUS
10
1.9511
20
-2.57705
11
1.9511
21
-2.57705
0
LINE
8
BLACK
6
CONTINUOUS
10
1.9511
20
-2.57705
11
1.97296
21
-2.568
0
LINE
8
BLACK
6
CONTINUOUS
10
1.97296
20
-2.568
11
1.99617
21
-2.56338
0
LINE
8
BLACK
6
CONTINUOUS
10
1.99617
20
-2.56338
11
2.01983
21
-2.56338
0
LINE
8
BLACK
6
CONTINUOUS
10
2.01983
20
-2.56338
11
2.04304
21
-2.568
0
LINE
8
BLACK
6
CONTINUOUS
10
3.23686
20
-2.2226
11
3.25185
21
-2.22558
0
LINE
8
BLACK
6
CONTINUOUS
10
3.25185
20
-2.22558
11
3.26798
21
-2.23226
0
LINE
8
BLACK
6
CONTINUOUS
10
3.26798
20
-2.23226
11
3.28249
21
-2.24196
0
LINE
8
BLACK
6
CONTINUOUS
10
3.28249
20
-2.24196
11
3.29484
21
-2.25431
0
LINE
8
BLACK
6
CONTINUOUS
10
3.29484
20
-2.25431
11
3.30454
21
-2.26882
0
LINE
8
BLACK
6
CONTINUOUS
10
3.30454
20
-2.26882
11
3.31122
21
-2.28495
0
LINE
8
BLACK
6
CONTINUOUS
10
3.31122
20
-2.28495
11
3.3142
21
-2.29994
0
LINE
8
BLACK
6
CONTINUOUS
10
3.3142
20
-2.29994
11
3.31442
21
-2.30107
0
LINE
8
BLACK
6
CONTINUOUS
10
3.31442
20
-2.30107
11
3.31462
21
-2.30207
0
LINE
8
BLACK
6
CONTINUOUS
10
3.31462
20
-2.30207
11
3.31462
21
-2.31953
0
LINE
8
BLACK
6
CONTINUOUS
10
3.31462
20
-2.31953
11
3.31122
21
-2.33665
0
LINE
8
BLACK
6
CONTINUOUS
10
3.31122
20
-2.33665
11
3.30454
21
-2.35278
0
LINE
8
BLACK
6
CONTINUOUS
10
3.30454
20
-2.35278
11
3.29484
21
-2.36729
0
LINE
8
BLACK
6
CONTINUOUS
10
3.29484
20
-2.36729
11
3.28249
21
-2.37964
0
LINE
8
BLACK
6
CONTINUOUS
10
3.28249
20
-2.37964
11
3.26798
21
-2.38934
0
LINE
8
BLACK
6
CONTINUOUS
10
3.26798
20
-2.38934
11
3.25185
21
-2.39602
0
LINE
8
BLACK
6
CONTINUOUS
10
3.25185
20
-2.39602
11
3.23686
21
-2.399
0
LINE
8
BLACK
6
CONTINUOUS
10
3.23686
20
-2.399
11
3.23473
21
-2.39942
0
LINE
8
BLACK
6
CONTINUOUS
10
3.23473
20
-2.39942
11
3.21727
21
-2.39942
0
LINE
8
BLACK
6
CONTINUOUS
10
3.21727
20
-2.39942
11
3.21514
21
-2.399
0
LINE
8
BLACK
6
CONTINUOUS
10
3.21514
20
-2.399
11
3.20015
21
-2.39602
0
LINE
8
BLACK
6
CONTINUOUS
10
3.20015
20
-2.39602
11
3.18402
21
-2.38934
0
LINE
8
BLACK
6
CONTINUOUS
10
3.18402
20
-2.38934
11
3.16951
21
-2.37964
0
LINE
8
BLACK
6
CONTINUOUS
10
3.16951
20
-2.37964
11
3.15716
21
-2.36729
0
LINE
8
BLACK
6
CONTINUOUS
10
3.15716
20
-2.36729
11
3.14746
21
-2.35278
0
LINE
8
BLACK
6
CONTINUOUS
10
3.14746
20
-2.35278
11
3.14078
21
-2.33665
0
LINE
8
BLACK
6
CONTINUOUS
10
3.14078
20
-2.33665
11
3.13738
21
-2.31953
0
LINE
8
BLACK
6
CONTINUOUS
10
3.13738
20
-2.31953
11
3.13738
21
-2.30207
0
LINE
8
BLACK
6
CONTINUOUS
10
3.13738
20
-2.30207
11
3.13758
21
-2.30107
0
LINE
8
BLACK
6
CONTINUOUS
10
3.13758
20
-2.30107
11
3.1378
21
-2.29994
0
LINE
8
BLACK
6
CONTINUOUS
10
3.1378
20
-2.29994
11
3.14078
21
-2.28495
0
LINE
8
BLACK
6
CONTINUOUS
10
3.14078
20
-2.28495
11
3.14746
21
-2.26882
0
LINE
8
BLACK
6
CONTINUOUS
10
3.14746
20
-2.26882
11
3.15716
21
-2.25431
0
LINE
8
BLACK
6
CONTINUOUS
10
3.15716
20
-2.25431
11
3.16951
21
-2.24196
0
LINE
8
BLACK
6
CONTINUOUS
10
3.16951
20
-2.24196
11
3.18402
21
-2.23226
0
LINE
8
BLACK
6
CONTINUOUS
10
3.18402
20
-2.23226
11
3.20015
21
-2.22558
0
LINE
8
BLACK
6
CONTINUOUS
10
3.20015
20
-2.22558
11
3.21514
21
-2.2226
0
LINE
8
BLACK
6
CONTINUOUS
10
3.21514
20
-2.2226
11
3.21727
21
-2.22218
0
LINE
8
BLACK
6
CONTINUOUS
10
3.21727
20
-2.22218
11
3.23473
21
-2.22218
0
LINE
8
BLACK
6
CONTINUOUS
10
3.23473
20
-2.22218
11
3.23686
21
-2.2226
0
LINE
8
BLACK
6
CONTINUOUS
10
8.19086
20
-2.2216
11
8.20585
21
-2.22458
0
LINE
8
BLACK
6
CONTINUOUS
10
8.20585
20
-2.22458
11
8.22198
21
-2.23126
0
LINE
8
BLACK
6
CONTINUOUS
10
8.22198
20
-2.23126
11
8.23649
21
-2.24096
0
LINE
8
BLACK
6
CONTINUOUS
10
8.23649
20
-2.24096
11
8.24884
21
-2.25331
0
LINE
8
BLACK
6
CONTINUOUS
10
8.24884
20
-2.25331
11
8.25854
21
-2.26782
0
LINE
8
BLACK
6
CONTINUOUS
10
8.25854
20
-2.26782
11
8.26522
21
-2.28395
0
LINE
8
BLACK
6
CONTINUOUS
10
8.26522
20
-2.28395
11
8.2682
21
-2.29894
0
LINE
8
BLACK
6
CONTINUOUS
10
8.2682
20
-2.29894
11
8.26862
21
-2.30107
0
LINE
8
BLACK
6
CONTINUOUS
10
8.26862
20
-2.30107
11
8.26862
21
-2.31853
0
LINE
8
BLACK
6
CONTINUOUS
10
8.26862
20
-2.31853
11
8.2682
21
-2.32066
0
LINE
8
BLACK
6
CONTINUOUS
10
8.2682
20
-2.32066
11
8.26522
21
-2.33565
0
LINE
8
BLACK
6
CONTINUOUS
10
8.26522
20
-2.33565
11
8.25854
21
-2.35178
0
LINE
8
BLACK
6
CONTINUOUS
10
8.25854
20
-2.35178
11
8.24884
21
-2.36629
0
LINE
8
BLACK
6
CONTINUOUS
10
8.24884
20
-2.36629
11
8.23649
21
-2.37864
0
LINE
8
BLACK
6
CONTINUOUS
10
8.23649
20
-2.37864
11
8.22198
21
-2.38834
0
LINE
8
BLACK
6
CONTINUOUS
10
8.22198
20
-2.38834
11
8.20585
21
-2.39502
0
LINE
8
BLACK
6
CONTINUOUS
10
8.20585
20
-2.39502
11
8.19086
21
-2.398
0
LINE
8
BLACK
6
CONTINUOUS
10
8.19086
20
-2.398
11
8.18873
21
-2.39842
0
LINE
8
BLACK
6
CONTINUOUS
10
8.18873
20
-2.39842
11
8.17127
21
-2.39842
0
LINE
8
BLACK
6
CONTINUOUS
10
8.17127
20
-2.39842
11
8.16914
21
-2.398
0
LINE
8
BLACK
6
CONTINUOUS
10
8.16914
20
-2.398
11
8.15415
21
-2.39502
0
LINE
8
BLACK
6
CONTINUOUS
10
8.15415
20
-2.39502
11
8.13802
21
-2.38834
0
LINE
8
BLACK
6
CONTINUOUS
10
8.13802
20
-2.38834
11
8.12351
21
-2.37864
0
LINE
8
BLACK
6
CONTINUOUS
10
8.12351
20
-2.37864
11
8.11116
21
-2.36629
0
LINE
8
BLACK
6
CONTINUOUS
10
8.11116
20
-2.36629
11
8.10146
21
-2.35178
0
LINE
8
BLACK
6
CONTINUOUS
10
8.10146
20
-2.35178
11
8.09478
21
-2.33565
0
LINE
8
BLACK
6
CONTINUOUS
10
8.09478
20
-2.33565
11
8.0918
21
-2.32066
0
LINE
8
BLACK
6
CONTINUOUS
10
8.0918
20
-2.32066
11
8.09138
21
-2.31853
0
LINE
8
BLACK
6
CONTINUOUS
10
8.09138
20
-2.31853
11
8.09138
21
-2.30107
0
LINE
8
BLACK
6
CONTINUOUS
10
8.09138
20
-2.30107
11
8.0918
21
-2.29894
0
LINE
8
BLACK
6
CONTINUOUS
10
8.0918
20
-2.29894
11
8.09478
21
-2.28395
0
LINE
8
BLACK
6
CONTINUOUS
10
8.09478
20
-2.28395
11
8.10146
21
-2.26782
0
LINE
8
BLACK
6
CONTINUOUS
10
8.10146
20
-2.26782
11
8.11116
21
-2.25331
0
LINE
8
BLACK
6
CONTINUOUS
10
8.11116
20
-2.25331
11
8.12351
21
-2.24096
0
LINE
8
BLACK
6
CONTINUOUS
10
8.12351
20
-2.24096
11
8.13802
21
-2.23126
0
LINE
8
BLACK
6
CONTINUOUS
10
8.13802
20
-2.23126
11
8.15415
21
-2.22458
0
LINE
8
BLACK
6
CONTINUOUS
10
8.15415
20
-2.22458
11
8.16914
21
-2.2216
0
LINE
8
BLACK
6
CONTINUOUS
10
8.16914
20
-2.2216
11
8.17127
21
-2.22118
0
LINE
8
BLACK
6
CONTINUOUS
10
8.17127
20
-2.22118
11
8.18873
21
-2.22118
0
LINE
8
BLACK
6
CONTINUOUS
10
8.18873
20
-2.22118
11
8.19086
21
-2.2216
0
LINE
8
BLACK
6
CONTINUOUS
10
5.71486
20
-2.2216
11
5.72985
21
-2.22458
0
LINE
8
BLACK
6
CONTINUOUS
10
5.72985
20
-2.22458
11
5.74598
21
-2.23126
0
LINE
8
BLACK
6
CONTINUOUS
10
5.74598
20
-2.23126
11
5.76049
21
-2.24096
0
LINE
8
BLACK
6
CONTINUOUS
10
5.76049
20
-2.24096
11
5.77284
21
-2.25331
0
LINE
8
BLACK
6
CONTINUOUS
10
5.77284
20
-2.25331
11
5.78254
21
-2.26782
0
LINE
8
BLACK
6
CONTINUOUS
10
5.78254
20
-2.26782
11
5.78922
21
-2.28395
0
LINE
8
BLACK
6
CONTINUOUS
10
5.78922
20
-2.28395
11
5.7922
21
-2.29894
0
LINE
8
BLACK
6
CONTINUOUS
10
5.7922
20
-2.29894
11
5.79262
21
-2.30107
0
LINE
8
BLACK
6
CONTINUOUS
10
5.79262
20
-2.30107
11
5.79262
21
-2.31853
0
LINE
8
BLACK
6
CONTINUOUS
10
5.79262
20
-2.31853
11
5.7922
21
-2.32066
0
LINE
8
BLACK
6
CONTINUOUS
10
5.7922
20
-2.32066
11
5.78922
21
-2.33565
0
LINE
8
BLACK
6
CONTINUOUS
10
5.78922
20
-2.33565
11
5.78254
21
-2.35178
0
LINE
8
BLACK
6
CONTINUOUS
10
5.78254
20
-2.35178
11
5.77284
21
-2.36629
0
LINE
8
BLACK
6
CONTINUOUS
10
5.77284
20
-2.36629
11
5.76049
21
-2.37864
0
LINE
8
BLACK
6
CONTINUOUS
10
5.76049
20
-2.37864
11
5.74598
21
-2.38834
0
LINE
8
BLACK
6
CONTINUOUS
10
5.74598
20
-2.38834
11
5.72985
21
-2.39502
0
LINE
8
BLACK
6
CONTINUOUS
10
5.72985
20
-2.39502
11
5.71486
21
-2.398
0
LINE
8
BLACK
6
CONTINUOUS
10
5.71486
20
-2.398
11
5.71273
21
-2.39842
0
LINE
8
BLACK
6
CONTINUOUS
10
5.71273
20
-2.39842
11
5.69527
21
-2.39842
0
LINE
8
BLACK
6
CONTINUOUS
10
5.69527
20
-2.39842
11
5.69314
21
-2.398
0
LINE
8
BLACK
6
CONTINUOUS
10
5.69314
20
-2.398
11
5.67815
21
-2.39502
0
LINE
8
BLACK
6
CONTINUOUS
10
5.67815
20
-2.39502
11
5.66202
21
-2.38834
0
LINE
8
BLACK
6
CONTINUOUS
10
5.66202
20
-2.38834
11
5.64751
21
-2.37864
0
LINE
8
BLACK
6
CONTINUOUS
10
5.64751
20
-2.37864
11
5.63516
21
-2.36629
0
LINE
8
BLACK
6
CONTINUOUS
10
5.63516
20
-2.36629
11
5.62546
21
-2.35178
0
LINE
8
BLACK
6
CONTINUOUS
10
5.62546
20
-2.35178
11
5.61878
21
-2.33565
0
LINE
8
BLACK
6
CONTINUOUS
10
5.61878
20
-2.33565
11
5.6158
21
-2.32066
0
LINE
8
BLACK
6
CONTINUOUS
10
5.6158
20
-2.32066
11
5.61538
21
-2.31853
0
LINE
8
BLACK
6
CONTINUOUS
10
5.61538
20
-2.31853
11
5.61538
21
-2.30107
0
LINE
8
BLACK
6
CONTINUOUS
10
5.61538
20
-2.30107
11
5.6158
21
-2.29894
0
LINE
8
BLACK
6
CONTINUOUS
10
5.6158
20
-2.29894
11
5.61878
21
-2.28395
0
LINE
8
BLACK
6
CONTINUOUS
10
5.61878
20
-2.28395
11
5.62546
21
-2.26782
0
LINE
8
BLACK
6
CONTINUOUS
10
5.62546
20
-2.26782
11
5.63516
21
-2.25331
0
LINE
8
BLACK
6
CONTINUOUS
10
5.63516
20
-2.25331
11
5.64751
21
-2.24096
0
LINE
8
BLACK
6
CONTINUOUS
10
5.64751
20
-2.24096
11
5.66202
21
-2.23126
0
LINE
8
BLACK
6
CONTINUOUS
10
5.66202
20
-2.23126
11
5.67815
21
-2.22458
0
LINE
8
BLACK
6
CONTINUOUS
10
5.67815
20
-2.22458
11
5.69314
21
-2.2216
0
LINE
8
BLACK
6
CONTINUOUS
10
5.69314
20
-2.2216
11
5.69527
21
-2.22118
0
LINE
8
BLACK
6
CONTINUOUS
10
5.69527
20
-2.22118
11
5.71273
21
-2.22118
0
LINE
8
BLACK
6
CONTINUOUS
10
5.71273
20
-2.22118
11
5.71486
21
-2.2216
0
LINE
8
BLACK
6
CONTINUOUS
10
3.23686
20
-0.665802
11
3.25185
21
-0.668784
0
LINE
8
BLACK
6
CONTINUOUS
10
3.25185
20
-0.668784
11
3.26798
21
-0.675464
0
LINE
8
BLACK
6
CONTINUOUS
10
3.26798
20
-0.675464
11
3.28249
21
-0.685163
0
LINE
8
BLACK
6
CONTINUOUS
10
3.28249
20
-0.685163
11
3.29484
21
-0.697507
0
LINE
8
BLACK
6
CONTINUOUS
10
3.29484
20
-0.697507
11
3.30454
21
-0.712022
0
LINE
8
BLACK
6
CONTINUOUS
10
3.30454
20
-0.712022
11
3.31122
21
-0.72815
0
LINE
8
BLACK
6
CONTINUOUS
10
3.31122
20
-0.72815
11
3.3142
21
-0.743139
0
LINE
8
BLACK
6
CONTINUOUS
10
3.3142
20
-0.743139
11
3.31442
21
-0.744271
0
LINE
8
BLACK
6
CONTINUOUS
10
3.31442
20
-0.744271
11
3.31462
21
-0.745271
0
LINE
8
BLACK
6
CONTINUOUS
10
3.31462
20
-0.745271
11
3.31462
21
-0.762729
0
LINE
8
BLACK
6
CONTINUOUS
10
3.31462
20
-0.762729
11
3.31122
21
-0.77985
0
LINE
8
BLACK
6
CONTINUOUS
10
3.31122
20
-0.77985
11
3.30454
21
-0.795978
0
LINE
8
BLACK
6
CONTINUOUS
10
3.30454
20
-0.795978
11
3.29484
21
-0.810493
0
LINE
8
BLACK
6
CONTINUOUS
10
3.29484
20
-0.810493
11
3.28249
21
-0.822837
0
LINE
8
BLACK
6
CONTINUOUS
10
3.28249
20
-0.822837
11
3.26798
21
-0.832536
0
LINE
8
BLACK
6
CONTINUOUS
10
3.26798
20
-0.832536
11
3.25185
21
-0.839216
0
LINE
8
BLACK
6
CONTINUOUS
10
3.25185
20
-0.839216
11
3.23686
21
-0.842198
0
LINE
8
BLACK
6
CONTINUOUS
10
3.23686
20
-0.842198
11
3.23473
21
-0.842622
0
LINE
8
BLACK
6
CONTINUOUS
10
3.23473
20
-0.842622
11
3.21727
21
-0.842622
0
LINE
8
BLACK
6
CONTINUOUS
10
3.21727
20
-0.842622
11
3.21514
21
-0.842198
0
LINE
8
BLACK
6
CONTINUOUS
10
3.21514
20
-0.842198
11
3.20015
21
-0.839216
0
LINE
8
BLACK
6
CONTINUOUS
10
3.20015
20
-0.839216
11
3.18402
21
-0.832536
0
LINE
8
BLACK
6
CONTINUOUS
10
3.18402
20
-0.832536
11
3.16951
21
-0.822837
0
LINE
8
BLACK
6
CONTINUOUS
10
3.16951
20
-0.822837
11
3.15716
21
-0.810493
0
LINE
8
BLACK
6
CONTINUOUS
10
3.15716
20
-0.810493
11
3.14746
21
-0.795978
0
LINE
8
BLACK
6
CONTINUOUS
10
3.14746
20
-0.795978
11
3.14078
21
-0.77985
0
LINE
8
BLACK
6
CONTINUOUS
10
3.14078
20
-0.77985
11
3.13738
21
-0.762729
0
LINE
8
BLACK
6
CONTINUOUS
10
3.13738
20
-0.762729
11
3.13738
21
-0.745271
0
LINE
8
BLACK
6
CONTINUOUS
10
3.13738
20
-0.745271
11
3.13758
21
-0.744271
0
LINE
8
BLACK
6
CONTINUOUS
10
3.13758
20
-0.744271
11
3.1378
21
-0.743139
0
LINE
8
BLACK
6
CONTINUOUS
10
3.1378
20
-0.743139
11
3.14078
21
-0.72815
0
LINE
8
BLACK
6
CONTINUOUS
10
3.14078
20
-0.72815
11
3.14746
21
-0.712022
0
LINE
8
BLACK
6
CONTINUOUS
10
3.14746
20
-0.712022
11
3.15716
21
-0.697507
0
LINE
8
BLACK
6
CONTINUOUS
10
3.15716
20
-0.697507
11
3.16951
21
-0.685163
0
LINE
8
BLACK
6
CONTINUOUS
10
3.16951
20
-0.685163
11
3.18402
21
-0.675464
0
LINE
8
BLACK
6
CONTINUOUS
10
3.18402
20
-0.675464
11
3.20015
21
-0.668784
0
LINE
8
BLACK
6
CONTINUOUS
10
3.20015
20
-0.668784
11
3.21514
21
-0.665802
0
LINE
8
BLACK
6
CONTINUOUS
10
3.21514
20
-0.665802
11
3.21727
21
-0.665378
0
LINE
8
BLACK
6
CONTINUOUS
10
3.21727
20
-0.665378
11
3.23473
21
-0.665378
0
LINE
8
BLACK
6
CONTINUOUS
10
3.23473
20
-0.665378
11
3.23686
21
-0.665802
0
LINE
8
BLACK
6
CONTINUOUS
10
10.6479
20
-0.664802
11
10.6629
21
-0.667784
0
LINE
8
BLACK
6
CONTINUOUS
10
10.6629
20
-0.667784
11
10.679
21
-0.674464
0
LINE
8
BLACK
6
CONTINUOUS
10
10.679
20
-0.674464
11
10.6935
21
-0.684163
0
LINE
8
BLACK
6
CONTINUOUS
10
10.6935
20
-0.684163
11
10.7058
21
-0.696507
0
LINE
8
BLACK
6
CONTINUOUS
10
10.7058
20
-0.696507
11
10.7155
21
-0.711022
0
LINE
8
BLACK
6
CONTINUOUS
10
10.7155
20
-0.711022
11
10.7222
21
-0.72715
0
LINE
8
BLACK
6
CONTINUOUS
10
10.7222
20
-0.72715
11
10.7252
21
-0.742139
0
LINE
8
BLACK
6
CONTINUOUS
10
10.7252
20
-0.742139
11
10.7256
21
-0.744271
0
LINE
8
BLACK
6
CONTINUOUS
10
10.7256
20
-0.744271
11
10.7256
21
-0.761729
0
LINE
8
BLACK
6
CONTINUOUS
10
10.7256
20
-0.761729
11
10.7252
21
-0.763861
0
LINE
8
BLACK
6
CONTINUOUS
10
10.7252
20
-0.763861
11
10.7222
21
-0.77885
0
LINE
8
BLACK
6
CONTINUOUS
10
10.7222
20
-0.77885
11
10.7155
21
-0.794978
0
LINE
8
BLACK
6
CONTINUOUS
10
10.7155
20
-0.794978
11
10.7058
21
-0.809493
0
LINE
8
BLACK
6
CONTINUOUS
10
10.7058
20
-0.809493
11
10.6935
21
-0.821837
0
LINE
8
BLACK
6
CONTINUOUS
10
10.6935
20
-0.821837
11
10.679
21
-0.831536
0
LINE
8
BLACK
6
CONTINUOUS
10
10.679
20
-0.831536
11
10.6629
21
-0.838216
0
LINE
8
BLACK
6
CONTINUOUS
10
10.6629
20
-0.838216
11
10.6479
21
-0.841198
0
LINE
8
BLACK
6
CONTINUOUS
10
10.6479
20
-0.841198
11
10.6457
21
-0.841622
0
LINE
8
BLACK
6
CONTINUOUS
10
10.6457
20
-0.841622
11
10.6283
21
-0.841622
0
LINE
8
BLACK
6
CONTINUOUS
10
10.6283
20
-0.841622
11
10.6261
21
-0.841198
0
LINE
8
BLACK
6
CONTINUOUS
10
10.6261
20
-0.841198
11
10.6111
21
-0.838216
0
LINE
8
BLACK
6
CONTINUOUS
10
10.6111
20
-0.838216
11
10.595
21
-0.831536
0
LINE
8
BLACK
6
CONTINUOUS
10
10.595
20
-0.831536
11
10.5805
21
-0.821837
0
LINE
8
BLACK
6
CONTINUOUS
10
10.5805
20
-0.821837
11
10.5682
21
-0.809493
0
LINE
8
BLACK
6
CONTINUOUS
10
10.5682
20
-0.809493
11
10.5585
21
-0.794978
0
LINE
8
BLACK
6
CONTINUOUS
10
10.5585
20
-0.794978
11
10.5518
21
-0.77885
0
LINE
8
BLACK
6
CONTINUOUS
10
10.5518
20
-0.77885
11
10.5488
21
-0.763861
0
LINE
8
BLACK
6
CONTINUOUS
10
10.5488
20
-0.763861
11
10.5484
21
-0.761729
0
LINE
8
BLACK
6
CONTINUOUS
10
10.5484
20
-0.761729
11
10.5484
21
-0.744271
0
LINE
8
BLACK
6
CONTINUOUS
10
10.5484
20
-0.744271
11
10.5488
21
-0.742139
0
LINE
8
BLACK
6
CONTINUOUS
10
10.5488
20
-0.742139
11
10.5518
21
-0.72715
0
LINE
8
BLACK
6
CONTINUOUS
10
10.5518
20
-0.72715
11
10.5585
21
-0.711022
0
LINE
8
BLACK
6
CONTINUOUS
10
10.5585
20
-0.711022
11
10.5682
21
-0.696507
0
LINE
8
BLACK
6
CONTINUOUS
10
10.5682
20
-0.696507
11
10.5805
21
-0.684163
0
LINE
8
BLACK
6
CONTINUOUS
10
10.5805
20
-0.684163
11
10.595
21
-0.674464
0
LINE
8
BLACK
6
CONTINUOUS
10
10.595
20
-0.674464
11
10.6111
21
-0.667784
0
LINE
8
BLACK
6
CONTINUOUS
10
10.6111
20
-0.667784
11
10.6261
21
-0.664802
0
LINE
8
BLACK
6
CONTINUOUS
10
10.6261
20
-0.664802
11
10.6283
21
-0.664378
0
LINE
8
BLACK
6
CONTINUOUS
10
10.6283
20
-0.664378
11
10.6457
21
-0.664378
0
LINE
8
BLACK
6
CONTINUOUS
10
10.6457
20
-0.664378
11
10.6479
21
-0.664802
0
LINE
8
BLACK
6
CONTINUOUS
10
8.19086
20
-0.664802
11
8.20585
21
-0.667784
0
LINE
8
BLACK
6
CONTINUOUS
10
8.20585
20
-0.667784
11
8.22198
21
-0.674464
0
LINE
8
BLACK
6
CONTINUOUS
10
8.22198
20
-0.674464
11
8.23649
21
-0.684163
0
LINE
8
BLACK
6
CONTINUOUS
10
8.23649
20
-0.684163
11
8.24884
21
-0.696507
0
LINE
8
BLACK
6
CONTINUOUS
10
8.24884
20
-0.696507
11
8.25854
21
-0.711022
0
LINE
8
BLACK
6
CONTINUOUS
10
8.25854
20
-0.711022
11
8.26522
21
-0.72715
0
LINE
8
BLACK
6
CONTINUOUS
10
8.26522
20
-0.72715
11
8.2682
21
-0.742139
0
LINE
8
BLACK
6
CONTINUOUS
10
8.2682
20
-0.742139
11
8.26862
21
-0.744271
0
LINE
8
BLACK
6
CONTINUOUS
10
8.26862
20
-0.744271
11
8.26862
21
-0.761729
0
LINE
8
BLACK
6
CONTINUOUS
10
8.26862
20
-0.761729
11
8.2682
21
-0.763861
0
LINE
8
BLACK
6
CONTINUOUS
10
8.2682
20
-0.763861
11
8.26522
21
-0.77885
0
LINE
8
BLACK
6
CONTINUOUS
10
8.26522
20
-0.77885
11
8.25854
21
-0.794978
0
LINE
8
BLACK
6
CONTINUOUS
10
8.25854
20
-0.794978
11
8.24884
21
-0.809493
0
LINE
8
BLACK
6
CONTINUOUS
10
8.24884
20
-0.809493
11
8.23649
21
-0.821837
0
LINE
8
BLACK
6
CONTINUOUS
10
8.23649
20
-0.821837
11
8.22198
21
-0.831536
0
LINE
8
BLACK
6
CONTINUOUS
10
8.22198
20
-0.831536
11
8.20585
21
-0.838216
0
LINE
8
BLACK
6
CONTINUOUS
10
8.20585
20
-0.838216
11
8.19086
21
-0.841198
0
LINE
8
BLACK
6
CONTINUOUS
10
8.19086
20
-0.841198
11
8.18873
21
-0.841622
0
LINE
8
BLACK
6
CONTINUOUS
10
8.18873
20
-0.841622
11
8.17127
21
-0.841622
0
LINE
8
BLACK
6
CONTINUOUS
10
8.17127
20
-0.841622
11
8.16914
21
-0.841198
0
LINE
8
BLACK
6
CONTINUOUS
10
8.16914
20
-0.841198
11
8.15415
21
-0.838216
0
LINE
8
BLACK
6
CONTINUOUS
10
8.15415
20
-0.838216
11
8.13802
21
-0.831536
0
LINE
8
BLACK
6
CONTINUOUS
10
8.13802
20
-0.831536
11
8.12351
21
-0.821837
0
LINE
8
BLACK
6
CONTINUOUS
10
8.12351
20
-0.821837
11
8.11116
21
-0.809493
0
LINE
8
BLACK
6
CONTINUOUS
10
8.11116
20
-0.809493
11
8.10146
21
-0.794978
0
LINE
8
BLACK
6
CONTINUOUS
10
8.10146
20
-0.794978
11
8.09478
21
-0.77885
0
LINE
8
BLACK
6
CONTINUOUS
10
8.09478
20
-0.77885
11
8.0918
21
-0.763861
0
LINE
8
BLACK
6
CONTINUOUS
10
8.0918
20
-0.763861
11
8.09138
21
-0.761729
0
LINE
8
BLACK
6
CONTINUOUS
10
8.09138
20
-0.761729
11
8.09138
21
-0.744271
0
LINE
8
BLACK
6
CONTINUOUS
10
8.09138
20
-0.744271
11
8.0918
21
-0.742139
0
LINE
8
BLACK
6
CONTINUOUS
10
8.0918
20
-0.742139
11
8.09478
21
-0.72715
0
LINE
8
BLACK
6
CONTINUOUS
10
8.09478
20
-0.72715
11
8.10146
21
-0.711022
0
LINE
8
BLACK
6
CONTINUOUS
10
8.10146
20
-0.711022
11
8.11116
21
-0.696507
0
LINE
8
BLACK
6
CONTINUOUS
10
8.11116
20
-0.696507
11
8.12351
21
-0.684163
0
LINE
8
BLACK
6
CONTINUOUS
10
8.12351
20
-0.684163
11
8.13802
21
-0.674464
0
LINE
8
BLACK
6
CONTINUOUS
10
8.13802
20
-0.674464
11
8.15415
21
-0.667784
0
LINE
8
BLACK
6
CONTINUOUS
10
8.15415
20
-0.667784
11
8.16914
21
-0.664802
0
LINE
8
BLACK
6
CONTINUOUS
10
8.16914
20
-0.664802
11
8.17127
21
-0.664378
0
LINE
8
BLACK
6
CONTINUOUS
10
8.17127
20
-0.664378
11
8.18873
21
-0.664378
0
LINE
8
BLACK
6
CONTINUOUS
10
8.18873
20
-0.664378
11
8.19086
21
-0.664802
0
LINE
8
BLACK
6
CONTINUOUS
10
5.71486
20
-0.664802
11
5.72985
21
-0.667784
0
LINE
8
BLACK
6
CONTINUOUS
10
5.72985
20
-0.667784
11
5.74598
21
-0.674464
0
LINE
8
BLACK
6
CONTINUOUS
10
5.74598
20
-0.674464
11
5.76049
21
-0.684163
0
LINE
8
BLACK
6
CONTINUOUS
10
5.76049
20
-0.684163
11
5.77284
21
-0.696507
0
LINE
8
BLACK
6
CONTINUOUS
10
5.77284
20
-0.696507
11
5.78254
21
-0.711022
0
LINE
8
BLACK
6
CONTINUOUS
10
5.78254
20
-0.711022
11
5.78922
21
-0.72715
0
LINE
8
BLACK
6
CONTINUOUS
10
5.78922
20
-0.72715
11
5.7922
21
-0.742139
0
LINE
8
BLACK
6
CONTINUOUS
10
5.7922
20
-0.742139
11
5.79262
21
-0.744271
0
LINE
8
BLACK
6
CONTINUOUS
10
5.79262
20
-0.744271
11
5.79262
21
-0.761729
0
LINE
8
BLACK
6
CONTINUOUS
10
5.79262
20
-0.761729
11
5.7922
21
-0.763861
0
LINE
8
BLACK
6
CONTINUOUS
10
5.7922
20
-0.763861
11
5.78922
21
-0.77885
0
LINE
8
BLACK
6
CONTINUOUS
10
5.78922
20
-0.77885
11
5.78254
21
-0.794978
0
LINE
8
BLACK
6
CONTINUOUS
10
5.78254
20
-0.794978
11
5.77284
21
-0.809493
0
LINE
8
BLACK
6
CONTINUOUS
10
5.77284
20
-0.809493
11
5.76049
21
-0.821837
0
LINE
8
BLACK
6
CONTINUOUS
10
5.76049
20
-0.821837
11
5.74598
21
-0.831536
0
LINE
8
BLACK
6
CONTINUOUS
10
5.74598
20
-0.831536
11
5.72985
21
-0.838216
0
LINE
8
BLACK
6
CONTINUOUS
10
5.72985
20
-0.838216
11
5.71486
21
-0.841198
0
LINE
8
BLACK
6
CONTINUOUS
10
5.71486
20
-0.841198
11
5.71273
21
-0.841622
0
LINE
8
BLACK
6
CONTINUOUS
10
5.71273
20
-0.841622
11
5.69527
21
-0.841622
0
LINE
8
BLACK
6
CONTINUOUS
10
5.69527
20
-0.841622
11
5.69314
21
-0.841198
0
LINE
8
BLACK
6
CONTINUOUS
10
5.69314
20
-0.841198
11
5.67815
21
-0.838216
0
LINE
8
BLACK
6
CONTINUOUS
10
5.67815
20
-0.838216
11
5.66202
21
-0.831536
0
LINE
8
BLACK
6
CONTINUOUS
10
5.66202
20
-0.831536
11
5.64751
21
-0.821837
0
LINE
8
BLACK
6
CONTINUOUS
10
5.64751
20
-0.821837
11
5.63516
21
-0.809493
0
LINE
8
BLACK
6
CONTINUOUS
10
5.63516
20
-0.809493
11
5.62546
21
-0.794978
0
LINE
8
BLACK
6
CONTINUOUS
10
5.62546
20
-0.794978
11
5.61878
21
-0.77885
0
LINE
8
BLACK
6
CONTINUOUS
10
5.61878
20
-0.77885
11
5.6158
21
-0.763861
0
LINE
8
BLACK
6
CONTINUOUS
10
5.6158
20
-0.763861
11
5.61538
21
-0.761729
0
LINE
8
BLACK
6
CONTINUOUS
10
5.61538
20
-0.761729
11
5.61538
21
-0.744271
0
LINE
8
BLACK
6
CONTINUOUS
10
5.61538
20
-0.744271
11
5.6158
21
-0.742139
0
LINE
8
BLACK
6
CONTINUOUS
10
5.6158
20
-0.742139
11
5.61878
21
-0.72715
0
LINE
8
BLACK
6
CONTINUOUS
10
5.61878
20
-0.72715
11
5.62546
21
-0.711022
0
LINE
8
BLACK
6
CONTINUOUS
10
5.62546
20
-0.711022
11
5.63516
21
-0.696507
0
LINE
8
BLACK
6
CONTINUOUS
10
5.63516
20
-0.696507
11
5.64751
21
-0.684163
0
LINE
8
BLACK
6
CONTINUOUS
10
5.64751
20
-0.684163
11
5.66202
21
-0.674464
0
LINE
8
BLACK
6
CONTINUOUS
10
5.66202
20
-0.674464
11
5.67815
21
-0.667784
0
LINE
8
BLACK
6
CONTINUOUS
10
5.67815
20
-0.667784
11
5.69314
21
-0.664802
0
LINE
8
BLACK
6
CONTINUOUS
10
5.69314
20
-0.664802
11
5.69527
21
-0.664378
0
LINE
8
BLACK
6
CONTINUOUS
10
5.69527
20
-0.664378
11
5.71273
21
-0.664378
0
LINE
8
BLACK
6
CONTINUOUS
10
5.71273
20
-0.664378
11
5.71486
21
-0.664802
0
LINE
8
BLACK
6
CONTINUOUS
10
0.784861
20
-0.663802
11
0.79985
21
-0.666784
0
LINE
8
BLACK
6
CONTINUOUS
10
0.79985
20
-0.666784
11
0.815978
21
-0.673464
0
LINE
8
BLACK
6
CONTINUOUS
10
0.815978
20
-0.673464
11
0.830493
21
-0.683163
0
LINE
8
BLACK
6
CONTINUOUS
10
0.830493
20
-0.683163
11
0.842837
21
-0.695507
0
LINE
8
BLACK
6
CONTINUOUS
10
0.842837
20
-0.695507
11
0.852536
21
-0.710022
0
LINE
8
BLACK
6
CONTINUOUS
10
0.852536
20
-0.710022
11
0.859216
21
-0.72615
0
LINE
8
BLACK
6
CONTINUOUS
10
0.859216
20
-0.72615
11
0.862198
21
-0.741139
0
LINE
8
BLACK
6
CONTINUOUS
10
0.862198
20
-0.741139
11
0.862622
21
-0.743271
0
LINE
8
BLACK
6
CONTINUOUS
10
0.862622
20
-0.743271
11
0.862622
21
-0.760729
0
LINE
8
BLACK
6
CONTINUOUS
10
0.862622
20
-0.760729
11
0.862224
21
-0.762729
0
LINE
8
BLACK
6
CONTINUOUS
10
0.862224
20
-0.762729
11
0.859216
21
-0.77785
0
LINE
8
BLACK
6
CONTINUOUS
10
0.859216
20
-0.77785
11
0.852536
21
-0.793978
0
LINE
8
BLACK
6
CONTINUOUS
10
0.852536
20
-0.793978
11
0.842837
21
-0.808493
0
LINE
8
BLACK
6
CONTINUOUS
10
0.842837
20
-0.808493
11
0.830493
21
-0.820837
0
LINE
8
BLACK
6
CONTINUOUS
10
0.830493
20
-0.820837
11
0.815978
21
-0.830536
0
LINE
8
BLACK
6
CONTINUOUS
10
0.815978
20
-0.830536
11
0.79985
21
-0.837216
0
LINE
8
BLACK
6
CONTINUOUS
10
0.79985
20
-0.837216
11
0.784861
21
-0.840198
0
LINE
8
BLACK
6
CONTINUOUS
10
0.784861
20
-0.840198
11
0.782729
21
-0.840622
0
LINE
8
BLACK
6
CONTINUOUS
10
0.782729
20
-0.840622
11
0.765271
21
-0.840622
0
LINE
8
BLACK
6
CONTINUOUS
10
0.765271
20
-0.840622
11
0.763139
21
-0.840198
0
LINE
8
BLACK
6
CONTINUOUS
10
0.763139
20
-0.840198
11
0.74815
21
-0.837216
0
LINE
8
BLACK
6
CONTINUOUS
10
0.74815
20
-0.837216
11
0.732022
21
-0.830536
0
LINE
8
BLACK
6
CONTINUOUS
10
0.732022
20
-0.830536
11
0.717507
21
-0.820837
0
LINE
8
BLACK
6
CONTINUOUS
10
0.717507
20
-0.820837
11
0.705163
21
-0.808493
0
LINE
8
BLACK
6
CONTINUOUS
10
0.705163
20
-0.808493
11
0.695464
21
-0.793978
0
LINE
8
BLACK
6
CONTINUOUS
10
0.695464
20
-0.793978
11
0.688784
21
-0.77785
0
LINE
8
BLACK
6
CONTINUOUS
10
0.688784
20
-0.77785
11
0.685776
21
-0.762729
0
LINE
8
BLACK
6
CONTINUOUS
10
0.685776
20
-0.762729
11
0.685378
21
-0.760729
0
LINE
8
BLACK
6
CONTINUOUS
10
0.685378
20
-0.760729
11
0.685378
21
-0.743271
0
LINE
8
BLACK
6
CONTINUOUS
10
0.685378
20
-0.743271
11
0.685802
21
-0.741139
0
LINE
8
BLACK
6
CONTINUOUS
10
0.685802
20
-0.741139
11
0.688784
21
-0.72615
0
LINE
8
BLACK
6
CONTINUOUS
10
0.688784
20
-0.72615
11
0.695464
21
-0.710022
0
LINE
8
BLACK
6
CONTINUOUS
10
0.695464
20
-0.710022
11
0.705163
21
-0.695507
0
LINE
8
BLACK
6
CONTINUOUS
10
0.705163
20
-0.695507
11
0.717507
21
-0.683163
0
LINE
8
BLACK
6
CONTINUOUS
10
0.717507
20
-0.683163
11
0.732022
21
-0.673464
0
LINE
8
BLACK
6
CONTINUOUS
10
0.732022
20
-0.673464
11
0.74815
21
-0.666784
0
LINE
8
BLACK
6
CONTINUOUS
10
0.74815
20
-0.666784
11
0.763139
21
-0.663802
0
LINE
8
BLACK
6
CONTINUOUS
10
0.763139
20
-0.663802
11
0.765271
21
-0.663378
0
LINE
8
BLACK
6
CONTINUOUS
10
0.765271
20
-0.663378
11
0.782729
21
-0.663378
0
LINE
8
BLACK
6
CONTINUOUS
10
0.782729
20
-0.663378
11
0.784861
21
-0.663802
  0
ENDSEC
  0
EOF
