  0
SECTION
  2
HEADER
  9
$ANGBASE
  50
0.0
  9
$ANGDIR
  70
1
  9
$MEASUREMENT
  70
0
  0
ENDSEC
  0
SECTION
  2
TABLES
  0
TABLE
  2
LTYPE
  70
4
  0
LTYPE
  5
40F
  2
CONTINUOUS
  70
0
  3
Solid line
  72
65
  73
0
  40
0.0
  0
LTYPE
  5
410
  2
DASHDOT
 70
0
  3
Dash Dot ____ _ ____ _
 72
65
 73
4
 40
2.0
 49
1.25
 49
-0.25
 49
0.25
 49
-0.25
  0
LTYPE
  5
411
  2
DASHED
 70
0
  3
Dashed __ __ __ __ __
 72
65
 73
2
 40
0.75
 49
0.5
 49
-0.25
  0
LTYPE
  5
43B
  2
DOTTED
 70
0
  3
Dotted .  .  .  .
 72
65
 73
2
 40
0.2
 49
0.0
 49
-0.2
  0
ENDTAB
  0
TABLE
  2
STYLE
  70
4
  0
STYLE
  2
KICAD
  70
0
  40
0
  41
1
  42
1
  50
0
  71
0
  3
isocp.shx
  0
STYLE
  2
KICADB
  70
0
  40
0
  41
1
  42
1
  50
0
  71
0
  3
isocp.shx
  0
STYLE
  2
KICADI
  70
0
  40
0
  41
1
  42
1
  50
15
  71
0
  3
isocp.shx
  0
STYLE
  2
KICADBI
  70
0
  40
0
  41
1
  42
1
  50
15
  71
0
  3
isocp.shx
  0
ENDTAB
  0
TABLE
  2
LAYER
  70
1
  0
LAYER
  2
BLACK
  70
0
  62
7
  6
CONTINUOUS
  0
ENDTAB
  0
ENDSEC
  0
SECTION
  2
ENTITIES
0
LINE
8
BLACK
6
CONTINUOUS
10
3.25326
20
-3.78371
11
3.26903
21
-3.79024
0
LINE
8
BLACK
6
CONTINUOUS
10
3.26903
20
-3.79024
11
3.28321
21
-3.79972
0
LINE
8
BLACK
6
CONTINUOUS
10
3.28321
20
-3.79972
11
3.29528
21
-3.81179
0
LINE
8
BLACK
6
CONTINUOUS
10
3.29528
20
-3.81179
11
3.30476
21
-3.82597
0
LINE
8
BLACK
6
CONTINUOUS
10
3.30476
20
-3.82597
11
3.31129
21
-3.84174
0
LINE
8
BLACK
6
CONTINUOUS
10
3.31129
20
-3.84174
11
3.31461
21
-3.85847
0
LINE
8
BLACK
6
CONTINUOUS
10
3.31461
20
-3.85847
11
3.31461
21
-3.87553
0
LINE
8
BLACK
6
CONTINUOUS
10
3.31461
20
-3.87553
11
3.31129
21
-3.89226
0
LINE
8
BLACK
6
CONTINUOUS
10
3.31129
20
-3.89226
11
3.30476
21
-3.90803
0
LINE
8
BLACK
6
CONTINUOUS
10
3.30476
20
-3.90803
11
3.29528
21
-3.92221
0
LINE
8
BLACK
6
CONTINUOUS
10
3.29528
20
-3.92221
11
3.28321
21
-3.93428
0
LINE
8
BLACK
6
CONTINUOUS
10
3.28321
20
-3.93428
11
3.26903
21
-3.94376
0
LINE
8
BLACK
6
CONTINUOUS
10
3.26903
20
-3.94376
11
3.25326
21
-3.95029
0
LINE
8
BLACK
6
CONTINUOUS
10
3.25326
20
-3.95029
11
3.23653
21
-3.95361
0
LINE
8
BLACK
6
CONTINUOUS
10
3.23653
20
-3.95361
11
3.21947
21
-3.95361
0
LINE
8
BLACK
6
CONTINUOUS
10
3.21947
20
-3.95361
11
3.20274
21
-3.95029
0
LINE
8
BLACK
6
CONTINUOUS
10
3.20274
20
-3.95029
11
3.18697
21
-3.94376
0
LINE
8
BLACK
6
CONTINUOUS
10
3.18697
20
-3.94376
11
3.17279
21
-3.93428
0
LINE
8
BLACK
6
CONTINUOUS
10
3.17279
20
-3.93428
11
3.16072
21
-3.92221
0
LINE
8
BLACK
6
CONTINUOUS
10
3.16072
20
-3.92221
11
3.15124
21
-3.90803
0
LINE
8
BLACK
6
CONTINUOUS
10
3.15124
20
-3.90803
11
3.14471
21
-3.89226
0
LINE
8
BLACK
6
CONTINUOUS
10
3.14471
20
-3.89226
11
3.14139
21
-3.87553
0
LINE
8
BLACK
6
CONTINUOUS
10
3.14139
20
-3.87553
11
3.14139
21
-3.85847
0
LINE
8
BLACK
6
CONTINUOUS
10
3.14139
20
-3.85847
11
3.14471
21
-3.84174
0
LINE
8
BLACK
6
CONTINUOUS
10
3.14471
20
-3.84174
11
3.15124
21
-3.82597
0
LINE
8
BLACK
6
CONTINUOUS
10
3.15124
20
-3.82597
11
3.16072
21
-3.81179
0
LINE
8
BLACK
6
CONTINUOUS
10
3.16072
20
-3.81179
11
3.17279
21
-3.79972
0
LINE
8
BLACK
6
CONTINUOUS
10
3.17279
20
-3.79972
11
3.18697
21
-3.79024
0
LINE
8
BLACK
6
CONTINUOUS
10
3.18697
20
-3.79024
11
3.20274
21
-3.78371
0
LINE
8
BLACK
6
CONTINUOUS
10
3.20274
20
-3.78371
11
3.21947
21
-3.78039
0
LINE
8
BLACK
6
CONTINUOUS
10
3.21947
20
-3.78039
11
3.23653
21
-3.78039
0
LINE
8
BLACK
6
CONTINUOUS
10
3.23653
20
-3.78039
11
3.25326
21
-3.78371
0
LINE
8
BLACK
6
CONTINUOUS
10
8.20726
20
-3.78271
11
8.22303
21
-3.78924
0
LINE
8
BLACK
6
CONTINUOUS
10
8.22303
20
-3.78924
11
8.23721
21
-3.79872
0
LINE
8
BLACK
6
CONTINUOUS
10
8.23721
20
-3.79872
11
8.24928
21
-3.81079
0
LINE
8
BLACK
6
CONTINUOUS
10
8.24928
20
-3.81079
11
8.25876
21
-3.82497
0
LINE
8
BLACK
6
CONTINUOUS
10
8.25876
20
-3.82497
11
8.26529
21
-3.84074
0
LINE
8
BLACK
6
CONTINUOUS
10
8.26529
20
-3.84074
11
8.26861
21
-3.85747
0
LINE
8
BLACK
6
CONTINUOUS
10
8.26861
20
-3.85747
11
8.26861
21
-3.87453
0
LINE
8
BLACK
6
CONTINUOUS
10
8.26861
20
-3.87453
11
8.26529
21
-3.89126
0
LINE
8
BLACK
6
CONTINUOUS
10
8.26529
20
-3.89126
11
8.25876
21
-3.90703
0
LINE
8
BLACK
6
CONTINUOUS
10
8.25876
20
-3.90703
11
8.24928
21
-3.92121
0
LINE
8
BLACK
6
CONTINUOUS
10
8.24928
20
-3.92121
11
8.23721
21
-3.93328
0
LINE
8
BLACK
6
CONTINUOUS
10
8.23721
20
-3.93328
11
8.22303
21
-3.94276
0
LINE
8
BLACK
6
CONTINUOUS
10
8.22303
20
-3.94276
11
8.20726
21
-3.94929
0
LINE
8
BLACK
6
CONTINUOUS
10
8.20726
20
-3.94929
11
8.19053
21
-3.95261
0
LINE
8
BLACK
6
CONTINUOUS
10
8.19053
20
-3.95261
11
8.17347
21
-3.95261
0
LINE
8
BLACK
6
CONTINUOUS
10
8.17347
20
-3.95261
11
8.15674
21
-3.94929
0
LINE
8
BLACK
6
CONTINUOUS
10
8.15674
20
-3.94929
11
8.14097
21
-3.94276
0
LINE
8
BLACK
6
CONTINUOUS
10
8.14097
20
-3.94276
11
8.12679
21
-3.93328
0
LINE
8
BLACK
6
CONTINUOUS
10
8.12679
20
-3.93328
11
8.11472
21
-3.92121
0
LINE
8
BLACK
6
CONTINUOUS
10
8.11472
20
-3.92121
11
8.10524
21
-3.90703
0
LINE
8
BLACK
6
CONTINUOUS
10
8.10524
20
-3.90703
11
8.09871
21
-3.89126
0
LINE
8
BLACK
6
CONTINUOUS
10
8.09871
20
-3.89126
11
8.09539
21
-3.87453
0
LINE
8
BLACK
6
CONTINUOUS
10
8.09539
20
-3.87453
11
8.09539
21
-3.85747
0
LINE
8
BLACK
6
CONTINUOUS
10
8.09539
20
-3.85747
11
8.09871
21
-3.84074
0
LINE
8
BLACK
6
CONTINUOUS
10
8.09871
20
-3.84074
11
8.10524
21
-3.82497
0
LINE
8
BLACK
6
CONTINUOUS
10
8.10524
20
-3.82497
11
8.11472
21
-3.81079
0
LINE
8
BLACK
6
CONTINUOUS
10
8.11472
20
-3.81079
11
8.12679
21
-3.79872
0
LINE
8
BLACK
6
CONTINUOUS
10
8.12679
20
-3.79872
11
8.14097
21
-3.78924
0
LINE
8
BLACK
6
CONTINUOUS
10
8.14097
20
-3.78924
11
8.15674
21
-3.78271
0
LINE
8
BLACK
6
CONTINUOUS
10
8.15674
20
-3.78271
11
8.17347
21
-3.77939
0
LINE
8
BLACK
6
CONTINUOUS
10
8.17347
20
-3.77939
11
8.19053
21
-3.77939
0
LINE
8
BLACK
6
CONTINUOUS
10
8.19053
20
-3.77939
11
8.20726
21
-3.78271
0
LINE
8
BLACK
6
CONTINUOUS
10
0.799264
20
-3.78271
11
0.815027
21
-3.78924
0
LINE
8
BLACK
6
CONTINUOUS
10
0.815027
20
-3.78924
11
0.829213
21
-3.79872
0
LINE
8
BLACK
6
CONTINUOUS
10
0.829213
20
-3.79872
11
0.841278
21
-3.81079
0
LINE
8
BLACK
6
CONTINUOUS
10
0.841278
20
-3.81079
11
0.850756
21
-3.82497
0
LINE
8
BLACK
6
CONTINUOUS
10
0.850756
20
-3.82497
11
0.857286
21
-3.84074
0
LINE
8
BLACK
6
CONTINUOUS
10
0.857286
20
-3.84074
11
0.860614
21
-3.85747
0
LINE
8
BLACK
6
CONTINUOUS
10
0.860614
20
-3.85747
11
0.860614
21
-3.87453
0
LINE
8
BLACK
6
CONTINUOUS
10
0.860614
20
-3.87453
11
0.857286
21
-3.89126
0
LINE
8
BLACK
6
CONTINUOUS
10
0.857286
20
-3.89126
11
0.850756
21
-3.90703
0
LINE
8
BLACK
6
CONTINUOUS
10
0.850756
20
-3.90703
11
0.841278
21
-3.92121
0
LINE
8
BLACK
6
CONTINUOUS
10
0.841278
20
-3.92121
11
0.829213
21
-3.93328
0
LINE
8
BLACK
6
CONTINUOUS
10
0.829213
20
-3.93328
11
0.815027
21
-3.94276
0
LINE
8
BLACK
6
CONTINUOUS
10
0.815027
20
-3.94276
11
0.799264
21
-3.94929
0
LINE
8
BLACK
6
CONTINUOUS
10
0.799264
20
-3.94929
11
0.782531
21
-3.95261
0
LINE
8
BLACK
6
CONTINUOUS
10
0.782531
20
-3.95261
11
0.765469
21
-3.95261
0
LINE
8
BLACK
6
CONTINUOUS
10
0.765469
20
-3.95261
11
0.748736
21
-3.94929
0
LINE
8
BLACK
6
CONTINUOUS
10
0.748736
20
-3.94929
11
0.732973
21
-3.94276
0
LINE
8
BLACK
6
CONTINUOUS
10
0.732973
20
-3.94276
11
0.718787
21
-3.93328
0
LINE
8
BLACK
6
CONTINUOUS
10
0.718787
20
-3.93328
11
0.706722
21
-3.92121
0
LINE
8
BLACK
6
CONTINUOUS
10
0.706722
20
-3.92121
11
0.697244
21
-3.90703
0
LINE
8
BLACK
6
CONTINUOUS
10
0.697244
20
-3.90703
11
0.690714
21
-3.89126
0
LINE
8
BLACK
6
CONTINUOUS
10
0.690714
20
-3.89126
11
0.687386
21
-3.87453
0
LINE
8
BLACK
6
CONTINUOUS
10
0.687386
20
-3.87453
11
0.687386
21
-3.85747
0
LINE
8
BLACK
6
CONTINUOUS
10
0.687386
20
-3.85747
11
0.690714
21
-3.84074
0
LINE
8
BLACK
6
CONTINUOUS
10
0.690714
20
-3.84074
11
0.697244
21
-3.82497
0
LINE
8
BLACK
6
CONTINUOUS
10
0.697244
20
-3.82497
11
0.706722
21
-3.81079
0
LINE
8
BLACK
6
CONTINUOUS
10
0.706722
20
-3.81079
11
0.718787
21
-3.79872
0
LINE
8
BLACK
6
CONTINUOUS
10
0.718787
20
-3.79872
11
0.732973
21
-3.78924
0
LINE
8
BLACK
6
CONTINUOUS
10
0.732973
20
-3.78924
11
0.748736
21
-3.78271
0
LINE
8
BLACK
6
CONTINUOUS
10
0.748736
20
-3.78271
11
0.765469
21
-3.77939
0
LINE
8
BLACK
6
CONTINUOUS
10
0.765469
20
-3.77939
11
0.782531
21
-3.77939
0
LINE
8
BLACK
6
CONTINUOUS
10
0.782531
20
-3.77939
11
0.799264
21
-3.78271
0
LINE
8
BLACK
6
CONTINUOUS
10
10.6623
20
-3.78271
11
10.678
21
-3.78924
0
LINE
8
BLACK
6
CONTINUOUS
10
10.678
20
-3.78924
11
10.6922
21
-3.79872
0
LINE
8
BLACK
6
CONTINUOUS
10
10.6922
20
-3.79872
11
10.7043
21
-3.81079
0
LINE
8
BLACK
6
CONTINUOUS
10
10.7043
20
-3.81079
11
10.7138
21
-3.82497
0
LINE
8
BLACK
6
CONTINUOUS
10
10.7138
20
-3.82497
11
10.7203
21
-3.84074
0
LINE
8
BLACK
6
CONTINUOUS
10
10.7203
20
-3.84074
11
10.7236
21
-3.85747
0
LINE
8
BLACK
6
CONTINUOUS
10
10.7236
20
-3.85747
11
10.7236
21
-3.87453
0
LINE
8
BLACK
6
CONTINUOUS
10
10.7236
20
-3.87453
11
10.7203
21
-3.89126
0
LINE
8
BLACK
6
CONTINUOUS
10
10.7203
20
-3.89126
11
10.7138
21
-3.90703
0
LINE
8
BLACK
6
CONTINUOUS
10
10.7138
20
-3.90703
11
10.7043
21
-3.92121
0
LINE
8
BLACK
6
CONTINUOUS
10
10.7043
20
-3.92121
11
10.6922
21
-3.93328
0
LINE
8
BLACK
6
CONTINUOUS
10
10.6922
20
-3.93328
11
10.678
21
-3.94276
0
LINE
8
BLACK
6
CONTINUOUS
10
10.678
20
-3.94276
11
10.6623
21
-3.94929
0
LINE
8
BLACK
6
CONTINUOUS
10
10.6623
20
-3.94929
11
10.6455
21
-3.95261
0
LINE
8
BLACK
6
CONTINUOUS
10
10.6455
20
-3.95261
11
10.6285
21
-3.95261
0
LINE
8
BLACK
6
CONTINUOUS
10
10.6285
20
-3.95261
11
10.6117
21
-3.94929
0
LINE
8
BLACK
6
CONTINUOUS
10
10.6117
20
-3.94929
11
10.596
21
-3.94276
0
LINE
8
BLACK
6
CONTINUOUS
10
10.596
20
-3.94276
11
10.5818
21
-3.93328
0
LINE
8
BLACK
6
CONTINUOUS
10
10.5818
20
-3.93328
11
10.5697
21
-3.92121
0
LINE
8
BLACK
6
CONTINUOUS
10
10.5697
20
-3.92121
11
10.5602
21
-3.90703
0
LINE
8
BLACK
6
CONTINUOUS
10
10.5602
20
-3.90703
11
10.5537
21
-3.89126
0
LINE
8
BLACK
6
CONTINUOUS
10
10.5537
20
-3.89126
11
10.5504
21
-3.87453
0
LINE
8
BLACK
6
CONTINUOUS
10
10.5504
20
-3.87453
11
10.5504
21
-3.85747
0
LINE
8
BLACK
6
CONTINUOUS
10
10.5504
20
-3.85747
11
10.5537
21
-3.84074
0
LINE
8
BLACK
6
CONTINUOUS
10
10.5537
20
-3.84074
11
10.5602
21
-3.82497
0
LINE
8
BLACK
6
CONTINUOUS
10
10.5602
20
-3.82497
11
10.5697
21
-3.81079
0
LINE
8
BLACK
6
CONTINUOUS
10
10.5697
20
-3.81079
11
10.5818
21
-3.79872
0
LINE
8
BLACK
6
CONTINUOUS
10
10.5818
20
-3.79872
11
10.596
21
-3.78924
0
LINE
8
BLACK
6
CONTINUOUS
10
10.596
20
-3.78924
11
10.6117
21
-3.78271
0
LINE
8
BLACK
6
CONTINUOUS
10
10.6117
20
-3.78271
11
10.6285
21
-3.77939
0
LINE
8
BLACK
6
CONTINUOUS
10
10.6285
20
-3.77939
11
10.6455
21
-3.77939
0
LINE
8
BLACK
6
CONTINUOUS
10
10.6455
20
-3.77939
11
10.6623
21
-3.78271
0
LINE
8
BLACK
6
CONTINUOUS
10
5.73126
20
-3.78271
11
5.74703
21
-3.78924
0
LINE
8
BLACK
6
CONTINUOUS
10
5.74703
20
-3.78924
11
5.76121
21
-3.79872
0
LINE
8
BLACK
6
CONTINUOUS
10
5.76121
20
-3.79872
11
5.77328
21
-3.81079
0
LINE
8
BLACK
6
CONTINUOUS
10
5.77328
20
-3.81079
11
5.78276
21
-3.82497
0
LINE
8
BLACK
6
CONTINUOUS
10
5.78276
20
-3.82497
11
5.78929
21
-3.84074
0
LINE
8
BLACK
6
CONTINUOUS
10
5.78929
20
-3.84074
11
5.79261
21
-3.85747
0
LINE
8
BLACK
6
CONTINUOUS
10
5.79261
20
-3.85747
11
5.79261
21
-3.87453
0
LINE
8
BLACK
6
CONTINUOUS
10
5.79261
20
-3.87453
11
5.78929
21
-3.89126
0
LINE
8
BLACK
6
CONTINUOUS
10
5.78929
20
-3.89126
11
5.78276
21
-3.90703
0
LINE
8
BLACK
6
CONTINUOUS
10
5.78276
20
-3.90703
11
5.77328
21
-3.92121
0
LINE
8
BLACK
6
CONTINUOUS
10
5.77328
20
-3.92121
11
5.76121
21
-3.93328
0
LINE
8
BLACK
6
CONTINUOUS
10
5.76121
20
-3.93328
11
5.74703
21
-3.94276
0
LINE
8
BLACK
6
CONTINUOUS
10
5.74703
20
-3.94276
11
5.73126
21
-3.94929
0
LINE
8
BLACK
6
CONTINUOUS
10
5.73126
20
-3.94929
11
5.71453
21
-3.95261
0
LINE
8
BLACK
6
CONTINUOUS
10
5.71453
20
-3.95261
11
5.69747
21
-3.95261
0
LINE
8
BLACK
6
CONTINUOUS
10
5.69747
20
-3.95261
11
5.68074
21
-3.94929
0
LINE
8
BLACK
6
CONTINUOUS
10
5.68074
20
-3.94929
11
5.66497
21
-3.94276
0
LINE
8
BLACK
6
CONTINUOUS
10
5.66497
20
-3.94276
11
5.65079
21
-3.93328
0
LINE
8
BLACK
6
CONTINUOUS
10
5.65079
20
-3.93328
11
5.63872
21
-3.92121
0
LINE
8
BLACK
6
CONTINUOUS
10
5.63872
20
-3.92121
11
5.62924
21
-3.90703
0
LINE
8
BLACK
6
CONTINUOUS
10
5.62924
20
-3.90703
11
5.62271
21
-3.89126
0
LINE
8
BLACK
6
CONTINUOUS
10
5.62271
20
-3.89126
11
5.61939
21
-3.87453
0
LINE
8
BLACK
6
CONTINUOUS
10
5.61939
20
-3.87453
11
5.61939
21
-3.85747
0
LINE
8
BLACK
6
CONTINUOUS
10
5.61939
20
-3.85747
11
5.62271
21
-3.84074
0
LINE
8
BLACK
6
CONTINUOUS
10
5.62271
20
-3.84074
11
5.62924
21
-3.82497
0
LINE
8
BLACK
6
CONTINUOUS
10
5.62924
20
-3.82497
11
5.63872
21
-3.81079
0
LINE
8
BLACK
6
CONTINUOUS
10
5.63872
20
-3.81079
11
5.65079
21
-3.79872
0
LINE
8
BLACK
6
CONTINUOUS
10
5.65079
20
-3.79872
11
5.66497
21
-3.78924
0
LINE
8
BLACK
6
CONTINUOUS
10
5.66497
20
-3.78924
11
5.68074
21
-3.78271
0
LINE
8
BLACK
6
CONTINUOUS
10
5.68074
20
-3.78271
11
5.69747
21
-3.77939
0
LINE
8
BLACK
6
CONTINUOUS
10
5.69747
20
-3.77939
11
5.71453
21
-3.77939
0
LINE
8
BLACK
6
CONTINUOUS
10
5.71453
20
-3.77939
11
5.73126
21
-3.78271
0
LINE
8
BLACK
6
CONTINUOUS
10
2.04245
20
-2.56993
11
2.06395
21
-2.57883
0
LINE
8
BLACK
6
CONTINUOUS
10
2.06395
20
-2.57883
11
2.08329
21
-2.59176
0
LINE
8
BLACK
6
CONTINUOUS
10
2.08329
20
-2.59176
11
2.09974
21
-2.60821
0
LINE
8
BLACK
6
CONTINUOUS
10
2.09974
20
-2.60821
11
2.11267
21
-2.62755
0
LINE
8
BLACK
6
CONTINUOUS
10
2.11267
20
-2.62755
11
2.12157
21
-2.64905
0
LINE
8
BLACK
6
CONTINUOUS
10
2.12157
20
-2.64905
11
2.12611
21
-2.67187
0
LINE
8
BLACK
6
CONTINUOUS
10
2.12611
20
-2.67187
11
2.12611
21
-2.69513
0
LINE
8
BLACK
6
CONTINUOUS
10
2.12611
20
-2.69513
11
2.12157
21
-2.71795
0
LINE
8
BLACK
6
CONTINUOUS
10
2.12157
20
-2.71795
11
2.11267
21
-2.73945
0
LINE
8
BLACK
6
CONTINUOUS
10
2.11267
20
-2.73945
11
2.09974
21
-2.75879
0
LINE
8
BLACK
6
CONTINUOUS
10
2.09974
20
-2.75879
11
2.08329
21
-2.77524
0
LINE
8
BLACK
6
CONTINUOUS
10
2.08329
20
-2.77524
11
2.06395
21
-2.78817
0
LINE
8
BLACK
6
CONTINUOUS
10
2.06395
20
-2.78817
11
2.04245
21
-2.79707
0
LINE
8
BLACK
6
CONTINUOUS
10
2.04245
20
-2.79707
11
2.01963
21
-2.80161
0
LINE
8
BLACK
6
CONTINUOUS
10
2.01963
20
-2.80161
11
1.99637
21
-2.80161
0
LINE
8
BLACK
6
CONTINUOUS
10
1.99637
20
-2.80161
11
1.97355
21
-2.79707
0
LINE
8
BLACK
6
CONTINUOUS
10
1.97355
20
-2.79707
11
1.95205
21
-2.78817
0
LINE
8
BLACK
6
CONTINUOUS
10
1.95205
20
-2.78817
11
1.93271
21
-2.77524
0
LINE
8
BLACK
6
CONTINUOUS
10
1.93271
20
-2.77524
11
1.91626
21
-2.75879
0
LINE
8
BLACK
6
CONTINUOUS
10
1.91626
20
-2.75879
11
1.90333
21
-2.73945
0
LINE
8
BLACK
6
CONTINUOUS
10
1.90333
20
-2.73945
11
1.89443
21
-2.71795
0
LINE
8
BLACK
6
CONTINUOUS
10
1.89443
20
-2.71795
11
1.88989
21
-2.69513
0
LINE
8
BLACK
6
CONTINUOUS
10
1.88989
20
-2.69513
11
1.88989
21
-2.67187
0
LINE
8
BLACK
6
CONTINUOUS
10
1.88989
20
-2.67187
11
1.89443
21
-2.64905
0
LINE
8
BLACK
6
CONTINUOUS
10
1.89443
20
-2.64905
11
1.90333
21
-2.62755
0
LINE
8
BLACK
6
CONTINUOUS
10
1.90333
20
-2.62755
11
1.91626
21
-2.60821
0
LINE
8
BLACK
6
CONTINUOUS
10
1.91626
20
-2.60821
11
1.93271
21
-2.59176
0
LINE
8
BLACK
6
CONTINUOUS
10
1.93271
20
-2.59176
11
1.95205
21
-2.57883
0
LINE
8
BLACK
6
CONTINUOUS
10
1.95205
20
-2.57883
11
1.97355
21
-2.56993
0
LINE
8
BLACK
6
CONTINUOUS
10
1.97355
20
-2.56993
11
1.99637
21
-2.56539
0
LINE
8
BLACK
6
CONTINUOUS
10
1.99637
20
-2.56539
11
2.01963
21
-2.56539
0
LINE
8
BLACK
6
CONTINUOUS
10
2.01963
20
-2.56539
11
2.04245
21
-2.56993
0
LINE
8
BLACK
6
CONTINUOUS
10
3.25126
20
-2.22751
11
3.26703
21
-2.23404
0
LINE
8
BLACK
6
CONTINUOUS
10
3.26703
20
-2.23404
11
3.28121
21
-2.24352
0
LINE
8
BLACK
6
CONTINUOUS
10
3.28121
20
-2.24352
11
3.29328
21
-2.25559
0
LINE
8
BLACK
6
CONTINUOUS
10
3.29328
20
-2.25559
11
3.30276
21
-2.26977
0
LINE
8
BLACK
6
CONTINUOUS
10
3.30276
20
-2.26977
11
3.30929
21
-2.28554
0
LINE
8
BLACK
6
CONTINUOUS
10
3.30929
20
-2.28554
11
3.31261
21
-2.30227
0
LINE
8
BLACK
6
CONTINUOUS
10
3.31261
20
-2.30227
11
3.31261
21
-2.31933
0
LINE
8
BLACK
6
CONTINUOUS
10
3.31261
20
-2.31933
11
3.30929
21
-2.33606
0
LINE
8
BLACK
6
CONTINUOUS
10
3.30929
20
-2.33606
11
3.30276
21
-2.35183
0
LINE
8
BLACK
6
CONTINUOUS
10
3.30276
20
-2.35183
11
3.29328
21
-2.36601
0
LINE
8
BLACK
6
CONTINUOUS
10
3.29328
20
-2.36601
11
3.28121
21
-2.37808
0
LINE
8
BLACK
6
CONTINUOUS
10
3.28121
20
-2.37808
11
3.26703
21
-2.38756
0
LINE
8
BLACK
6
CONTINUOUS
10
3.26703
20
-2.38756
11
3.25126
21
-2.39409
0
LINE
8
BLACK
6
CONTINUOUS
10
3.25126
20
-2.39409
11
3.23453
21
-2.39741
0
LINE
8
BLACK
6
CONTINUOUS
10
3.23453
20
-2.39741
11
3.21747
21
-2.39741
0
LINE
8
BLACK
6
CONTINUOUS
10
3.21747
20
-2.39741
11
3.20074
21
-2.39409
0
LINE
8
BLACK
6
CONTINUOUS
10
3.20074
20
-2.39409
11
3.18497
21
-2.38756
0
LINE
8
BLACK
6
CONTINUOUS
10
3.18497
20
-2.38756
11
3.17079
21
-2.37808
0
LINE
8
BLACK
6
CONTINUOUS
10
3.17079
20
-2.37808
11
3.15872
21
-2.36601
0
LINE
8
BLACK
6
CONTINUOUS
10
3.15872
20
-2.36601
11
3.14924
21
-2.35183
0
LINE
8
BLACK
6
CONTINUOUS
10
3.14924
20
-2.35183
11
3.14271
21
-2.33606
0
LINE
8
BLACK
6
CONTINUOUS
10
3.14271
20
-2.33606
11
3.13939
21
-2.31933
0
LINE
8
BLACK
6
CONTINUOUS
10
3.13939
20
-2.31933
11
3.13939
21
-2.30227
0
LINE
8
BLACK
6
CONTINUOUS
10
3.13939
20
-2.30227
11
3.14271
21
-2.28554
0
LINE
8
BLACK
6
CONTINUOUS
10
3.14271
20
-2.28554
11
3.14924
21
-2.26977
0
LINE
8
BLACK
6
CONTINUOUS
10
3.14924
20
-2.26977
11
3.15872
21
-2.25559
0
LINE
8
BLACK
6
CONTINUOUS
10
3.15872
20
-2.25559
11
3.17079
21
-2.24352
0
LINE
8
BLACK
6
CONTINUOUS
10
3.17079
20
-2.24352
11
3.18497
21
-2.23404
0
LINE
8
BLACK
6
CONTINUOUS
10
3.18497
20
-2.23404
11
3.20074
21
-2.22751
0
LINE
8
BLACK
6
CONTINUOUS
10
3.20074
20
-2.22751
11
3.21747
21
-2.22419
0
LINE
8
BLACK
6
CONTINUOUS
10
3.21747
20
-2.22419
11
3.23453
21
-2.22419
0
LINE
8
BLACK
6
CONTINUOUS
10
3.23453
20
-2.22419
11
3.25126
21
-2.22751
0
LINE
8
BLACK
6
CONTINUOUS
10
5.72926
20
-2.22651
11
5.74503
21
-2.23304
0
LINE
8
BLACK
6
CONTINUOUS
10
5.74503
20
-2.23304
11
5.75921
21
-2.24252
0
LINE
8
BLACK
6
CONTINUOUS
10
5.75921
20
-2.24252
11
5.77128
21
-2.25459
0
LINE
8
BLACK
6
CONTINUOUS
10
5.77128
20
-2.25459
11
5.78076
21
-2.26877
0
LINE
8
BLACK
6
CONTINUOUS
10
5.78076
20
-2.26877
11
5.78729
21
-2.28454
0
LINE
8
BLACK
6
CONTINUOUS
10
5.78729
20
-2.28454
11
5.79061
21
-2.30127
0
LINE
8
BLACK
6
CONTINUOUS
10
5.79061
20
-2.30127
11
5.79061
21
-2.31833
0
LINE
8
BLACK
6
CONTINUOUS
10
5.79061
20
-2.31833
11
5.78729
21
-2.33506
0
LINE
8
BLACK
6
CONTINUOUS
10
5.78729
20
-2.33506
11
5.78076
21
-2.35083
0
LINE
8
BLACK
6
CONTINUOUS
10
5.78076
20
-2.35083
11
5.77128
21
-2.36501
0
LINE
8
BLACK
6
CONTINUOUS
10
5.77128
20
-2.36501
11
5.75921
21
-2.37708
0
LINE
8
BLACK
6
CONTINUOUS
10
5.75921
20
-2.37708
11
5.74503
21
-2.38656
0
LINE
8
BLACK
6
CONTINUOUS
10
5.74503
20
-2.38656
11
5.72926
21
-2.39309
0
LINE
8
BLACK
6
CONTINUOUS
10
5.72926
20
-2.39309
11
5.71253
21
-2.39641
0
LINE
8
BLACK
6
CONTINUOUS
10
5.71253
20
-2.39641
11
5.69547
21
-2.39641
0
LINE
8
BLACK
6
CONTINUOUS
10
5.69547
20
-2.39641
11
5.67874
21
-2.39309
0
LINE
8
BLACK
6
CONTINUOUS
10
5.67874
20
-2.39309
11
5.66297
21
-2.38656
0
LINE
8
BLACK
6
CONTINUOUS
10
5.66297
20
-2.38656
11
5.64879
21
-2.37708
0
LINE
8
BLACK
6
CONTINUOUS
10
5.64879
20
-2.37708
11
5.63672
21
-2.36501
0
LINE
8
BLACK
6
CONTINUOUS
10
5.63672
20
-2.36501
11
5.62724
21
-2.35083
0
LINE
8
BLACK
6
CONTINUOUS
10
5.62724
20
-2.35083
11
5.62071
21
-2.33506
0
LINE
8
BLACK
6
CONTINUOUS
10
5.62071
20
-2.33506
11
5.61739
21
-2.31833
0
LINE
8
BLACK
6
CONTINUOUS
10
5.61739
20
-2.31833
11
5.61739
21
-2.30127
0
LINE
8
BLACK
6
CONTINUOUS
10
5.61739
20
-2.30127
11
5.62071
21
-2.28454
0
LINE
8
BLACK
6
CONTINUOUS
10
5.62071
20
-2.28454
11
5.62724
21
-2.26877
0
LINE
8
BLACK
6
CONTINUOUS
10
5.62724
20
-2.26877
11
5.63672
21
-2.25459
0
LINE
8
BLACK
6
CONTINUOUS
10
5.63672
20
-2.25459
11
5.64879
21
-2.24252
0
LINE
8
BLACK
6
CONTINUOUS
10
5.64879
20
-2.24252
11
5.66297
21
-2.23304
0
LINE
8
BLACK
6
CONTINUOUS
10
5.66297
20
-2.23304
11
5.67874
21
-2.22651
0
LINE
8
BLACK
6
CONTINUOUS
10
5.67874
20
-2.22651
11
5.69547
21
-2.22319
0
LINE
8
BLACK
6
CONTINUOUS
10
5.69547
20
-2.22319
11
5.71253
21
-2.22319
0
LINE
8
BLACK
6
CONTINUOUS
10
5.71253
20
-2.22319
11
5.72926
21
-2.22651
0
LINE
8
BLACK
6
CONTINUOUS
10
8.20526
20
-2.22651
11
8.22103
21
-2.23304
0
LINE
8
BLACK
6
CONTINUOUS
10
8.22103
20
-2.23304
11
8.23521
21
-2.24252
0
LINE
8
BLACK
6
CONTINUOUS
10
8.23521
20
-2.24252
11
8.24728
21
-2.25459
0
LINE
8
BLACK
6
CONTINUOUS
10
8.24728
20
-2.25459
11
8.25676
21
-2.26877
0
LINE
8
BLACK
6
CONTINUOUS
10
8.25676
20
-2.26877
11
8.26329
21
-2.28454
0
LINE
8
BLACK
6
CONTINUOUS
10
8.26329
20
-2.28454
11
8.26661
21
-2.30127
0
LINE
8
BLACK
6
CONTINUOUS
10
8.26661
20
-2.30127
11
8.26661
21
-2.31833
0
LINE
8
BLACK
6
CONTINUOUS
10
8.26661
20
-2.31833
11
8.26329
21
-2.33506
0
LINE
8
BLACK
6
CONTINUOUS
10
8.26329
20
-2.33506
11
8.25676
21
-2.35083
0
LINE
8
BLACK
6
CONTINUOUS
10
8.25676
20
-2.35083
11
8.24728
21
-2.36501
0
LINE
8
BLACK
6
CONTINUOUS
10
8.24728
20
-2.36501
11
8.23521
21
-2.37708
0
LINE
8
BLACK
6
CONTINUOUS
10
8.23521
20
-2.37708
11
8.22103
21
-2.38656
0
LINE
8
BLACK
6
CONTINUOUS
10
8.22103
20
-2.38656
11
8.20526
21
-2.39309
0
LINE
8
BLACK
6
CONTINUOUS
10
8.20526
20
-2.39309
11
8.18853
21
-2.39641
0
LINE
8
BLACK
6
CONTINUOUS
10
8.18853
20
-2.39641
11
8.17147
21
-2.39641
0
LINE
8
BLACK
6
CONTINUOUS
10
8.17147
20
-2.39641
11
8.15474
21
-2.39309
0
LINE
8
BLACK
6
CONTINUOUS
10
8.15474
20
-2.39309
11
8.13897
21
-2.38656
0
LINE
8
BLACK
6
CONTINUOUS
10
8.13897
20
-2.38656
11
8.12479
21
-2.37708
0
LINE
8
BLACK
6
CONTINUOUS
10
8.12479
20
-2.37708
11
8.11272
21
-2.36501
0
LINE
8
BLACK
6
CONTINUOUS
10
8.11272
20
-2.36501
11
8.10324
21
-2.35083
0
LINE
8
BLACK
6
CONTINUOUS
10
8.10324
20
-2.35083
11
8.09671
21
-2.33506
0
LINE
8
BLACK
6
CONTINUOUS
10
8.09671
20
-2.33506
11
8.09339
21
-2.31833
0
LINE
8
BLACK
6
CONTINUOUS
10
8.09339
20
-2.31833
11
8.09339
21
-2.30127
0
LINE
8
BLACK
6
CONTINUOUS
10
8.09339
20
-2.30127
11
8.09671
21
-2.28454
0
LINE
8
BLACK
6
CONTINUOUS
10
8.09671
20
-2.28454
11
8.10324
21
-2.26877
0
LINE
8
BLACK
6
CONTINUOUS
10
8.10324
20
-2.26877
11
8.11272
21
-2.25459
0
LINE
8
BLACK
6
CONTINUOUS
10
8.11272
20
-2.25459
11
8.12479
21
-2.24252
0
LINE
8
BLACK
6
CONTINUOUS
10
8.12479
20
-2.24252
11
8.13897
21
-2.23304
0
LINE
8
BLACK
6
CONTINUOUS
10
8.13897
20
-2.23304
11
8.15474
21
-2.22651
0
LINE
8
BLACK
6
CONTINUOUS
10
8.15474
20
-2.22651
11
8.17147
21
-2.22319
0
LINE
8
BLACK
6
CONTINUOUS
10
8.17147
20
-2.22319
11
8.18853
21
-2.22319
0
LINE
8
BLACK
6
CONTINUOUS
10
8.18853
20
-2.22319
11
8.20526
21
-2.22651
0
LINE
8
BLACK
6
CONTINUOUS
10
3.25126
20
-0.670714
11
3.26703
21
-0.677244
0
LINE
8
BLACK
6
CONTINUOUS
10
3.26703
20
-0.677244
11
3.28121
21
-0.686722
0
LINE
8
BLACK
6
CONTINUOUS
10
3.28121
20
-0.686722
11
3.29328
21
-0.698787
0
LINE
8
BLACK
6
CONTINUOUS
10
3.29328
20
-0.698787
11
3.30276
21
-0.712973
0
LINE
8
BLACK
6
CONTINUOUS
10
3.30276
20
-0.712973
11
3.30929
21
-0.728736
0
LINE
8
BLACK
6
CONTINUOUS
10
3.30929
20
-0.728736
11
3.31261
21
-0.745469
0
LINE
8
BLACK
6
CONTINUOUS
10
3.31261
20
-0.745469
11
3.31261
21
-0.762531
0
LINE
8
BLACK
6
CONTINUOUS
10
3.31261
20
-0.762531
11
3.30929
21
-0.779264
0
LINE
8
BLACK
6
CONTINUOUS
10
3.30929
20
-0.779264
11
3.30276
21
-0.795027
0
LINE
8
BLACK
6
CONTINUOUS
10
3.30276
20
-0.795027
11
3.29328
21
-0.809213
0
LINE
8
BLACK
6
CONTINUOUS
10
3.29328
20
-0.809213
11
3.28121
21
-0.821278
0
LINE
8
BLACK
6
CONTINUOUS
10
3.28121
20
-0.821278
11
3.26703
21
-0.830756
0
LINE
8
BLACK
6
CONTINUOUS
10
3.26703
20
-0.830756
11
3.25126
21
-0.837286
0
LINE
8
BLACK
6
CONTINUOUS
10
3.25126
20
-0.837286
11
3.23453
21
-0.840614
0
LINE
8
BLACK
6
CONTINUOUS
10
3.23453
20
-0.840614
11
3.21747
21
-0.840614
0
LINE
8
BLACK
6
CONTINUOUS
10
3.21747
20
-0.840614
11
3.20074
21
-0.837286
0
LINE
8
BLACK
6
CONTINUOUS
10
3.20074
20
-0.837286
11
3.18497
21
-0.830756
0
LINE
8
BLACK
6
CONTINUOUS
10
3.18497
20
-0.830756
11
3.17079
21
-0.821278
0
LINE
8
BLACK
6
CONTINUOUS
10
3.17079
20
-0.821278
11
3.15872
21
-0.809213
0
LINE
8
BLACK
6
CONTINUOUS
10
3.15872
20
-0.809213
11
3.14924
21
-0.795027
0
LINE
8
BLACK
6
CONTINUOUS
10
3.14924
20
-0.795027
11
3.14271
21
-0.779264
0
LINE
8
BLACK
6
CONTINUOUS
10
3.14271
20
-0.779264
11
3.13939
21
-0.762531
0
LINE
8
BLACK
6
CONTINUOUS
10
3.13939
20
-0.762531
11
3.13939
21
-0.745469
0
LINE
8
BLACK
6
CONTINUOUS
10
3.13939
20
-0.745469
11
3.14271
21
-0.728736
0
LINE
8
BLACK
6
CONTINUOUS
10
3.14271
20
-0.728736
11
3.14924
21
-0.712973
0
LINE
8
BLACK
6
CONTINUOUS
10
3.14924
20
-0.712973
11
3.15872
21
-0.698787
0
LINE
8
BLACK
6
CONTINUOUS
10
3.15872
20
-0.698787
11
3.17079
21
-0.686722
0
LINE
8
BLACK
6
CONTINUOUS
10
3.17079
20
-0.686722
11
3.18497
21
-0.677244
0
LINE
8
BLACK
6
CONTINUOUS
10
3.18497
20
-0.677244
11
3.20074
21
-0.670714
0
LINE
8
BLACK
6
CONTINUOUS
10
3.20074
20
-0.670714
11
3.21747
21
-0.667386
0
LINE
8
BLACK
6
CONTINUOUS
10
3.21747
20
-0.667386
11
3.23453
21
-0.667386
0
LINE
8
BLACK
6
CONTINUOUS
10
3.23453
20
-0.667386
11
3.25126
21
-0.670714
0
LINE
8
BLACK
6
CONTINUOUS
10
8.20526
20
-0.669714
11
8.22103
21
-0.676244
0
LINE
8
BLACK
6
CONTINUOUS
10
8.22103
20
-0.676244
11
8.23521
21
-0.685722
0
LINE
8
BLACK
6
CONTINUOUS
10
8.23521
20
-0.685722
11
8.24728
21
-0.697787
0
LINE
8
BLACK
6
CONTINUOUS
10
8.24728
20
-0.697787
11
8.25676
21
-0.711973
0
LINE
8
BLACK
6
CONTINUOUS
10
8.25676
20
-0.711973
11
8.26329
21
-0.727736
0
LINE
8
BLACK
6
CONTINUOUS
10
8.26329
20
-0.727736
11
8.26661
21
-0.744469
0
LINE
8
BLACK
6
CONTINUOUS
10
8.26661
20
-0.744469
11
8.26661
21
-0.761531
0
LINE
8
BLACK
6
CONTINUOUS
10
8.26661
20
-0.761531
11
8.26329
21
-0.778264
0
LINE
8
BLACK
6
CONTINUOUS
10
8.26329
20
-0.778264
11
8.25676
21
-0.794027
0
LINE
8
BLACK
6
CONTINUOUS
10
8.25676
20
-0.794027
11
8.24728
21
-0.808213
0
LINE
8
BLACK
6
CONTINUOUS
10
8.24728
20
-0.808213
11
8.23521
21
-0.820278
0
LINE
8
BLACK
6
CONTINUOUS
10
8.23521
20
-0.820278
11
8.22103
21
-0.829756
0
LINE
8
BLACK
6
CONTINUOUS
10
8.22103
20
-0.829756
11
8.20526
21
-0.836286
0
LINE
8
BLACK
6
CONTINUOUS
10
8.20526
20
-0.836286
11
8.18853
21
-0.839614
0
LINE
8
BLACK
6
CONTINUOUS
10
8.18853
20
-0.839614
11
8.17147
21
-0.839614
0
LINE
8
BLACK
6
CONTINUOUS
10
8.17147
20
-0.839614
11
8.15474
21
-0.836286
0
LINE
8
BLACK
6
CONTINUOUS
10
8.15474
20
-0.836286
11
8.13897
21
-0.829756
0
LINE
8
BLACK
6
CONTINUOUS
10
8.13897
20
-0.829756
11
8.12479
21
-0.820278
0
LINE
8
BLACK
6
CONTINUOUS
10
8.12479
20
-0.820278
11
8.11272
21
-0.808213
0
LINE
8
BLACK
6
CONTINUOUS
10
8.11272
20
-0.808213
11
8.10324
21
-0.794027
0
LINE
8
BLACK
6
CONTINUOUS
10
8.10324
20
-0.794027
11
8.09671
21
-0.778264
0
LINE
8
BLACK
6
CONTINUOUS
10
8.09671
20
-0.778264
11
8.09339
21
-0.761531
0
LINE
8
BLACK
6
CONTINUOUS
10
8.09339
20
-0.761531
11
8.09339
21
-0.744469
0
LINE
8
BLACK
6
CONTINUOUS
10
8.09339
20
-0.744469
11
8.09671
21
-0.727736
0
LINE
8
BLACK
6
CONTINUOUS
10
8.09671
20
-0.727736
11
8.10324
21
-0.711973
0
LINE
8
BLACK
6
CONTINUOUS
10
8.10324
20
-0.711973
11
8.11272
21
-0.697787
0
LINE
8
BLACK
6
CONTINUOUS
10
8.11272
20
-0.697787
11
8.12479
21
-0.685722
0
LINE
8
BLACK
6
CONTINUOUS
10
8.12479
20
-0.685722
11
8.13897
21
-0.676244
0
LINE
8
BLACK
6
CONTINUOUS
10
8.13897
20
-0.676244
11
8.15474
21
-0.669714
0
LINE
8
BLACK
6
CONTINUOUS
10
8.15474
20
-0.669714
11
8.17147
21
-0.666386
0
LINE
8
BLACK
6
CONTINUOUS
10
8.17147
20
-0.666386
11
8.18853
21
-0.666386
0
LINE
8
BLACK
6
CONTINUOUS
10
8.18853
20
-0.666386
11
8.20526
21
-0.669714
0
LINE
8
BLACK
6
CONTINUOUS
10
5.72926
20
-0.669714
11
5.74503
21
-0.676244
0
LINE
8
BLACK
6
CONTINUOUS
10
5.74503
20
-0.676244
11
5.75921
21
-0.685722
0
LINE
8
BLACK
6
CONTINUOUS
10
5.75921
20
-0.685722
11
5.77128
21
-0.697787
0
LINE
8
BLACK
6
CONTINUOUS
10
5.77128
20
-0.697787
11
5.78076
21
-0.711973
0
LINE
8
BLACK
6
CONTINUOUS
10
5.78076
20
-0.711973
11
5.78729
21
-0.727736
0
LINE
8
BLACK
6
CONTINUOUS
10
5.78729
20
-0.727736
11
5.79061
21
-0.744469
0
LINE
8
BLACK
6
CONTINUOUS
10
5.79061
20
-0.744469
11
5.79061
21
-0.761531
0
LINE
8
BLACK
6
CONTINUOUS
10
5.79061
20
-0.761531
11
5.78729
21
-0.778264
0
LINE
8
BLACK
6
CONTINUOUS
10
5.78729
20
-0.778264
11
5.78076
21
-0.794027
0
LINE
8
BLACK
6
CONTINUOUS
10
5.78076
20
-0.794027
11
5.77128
21
-0.808213
0
LINE
8
BLACK
6
CONTINUOUS
10
5.77128
20
-0.808213
11
5.75921
21
-0.820278
0
LINE
8
BLACK
6
CONTINUOUS
10
5.75921
20
-0.820278
11
5.74503
21
-0.829756
0
LINE
8
BLACK
6
CONTINUOUS
10
5.74503
20
-0.829756
11
5.72926
21
-0.836286
0
LINE
8
BLACK
6
CONTINUOUS
10
5.72926
20
-0.836286
11
5.71253
21
-0.839614
0
LINE
8
BLACK
6
CONTINUOUS
10
5.71253
20
-0.839614
11
5.69547
21
-0.839614
0
LINE
8
BLACK
6
CONTINUOUS
10
5.69547
20
-0.839614
11
5.67874
21
-0.836286
0
LINE
8
BLACK
6
CONTINUOUS
10
5.67874
20
-0.836286
11
5.66297
21
-0.829756
0
LINE
8
BLACK
6
CONTINUOUS
10
5.66297
20
-0.829756
11
5.64879
21
-0.820278
0
LINE
8
BLACK
6
CONTINUOUS
10
5.64879
20
-0.820278
11
5.63672
21
-0.808213
0
LINE
8
BLACK
6
CONTINUOUS
10
5.63672
20
-0.808213
11
5.62724
21
-0.794027
0
LINE
8
BLACK
6
CONTINUOUS
10
5.62724
20
-0.794027
11
5.62071
21
-0.778264
0
LINE
8
BLACK
6
CONTINUOUS
10
5.62071
20
-0.778264
11
5.61739
21
-0.761531
0
LINE
8
BLACK
6
CONTINUOUS
10
5.61739
20
-0.761531
11
5.61739
21
-0.744469
0
LINE
8
BLACK
6
CONTINUOUS
10
5.61739
20
-0.744469
11
5.62071
21
-0.727736
0
LINE
8
BLACK
6
CONTINUOUS
10
5.62071
20
-0.727736
11
5.62724
21
-0.711973
0
LINE
8
BLACK
6
CONTINUOUS
10
5.62724
20
-0.711973
11
5.63672
21
-0.697787
0
LINE
8
BLACK
6
CONTINUOUS
10
5.63672
20
-0.697787
11
5.64879
21
-0.685722
0
LINE
8
BLACK
6
CONTINUOUS
10
5.64879
20
-0.685722
11
5.66297
21
-0.676244
0
LINE
8
BLACK
6
CONTINUOUS
10
5.66297
20
-0.676244
11
5.67874
21
-0.669714
0
LINE
8
BLACK
6
CONTINUOUS
10
5.67874
20
-0.669714
11
5.69547
21
-0.666386
0
LINE
8
BLACK
6
CONTINUOUS
10
5.69547
20
-0.666386
11
5.71253
21
-0.666386
0
LINE
8
BLACK
6
CONTINUOUS
10
5.71253
20
-0.666386
11
5.72926
21
-0.669714
0
LINE
8
BLACK
6
CONTINUOUS
10
10.6623
20
-0.669714
11
10.678
21
-0.676244
0
LINE
8
BLACK
6
CONTINUOUS
10
10.678
20
-0.676244
11
10.6922
21
-0.685722
0
LINE
8
BLACK
6
CONTINUOUS
10
10.6922
20
-0.685722
11
10.7043
21
-0.697787
0
LINE
8
BLACK
6
CONTINUOUS
10
10.7043
20
-0.697787
11
10.7138
21
-0.711973
0
LINE
8
BLACK
6
CONTINUOUS
10
10.7138
20
-0.711973
11
10.7203
21
-0.727736
0
LINE
8
BLACK
6
CONTINUOUS
10
10.7203
20
-0.727736
11
10.7236
21
-0.744469
0
LINE
8
BLACK
6
CONTINUOUS
10
10.7236
20
-0.744469
11
10.7236
21
-0.761531
0
LINE
8
BLACK
6
CONTINUOUS
10
10.7236
20
-0.761531
11
10.7203
21
-0.778264
0
LINE
8
BLACK
6
CONTINUOUS
10
10.7203
20
-0.778264
11
10.7138
21
-0.794027
0
LINE
8
BLACK
6
CONTINUOUS
10
10.7138
20
-0.794027
11
10.7043
21
-0.808213
0
LINE
8
BLACK
6
CONTINUOUS
10
10.7043
20
-0.808213
11
10.6922
21
-0.820278
0
LINE
8
BLACK
6
CONTINUOUS
10
10.6922
20
-0.820278
11
10.678
21
-0.829756
0
LINE
8
BLACK
6
CONTINUOUS
10
10.678
20
-0.829756
11
10.6623
21
-0.836286
0
LINE
8
BLACK
6
CONTINUOUS
10
10.6623
20
-0.836286
11
10.6455
21
-0.839614
0
LINE
8
BLACK
6
CONTINUOUS
10
10.6455
20
-0.839614
11
10.6285
21
-0.839614
0
LINE
8
BLACK
6
CONTINUOUS
10
10.6285
20
-0.839614
11
10.6117
21
-0.836286
0
LINE
8
BLACK
6
CONTINUOUS
10
10.6117
20
-0.836286
11
10.596
21
-0.829756
0
LINE
8
BLACK
6
CONTINUOUS
10
10.596
20
-0.829756
11
10.5818
21
-0.820278
0
LINE
8
BLACK
6
CONTINUOUS
10
10.5818
20
-0.820278
11
10.5697
21
-0.808213
0
LINE
8
BLACK
6
CONTINUOUS
10
10.5697
20
-0.808213
11
10.5602
21
-0.794027
0
LINE
8
BLACK
6
CONTINUOUS
10
10.5602
20
-0.794027
11
10.5537
21
-0.778264
0
LINE
8
BLACK
6
CONTINUOUS
10
10.5537
20
-0.778264
11
10.5504
21
-0.761531
0
LINE
8
BLACK
6
CONTINUOUS
10
10.5504
20
-0.761531
11
10.5504
21
-0.744469
0
LINE
8
BLACK
6
CONTINUOUS
10
10.5504
20
-0.744469
11
10.5537
21
-0.727736
0
LINE
8
BLACK
6
CONTINUOUS
10
10.5537
20
-0.727736
11
10.5602
21
-0.711973
0
LINE
8
BLACK
6
CONTINUOUS
10
10.5602
20
-0.711973
11
10.5697
21
-0.697787
0
LINE
8
BLACK
6
CONTINUOUS
10
10.5697
20
-0.697787
11
10.5818
21
-0.685722
0
LINE
8
BLACK
6
CONTINUOUS
10
10.5818
20
-0.685722
11
10.596
21
-0.676244
0
LINE
8
BLACK
6
CONTINUOUS
10
10.596
20
-0.676244
11
10.6117
21
-0.669714
0
LINE
8
BLACK
6
CONTINUOUS
10
10.6117
20
-0.669714
11
10.6285
21
-0.666386
0
LINE
8
BLACK
6
CONTINUOUS
10
10.6285
20
-0.666386
11
10.6455
21
-0.666386
0
LINE
8
BLACK
6
CONTINUOUS
10
10.6455
20
-0.666386
11
10.6623
21
-0.669714
0
LINE
8
BLACK
6
CONTINUOUS
10
0.799264
20
-0.668714
11
0.815027
21
-0.675244
0
LINE
8
BLACK
6
CONTINUOUS
10
0.815027
20
-0.675244
11
0.829213
21
-0.684722
0
LINE
8
BLACK
6
CONTINUOUS
10
0.829213
20
-0.684722
11
0.841278
21
-0.696787
0
LINE
8
BLACK
6
CONTINUOUS
10
0.841278
20
-0.696787
11
0.850756
21
-0.710973
0
LINE
8
BLACK
6
CONTINUOUS
10
0.850756
20
-0.710973
11
0.857286
21
-0.726736
0
LINE
8
BLACK
6
CONTINUOUS
10
0.857286
20
-0.726736
11
0.860614
21
-0.743469
0
LINE
8
BLACK
6
CONTINUOUS
10
0.860614
20
-0.743469
11
0.860614
21
-0.760531
0
LINE
8
BLACK
6
CONTINUOUS
10
0.860614
20
-0.760531
11
0.857286
21
-0.777264
0
LINE
8
BLACK
6
CONTINUOUS
10
0.857286
20
-0.777264
11
0.850756
21
-0.793027
0
LINE
8
BLACK
6
CONTINUOUS
10
0.850756
20
-0.793027
11
0.841278
21
-0.807213
0
LINE
8
BLACK
6
CONTINUOUS
10
0.841278
20
-0.807213
11
0.829213
21
-0.819278
0
LINE
8
BLACK
6
CONTINUOUS
10
0.829213
20
-0.819278
11
0.815027
21
-0.828756
0
LINE
8
BLACK
6
CONTINUOUS
10
0.815027
20
-0.828756
11
0.799264
21
-0.835286
0
LINE
8
BLACK
6
CONTINUOUS
10
0.799264
20
-0.835286
11
0.782531
21
-0.838614
0
LINE
8
BLACK
6
CONTINUOUS
10
0.782531
20
-0.838614
11
0.765469
21
-0.838614
0
LINE
8
BLACK
6
CONTINUOUS
10
0.765469
20
-0.838614
11
0.748736
21
-0.835286
0
LINE
8
BLACK
6
CONTINUOUS
10
0.748736
20
-0.835286
11
0.732973
21
-0.828756
0
LINE
8
BLACK
6
CONTINUOUS
10
0.732973
20
-0.828756
11
0.718787
21
-0.819278
0
LINE
8
BLACK
6
CONTINUOUS
10
0.718787
20
-0.819278
11
0.706722
21
-0.807213
0
LINE
8
BLACK
6
CONTINUOUS
10
0.706722
20
-0.807213
11
0.697244
21
-0.793027
0
LINE
8
BLACK
6
CONTINUOUS
10
0.697244
20
-0.793027
11
0.690714
21
-0.777264
0
LINE
8
BLACK
6
CONTINUOUS
10
0.690714
20
-0.777264
11
0.687386
21
-0.760531
0
LINE
8
BLACK
6
CONTINUOUS
10
0.687386
20
-0.760531
11
0.687386
21
-0.743469
0
LINE
8
BLACK
6
CONTINUOUS
10
0.687386
20
-0.743469
11
0.690714
21
-0.726736
0
LINE
8
BLACK
6
CONTINUOUS
10
0.690714
20
-0.726736
11
0.697244
21
-0.710973
0
LINE
8
BLACK
6
CONTINUOUS
10
0.697244
20
-0.710973
11
0.706722
21
-0.696787
0
LINE
8
BLACK
6
CONTINUOUS
10
0.706722
20
-0.696787
11
0.718787
21
-0.684722
0
LINE
8
BLACK
6
CONTINUOUS
10
0.718787
20
-0.684722
11
0.732973
21
-0.675244
0
LINE
8
BLACK
6
CONTINUOUS
10
0.732973
20
-0.675244
11
0.748736
21
-0.668714
0
LINE
8
BLACK
6
CONTINUOUS
10
0.748736
20
-0.668714
11
0.765469
21
-0.665386
0
LINE
8
BLACK
6
CONTINUOUS
10
0.765469
20
-0.665386
11
0.782531
21
-0.665386
0
LINE
8
BLACK
6
CONTINUOUS
10
0.782531
20
-0.665386
11
0.799264
21
-0.668714
  0
ENDSEC
  0
EOF
