G04 #@! TF.GenerationSoftware,KiCad,Pcbnew,(5.1.4-0-10_14)*
G04 #@! TF.CreationDate,2020-04-11T19:35:21-07:00*
G04 #@! TF.ProjectId,switch_plate,73776974-6368-45f7-906c-6174652e6b69,rev?*
G04 #@! TF.SameCoordinates,Original*
G04 #@! TF.FileFunction,Soldermask,Bot*
G04 #@! TF.FilePolarity,Negative*
%FSLAX46Y46*%
G04 Gerber Fmt 4.6, Leading zero omitted, Abs format (unit mm)*
G04 Created by KiCad (PCBNEW (5.1.4-0-10_14)) date 2020-04-11 19:35:21*
%MOMM*%
%LPD*%
G04 APERTURE LIST*
%ADD10C,0.100000*%
G04 APERTURE END LIST*
D10*
G36*
X82356103Y-97018875D02*
G01*
X82522448Y-97087777D01*
X82583771Y-97113178D01*
X82788666Y-97250085D01*
X82962915Y-97424334D01*
X83099822Y-97629229D01*
X83099823Y-97629231D01*
X83194125Y-97856897D01*
X83237148Y-98073186D01*
X83242200Y-98098587D01*
X83242200Y-98345013D01*
X83194125Y-98586703D01*
X83099822Y-98814371D01*
X82962915Y-99019266D01*
X82788666Y-99193515D01*
X82583771Y-99330422D01*
X82583770Y-99330423D01*
X82583769Y-99330423D01*
X82356103Y-99424725D01*
X82114414Y-99472800D01*
X81867986Y-99472800D01*
X81626297Y-99424725D01*
X81398631Y-99330423D01*
X81398630Y-99330423D01*
X81398629Y-99330422D01*
X81193734Y-99193515D01*
X81019485Y-99019266D01*
X80882578Y-98814371D01*
X80788275Y-98586703D01*
X80740200Y-98345013D01*
X80740200Y-98098587D01*
X80745253Y-98073186D01*
X80788275Y-97856897D01*
X80882577Y-97629231D01*
X80882578Y-97629229D01*
X81019485Y-97424334D01*
X81193734Y-97250085D01*
X81398629Y-97113178D01*
X81459953Y-97087777D01*
X81626297Y-97018875D01*
X81867986Y-96970800D01*
X82114414Y-96970800D01*
X82356103Y-97018875D01*
X82356103Y-97018875D01*
G37*
G36*
X270430708Y-96970800D02*
G01*
X270544703Y-96993475D01*
X270772371Y-97087778D01*
X270977266Y-97224685D01*
X271151515Y-97398934D01*
X271168488Y-97424336D01*
X271288423Y-97603831D01*
X271382725Y-97831497D01*
X271430800Y-98073186D01*
X271430800Y-98319614D01*
X271382725Y-98561303D01*
X271288422Y-98788971D01*
X271151515Y-98993866D01*
X270977266Y-99168115D01*
X270772371Y-99305022D01*
X270772370Y-99305023D01*
X270772369Y-99305023D01*
X270544703Y-99399325D01*
X270303014Y-99447400D01*
X270056586Y-99447400D01*
X269814897Y-99399325D01*
X269587231Y-99305023D01*
X269587230Y-99305023D01*
X269587229Y-99305022D01*
X269382334Y-99168115D01*
X269208085Y-98993866D01*
X269071178Y-98788971D01*
X268976875Y-98561303D01*
X268928800Y-98319614D01*
X268928800Y-98073186D01*
X268976875Y-97831497D01*
X269071177Y-97603831D01*
X269191112Y-97424336D01*
X269208085Y-97398934D01*
X269382334Y-97224685D01*
X269587229Y-97087778D01*
X269814897Y-96993475D01*
X269928892Y-96970800D01*
X270056586Y-96945400D01*
X270303014Y-96945400D01*
X270430708Y-96970800D01*
X270430708Y-96970800D01*
G37*
G36*
X208073708Y-96970800D02*
G01*
X208187703Y-96993475D01*
X208415371Y-97087778D01*
X208620266Y-97224685D01*
X208794515Y-97398934D01*
X208811488Y-97424336D01*
X208931423Y-97603831D01*
X209025725Y-97831497D01*
X209073800Y-98073186D01*
X209073800Y-98319614D01*
X209025725Y-98561303D01*
X208931422Y-98788971D01*
X208794515Y-98993866D01*
X208620266Y-99168115D01*
X208415371Y-99305022D01*
X208415370Y-99305023D01*
X208415369Y-99305023D01*
X208187703Y-99399325D01*
X207946014Y-99447400D01*
X207699586Y-99447400D01*
X207457897Y-99399325D01*
X207230231Y-99305023D01*
X207230230Y-99305023D01*
X207230229Y-99305022D01*
X207025334Y-99168115D01*
X206851085Y-98993866D01*
X206714178Y-98788971D01*
X206619875Y-98561303D01*
X206571800Y-98319614D01*
X206571800Y-98073186D01*
X206619875Y-97831497D01*
X206714177Y-97603831D01*
X206834112Y-97424336D01*
X206851085Y-97398934D01*
X207025334Y-97224685D01*
X207230229Y-97087778D01*
X207457897Y-96993475D01*
X207571892Y-96970800D01*
X207699586Y-96945400D01*
X207946014Y-96945400D01*
X208073708Y-96970800D01*
X208073708Y-96970800D01*
G37*
G36*
X145183308Y-96970800D02*
G01*
X145297303Y-96993475D01*
X145524971Y-97087778D01*
X145729866Y-97224685D01*
X145904115Y-97398934D01*
X145921088Y-97424336D01*
X146041023Y-97603831D01*
X146135325Y-97831497D01*
X146183400Y-98073186D01*
X146183400Y-98319614D01*
X146135325Y-98561303D01*
X146041022Y-98788971D01*
X145904115Y-98993866D01*
X145729866Y-99168115D01*
X145524971Y-99305022D01*
X145524970Y-99305023D01*
X145524969Y-99305023D01*
X145297303Y-99399325D01*
X145055614Y-99447400D01*
X144809186Y-99447400D01*
X144567497Y-99399325D01*
X144339831Y-99305023D01*
X144339830Y-99305023D01*
X144339829Y-99305022D01*
X144134934Y-99168115D01*
X143960685Y-98993866D01*
X143823778Y-98788971D01*
X143729475Y-98561303D01*
X143681400Y-98319614D01*
X143681400Y-98073186D01*
X143729475Y-97831497D01*
X143823777Y-97603831D01*
X143943712Y-97424336D01*
X143960685Y-97398934D01*
X144134934Y-97224685D01*
X144339829Y-97087778D01*
X144567497Y-96993475D01*
X144681492Y-96970800D01*
X144809186Y-96945400D01*
X145055614Y-96945400D01*
X145183308Y-96970800D01*
X145183308Y-96970800D01*
G37*
G36*
X19910508Y-96970800D02*
G01*
X20024503Y-96993475D01*
X20252171Y-97087778D01*
X20457066Y-97224685D01*
X20631315Y-97398934D01*
X20648288Y-97424336D01*
X20768223Y-97603831D01*
X20862525Y-97831497D01*
X20910600Y-98073186D01*
X20910600Y-98319614D01*
X20862525Y-98561303D01*
X20768222Y-98788971D01*
X20631315Y-98993866D01*
X20457066Y-99168115D01*
X20252171Y-99305022D01*
X20252170Y-99305023D01*
X20252169Y-99305023D01*
X20024503Y-99399325D01*
X19782814Y-99447400D01*
X19536386Y-99447400D01*
X19294697Y-99399325D01*
X19067031Y-99305023D01*
X19067030Y-99305023D01*
X19067029Y-99305022D01*
X18862134Y-99168115D01*
X18687885Y-98993866D01*
X18550978Y-98788971D01*
X18456675Y-98561303D01*
X18408600Y-98319614D01*
X18408600Y-98073186D01*
X18456675Y-97831497D01*
X18550977Y-97603831D01*
X18670912Y-97424336D01*
X18687885Y-97398934D01*
X18862134Y-97224685D01*
X19067029Y-97087778D01*
X19294697Y-96993475D01*
X19408692Y-96970800D01*
X19536386Y-96945400D01*
X19782814Y-96945400D01*
X19910508Y-96970800D01*
X19910508Y-96970800D01*
G37*
G36*
X51893143Y-65227148D02*
G01*
X52448389Y-65457138D01*
X52448390Y-65457139D01*
X52948099Y-65791034D01*
X53373066Y-66216001D01*
X53373067Y-66216003D01*
X53706962Y-66715711D01*
X53936952Y-67270957D01*
X54054200Y-67860401D01*
X54054200Y-68461399D01*
X53936952Y-69050843D01*
X53706962Y-69606089D01*
X53706961Y-69606090D01*
X53373066Y-70105799D01*
X52948099Y-70530766D01*
X52696547Y-70698848D01*
X52448389Y-70864662D01*
X51893143Y-71094652D01*
X51303699Y-71211900D01*
X50702701Y-71211900D01*
X50113257Y-71094652D01*
X49558011Y-70864662D01*
X49309853Y-70698848D01*
X49058301Y-70530766D01*
X48633334Y-70105799D01*
X48299439Y-69606090D01*
X48299438Y-69606089D01*
X48069448Y-69050843D01*
X47952200Y-68461399D01*
X47952200Y-67860401D01*
X48069448Y-67270957D01*
X48299438Y-66715711D01*
X48633333Y-66216003D01*
X48633334Y-66216001D01*
X49058301Y-65791034D01*
X49558010Y-65457139D01*
X49558011Y-65457138D01*
X50113257Y-65227148D01*
X50702701Y-65109900D01*
X51303699Y-65109900D01*
X51893143Y-65227148D01*
X51893143Y-65227148D01*
G37*
G36*
X82305303Y-57491395D02*
G01*
X82471648Y-57560297D01*
X82532971Y-57585698D01*
X82737866Y-57722605D01*
X82912115Y-57896854D01*
X83049022Y-58101749D01*
X83049023Y-58101751D01*
X83143325Y-58329417D01*
X83186348Y-58545706D01*
X83191400Y-58571107D01*
X83191400Y-58817533D01*
X83143325Y-59059223D01*
X83049022Y-59286891D01*
X82912115Y-59491786D01*
X82737866Y-59666035D01*
X82532971Y-59802942D01*
X82532970Y-59802943D01*
X82532969Y-59802943D01*
X82305303Y-59897245D01*
X82063614Y-59945320D01*
X81817186Y-59945320D01*
X81575497Y-59897245D01*
X81347831Y-59802943D01*
X81347830Y-59802943D01*
X81347829Y-59802942D01*
X81142934Y-59666035D01*
X80968685Y-59491786D01*
X80831778Y-59286891D01*
X80737475Y-59059223D01*
X80689400Y-58817533D01*
X80689400Y-58571107D01*
X80694453Y-58545706D01*
X80737475Y-58329417D01*
X80831777Y-58101751D01*
X80831778Y-58101749D01*
X80968685Y-57896854D01*
X81142934Y-57722605D01*
X81347829Y-57585698D01*
X81409153Y-57560297D01*
X81575497Y-57491395D01*
X81817186Y-57443320D01*
X82063614Y-57443320D01*
X82305303Y-57491395D01*
X82305303Y-57491395D01*
G37*
G36*
X208022908Y-57443320D02*
G01*
X208136903Y-57465995D01*
X208364571Y-57560298D01*
X208569466Y-57697205D01*
X208743715Y-57871454D01*
X208760688Y-57896856D01*
X208880623Y-58076351D01*
X208974925Y-58304017D01*
X209023000Y-58545706D01*
X209023000Y-58792134D01*
X208974925Y-59033823D01*
X208880622Y-59261491D01*
X208743715Y-59466386D01*
X208569466Y-59640635D01*
X208364571Y-59777542D01*
X208364570Y-59777543D01*
X208364569Y-59777543D01*
X208136903Y-59871845D01*
X207895214Y-59919920D01*
X207648786Y-59919920D01*
X207407097Y-59871845D01*
X207179431Y-59777543D01*
X207179430Y-59777543D01*
X207179429Y-59777542D01*
X206974534Y-59640635D01*
X206800285Y-59466386D01*
X206663378Y-59261491D01*
X206569075Y-59033823D01*
X206521000Y-58792134D01*
X206521000Y-58545706D01*
X206569075Y-58304017D01*
X206663377Y-58076351D01*
X206783312Y-57896856D01*
X206800285Y-57871454D01*
X206974534Y-57697205D01*
X207179429Y-57560298D01*
X207407097Y-57465995D01*
X207521092Y-57443320D01*
X207648786Y-57417920D01*
X207895214Y-57417920D01*
X208022908Y-57443320D01*
X208022908Y-57443320D01*
G37*
G36*
X145132508Y-57443320D02*
G01*
X145246503Y-57465995D01*
X145474171Y-57560298D01*
X145679066Y-57697205D01*
X145853315Y-57871454D01*
X145870288Y-57896856D01*
X145990223Y-58076351D01*
X146084525Y-58304017D01*
X146132600Y-58545706D01*
X146132600Y-58792134D01*
X146084525Y-59033823D01*
X145990222Y-59261491D01*
X145853315Y-59466386D01*
X145679066Y-59640635D01*
X145474171Y-59777542D01*
X145474170Y-59777543D01*
X145474169Y-59777543D01*
X145246503Y-59871845D01*
X145004814Y-59919920D01*
X144758386Y-59919920D01*
X144516697Y-59871845D01*
X144289031Y-59777543D01*
X144289030Y-59777543D01*
X144289029Y-59777542D01*
X144084134Y-59640635D01*
X143909885Y-59466386D01*
X143772978Y-59261491D01*
X143678675Y-59033823D01*
X143630600Y-58792134D01*
X143630600Y-58545706D01*
X143678675Y-58304017D01*
X143772977Y-58076351D01*
X143892912Y-57896856D01*
X143909885Y-57871454D01*
X144084134Y-57697205D01*
X144289029Y-57560298D01*
X144516697Y-57465995D01*
X144630692Y-57443320D01*
X144758386Y-57417920D01*
X145004814Y-57417920D01*
X145132508Y-57443320D01*
X145132508Y-57443320D01*
G37*
G36*
X82305303Y-17948675D02*
G01*
X82471648Y-18017577D01*
X82532971Y-18042978D01*
X82737866Y-18179885D01*
X82912115Y-18354134D01*
X83049022Y-18559029D01*
X83049023Y-18559031D01*
X83143325Y-18786697D01*
X83186348Y-19002986D01*
X83191400Y-19028387D01*
X83191400Y-19274813D01*
X83143325Y-19516503D01*
X83049022Y-19744171D01*
X82912115Y-19949066D01*
X82737866Y-20123315D01*
X82532971Y-20260222D01*
X82532970Y-20260223D01*
X82532969Y-20260223D01*
X82305303Y-20354525D01*
X82063614Y-20402600D01*
X81817186Y-20402600D01*
X81575497Y-20354525D01*
X81347831Y-20260223D01*
X81347830Y-20260223D01*
X81347829Y-20260222D01*
X81142934Y-20123315D01*
X80968685Y-19949066D01*
X80831778Y-19744171D01*
X80737475Y-19516503D01*
X80689400Y-19274813D01*
X80689400Y-19028387D01*
X80694453Y-19002986D01*
X80737475Y-18786697D01*
X80831777Y-18559031D01*
X80831778Y-18559029D01*
X80968685Y-18354134D01*
X81142934Y-18179885D01*
X81347829Y-18042978D01*
X81409153Y-18017577D01*
X81575497Y-17948675D01*
X81817186Y-17900600D01*
X82063614Y-17900600D01*
X82305303Y-17948675D01*
X82305303Y-17948675D01*
G37*
G36*
X270544703Y-17923275D02*
G01*
X270711048Y-17992177D01*
X270772371Y-18017578D01*
X270977266Y-18154485D01*
X271151515Y-18328734D01*
X271288422Y-18533629D01*
X271288423Y-18533631D01*
X271382725Y-18761297D01*
X271430800Y-19002986D01*
X271430800Y-19249414D01*
X271387777Y-19465703D01*
X271382725Y-19491103D01*
X271288422Y-19718771D01*
X271151515Y-19923666D01*
X270977266Y-20097915D01*
X270772371Y-20234822D01*
X270772370Y-20234823D01*
X270772369Y-20234823D01*
X270544703Y-20329125D01*
X270303014Y-20377200D01*
X270056586Y-20377200D01*
X269814897Y-20329125D01*
X269587231Y-20234823D01*
X269587230Y-20234823D01*
X269587229Y-20234822D01*
X269382334Y-20097915D01*
X269208085Y-19923666D01*
X269071178Y-19718771D01*
X268976875Y-19491103D01*
X268971823Y-19465703D01*
X268928800Y-19249414D01*
X268928800Y-19002986D01*
X268976875Y-18761297D01*
X269071177Y-18533631D01*
X269071178Y-18533629D01*
X269208085Y-18328734D01*
X269382334Y-18154485D01*
X269587229Y-18017578D01*
X269648553Y-17992177D01*
X269814897Y-17923275D01*
X270056586Y-17875200D01*
X270303014Y-17875200D01*
X270544703Y-17923275D01*
X270544703Y-17923275D01*
G37*
G36*
X208136903Y-17923275D02*
G01*
X208303248Y-17992177D01*
X208364571Y-18017578D01*
X208569466Y-18154485D01*
X208743715Y-18328734D01*
X208880622Y-18533629D01*
X208880623Y-18533631D01*
X208974925Y-18761297D01*
X209023000Y-19002986D01*
X209023000Y-19249414D01*
X208979977Y-19465703D01*
X208974925Y-19491103D01*
X208880622Y-19718771D01*
X208743715Y-19923666D01*
X208569466Y-20097915D01*
X208364571Y-20234822D01*
X208364570Y-20234823D01*
X208364569Y-20234823D01*
X208136903Y-20329125D01*
X207895214Y-20377200D01*
X207648786Y-20377200D01*
X207407097Y-20329125D01*
X207179431Y-20234823D01*
X207179430Y-20234823D01*
X207179429Y-20234822D01*
X206974534Y-20097915D01*
X206800285Y-19923666D01*
X206663378Y-19718771D01*
X206569075Y-19491103D01*
X206564023Y-19465703D01*
X206521000Y-19249414D01*
X206521000Y-19002986D01*
X206569075Y-18761297D01*
X206663377Y-18533631D01*
X206663378Y-18533629D01*
X206800285Y-18328734D01*
X206974534Y-18154485D01*
X207179429Y-18017578D01*
X207240753Y-17992177D01*
X207407097Y-17923275D01*
X207648786Y-17875200D01*
X207895214Y-17875200D01*
X208136903Y-17923275D01*
X208136903Y-17923275D01*
G37*
G36*
X145246503Y-17923275D02*
G01*
X145412848Y-17992177D01*
X145474171Y-18017578D01*
X145679066Y-18154485D01*
X145853315Y-18328734D01*
X145990222Y-18533629D01*
X145990223Y-18533631D01*
X146084525Y-18761297D01*
X146132600Y-19002986D01*
X146132600Y-19249414D01*
X146089577Y-19465703D01*
X146084525Y-19491103D01*
X145990222Y-19718771D01*
X145853315Y-19923666D01*
X145679066Y-20097915D01*
X145474171Y-20234822D01*
X145474170Y-20234823D01*
X145474169Y-20234823D01*
X145246503Y-20329125D01*
X145004814Y-20377200D01*
X144758386Y-20377200D01*
X144516697Y-20329125D01*
X144289031Y-20234823D01*
X144289030Y-20234823D01*
X144289029Y-20234822D01*
X144084134Y-20097915D01*
X143909885Y-19923666D01*
X143772978Y-19718771D01*
X143678675Y-19491103D01*
X143673623Y-19465703D01*
X143630600Y-19249414D01*
X143630600Y-19002986D01*
X143678675Y-18761297D01*
X143772977Y-18533631D01*
X143772978Y-18533629D01*
X143909885Y-18328734D01*
X144084134Y-18154485D01*
X144289029Y-18017578D01*
X144350353Y-17992177D01*
X144516697Y-17923275D01*
X144758386Y-17875200D01*
X145004814Y-17875200D01*
X145246503Y-17923275D01*
X145246503Y-17923275D01*
G37*
G36*
X19910508Y-17875200D02*
G01*
X20024503Y-17897875D01*
X20252171Y-17992178D01*
X20457066Y-18129085D01*
X20631315Y-18303334D01*
X20665260Y-18354136D01*
X20768223Y-18508231D01*
X20862525Y-18735897D01*
X20910600Y-18977586D01*
X20910600Y-19224014D01*
X20900495Y-19274813D01*
X20862525Y-19465703D01*
X20768222Y-19693371D01*
X20631315Y-19898266D01*
X20457066Y-20072515D01*
X20252171Y-20209422D01*
X20252170Y-20209423D01*
X20252169Y-20209423D01*
X20024503Y-20303725D01*
X19782814Y-20351800D01*
X19536386Y-20351800D01*
X19294697Y-20303725D01*
X19067031Y-20209423D01*
X19067030Y-20209423D01*
X19067029Y-20209422D01*
X18862134Y-20072515D01*
X18687885Y-19898266D01*
X18550978Y-19693371D01*
X18456675Y-19465703D01*
X18418705Y-19274813D01*
X18408600Y-19224014D01*
X18408600Y-18977586D01*
X18456675Y-18735897D01*
X18550977Y-18508231D01*
X18653940Y-18354136D01*
X18687885Y-18303334D01*
X18862134Y-18129085D01*
X19067029Y-17992178D01*
X19294697Y-17897875D01*
X19408692Y-17875200D01*
X19536386Y-17849800D01*
X19782814Y-17849800D01*
X19910508Y-17875200D01*
X19910508Y-17875200D01*
G37*
M02*
