G04 #@! TF.GenerationSoftware,KiCad,Pcbnew,(5.1.4-0-10_14)*
G04 #@! TF.CreationDate,2020-04-12T12:15:55-07:00*
G04 #@! TF.ProjectId,bottom_plate,626f7474-6f6d-45f7-906c-6174652e6b69,rev?*
G04 #@! TF.SameCoordinates,Original*
G04 #@! TF.FileFunction,Copper,L1,Top*
G04 #@! TF.FilePolarity,Positive*
%FSLAX46Y46*%
G04 Gerber Fmt 4.6, Leading zero omitted, Abs format (unit mm)*
G04 Created by KiCad (PCBNEW (5.1.4-0-10_14)) date 2020-04-12 12:15:55*
%MOMM*%
%LPD*%
G04 APERTURE LIST*
%ADD10C,2.200000*%
%ADD11C,0.254000*%
G04 APERTURE END LIST*
D10*
X144881600Y-58699400D03*
D11*
G36*
X271571708Y-17852790D02*
G01*
X272086000Y-18787868D01*
X272086001Y-98754342D01*
X271690733Y-99553662D01*
X270589918Y-100128000D01*
X19224695Y-100128000D01*
X18249020Y-99616933D01*
X17791500Y-98701894D01*
X17791500Y-98050917D01*
X17924600Y-98050917D01*
X17924600Y-98392683D01*
X17991275Y-98727881D01*
X18122063Y-99043631D01*
X18311937Y-99327798D01*
X18553602Y-99569463D01*
X18837769Y-99759337D01*
X19153519Y-99890125D01*
X19488717Y-99956800D01*
X19830483Y-99956800D01*
X20165681Y-99890125D01*
X20481431Y-99759337D01*
X20765598Y-99569463D01*
X21007263Y-99327798D01*
X21197137Y-99043631D01*
X21327925Y-98727881D01*
X21394600Y-98392683D01*
X21394600Y-98076317D01*
X80256200Y-98076317D01*
X80256200Y-98418083D01*
X80322875Y-98753281D01*
X80453663Y-99069031D01*
X80643537Y-99353198D01*
X80885202Y-99594863D01*
X81169369Y-99784737D01*
X81485119Y-99915525D01*
X81820317Y-99982200D01*
X82162083Y-99982200D01*
X82497281Y-99915525D01*
X82813031Y-99784737D01*
X83097198Y-99594863D01*
X83338863Y-99353198D01*
X83528737Y-99069031D01*
X83659525Y-98753281D01*
X83726200Y-98418083D01*
X83726200Y-98076317D01*
X83721148Y-98050917D01*
X143197400Y-98050917D01*
X143197400Y-98392683D01*
X143264075Y-98727881D01*
X143394863Y-99043631D01*
X143584737Y-99327798D01*
X143826402Y-99569463D01*
X144110569Y-99759337D01*
X144426319Y-99890125D01*
X144761517Y-99956800D01*
X145103283Y-99956800D01*
X145438481Y-99890125D01*
X145754231Y-99759337D01*
X146038398Y-99569463D01*
X146280063Y-99327798D01*
X146469937Y-99043631D01*
X146600725Y-98727881D01*
X146667400Y-98392683D01*
X146667400Y-98050917D01*
X206087800Y-98050917D01*
X206087800Y-98392683D01*
X206154475Y-98727881D01*
X206285263Y-99043631D01*
X206475137Y-99327798D01*
X206716802Y-99569463D01*
X207000969Y-99759337D01*
X207316719Y-99890125D01*
X207651917Y-99956800D01*
X207993683Y-99956800D01*
X208328881Y-99890125D01*
X208644631Y-99759337D01*
X208928798Y-99569463D01*
X209170463Y-99327798D01*
X209360337Y-99043631D01*
X209491125Y-98727881D01*
X209557800Y-98392683D01*
X209557800Y-98050917D01*
X268444800Y-98050917D01*
X268444800Y-98392683D01*
X268511475Y-98727881D01*
X268642263Y-99043631D01*
X268832137Y-99327798D01*
X269073802Y-99569463D01*
X269357969Y-99759337D01*
X269673719Y-99890125D01*
X270008917Y-99956800D01*
X270350683Y-99956800D01*
X270685881Y-99890125D01*
X271001631Y-99759337D01*
X271285798Y-99569463D01*
X271527463Y-99327798D01*
X271717337Y-99043631D01*
X271848125Y-98727881D01*
X271914800Y-98392683D01*
X271914800Y-98050917D01*
X271848125Y-97715719D01*
X271717337Y-97399969D01*
X271527463Y-97115802D01*
X271285798Y-96874137D01*
X271001631Y-96684263D01*
X270685881Y-96553475D01*
X270350683Y-96486800D01*
X270008917Y-96486800D01*
X269673719Y-96553475D01*
X269357969Y-96684263D01*
X269073802Y-96874137D01*
X268832137Y-97115802D01*
X268642263Y-97399969D01*
X268511475Y-97715719D01*
X268444800Y-98050917D01*
X209557800Y-98050917D01*
X209491125Y-97715719D01*
X209360337Y-97399969D01*
X209170463Y-97115802D01*
X208928798Y-96874137D01*
X208644631Y-96684263D01*
X208328881Y-96553475D01*
X207993683Y-96486800D01*
X207651917Y-96486800D01*
X207316719Y-96553475D01*
X207000969Y-96684263D01*
X206716802Y-96874137D01*
X206475137Y-97115802D01*
X206285263Y-97399969D01*
X206154475Y-97715719D01*
X206087800Y-98050917D01*
X146667400Y-98050917D01*
X146600725Y-97715719D01*
X146469937Y-97399969D01*
X146280063Y-97115802D01*
X146038398Y-96874137D01*
X145754231Y-96684263D01*
X145438481Y-96553475D01*
X145103283Y-96486800D01*
X144761517Y-96486800D01*
X144426319Y-96553475D01*
X144110569Y-96684263D01*
X143826402Y-96874137D01*
X143584737Y-97115802D01*
X143394863Y-97399969D01*
X143264075Y-97715719D01*
X143197400Y-98050917D01*
X83721148Y-98050917D01*
X83659525Y-97741119D01*
X83528737Y-97425369D01*
X83338863Y-97141202D01*
X83097198Y-96899537D01*
X82813031Y-96709663D01*
X82497281Y-96578875D01*
X82162083Y-96512200D01*
X81820317Y-96512200D01*
X81485119Y-96578875D01*
X81169369Y-96709663D01*
X80885202Y-96899537D01*
X80643537Y-97141202D01*
X80453663Y-97425369D01*
X80322875Y-97741119D01*
X80256200Y-98076317D01*
X21394600Y-98076317D01*
X21394600Y-98050917D01*
X21327925Y-97715719D01*
X21197137Y-97399969D01*
X21007263Y-97115802D01*
X20765598Y-96874137D01*
X20481431Y-96684263D01*
X20165681Y-96553475D01*
X19830483Y-96486800D01*
X19488717Y-96486800D01*
X19153519Y-96553475D01*
X18837769Y-96684263D01*
X18553602Y-96874137D01*
X18311937Y-97115802D01*
X18122063Y-97399969D01*
X17991275Y-97715719D01*
X17924600Y-98050917D01*
X17791500Y-98050917D01*
X17791500Y-77189400D01*
X28057523Y-77189400D01*
X28092400Y-77192835D01*
X28127277Y-77189400D01*
X28231584Y-77179127D01*
X28365420Y-77138528D01*
X28488763Y-77072600D01*
X28596875Y-76983875D01*
X28685600Y-76875763D01*
X28751528Y-76752420D01*
X28792127Y-76618584D01*
X28805835Y-76479400D01*
X28802400Y-76444523D01*
X28802400Y-60499576D01*
X28805835Y-60464700D01*
X28792127Y-60325516D01*
X28751528Y-60191680D01*
X28685600Y-60068337D01*
X28596875Y-59960225D01*
X28488763Y-59871500D01*
X28365420Y-59805572D01*
X28231584Y-59764973D01*
X28127277Y-59754700D01*
X28092400Y-59751265D01*
X28057523Y-59754700D01*
X17791500Y-59754700D01*
X17791500Y-58553917D01*
X80205400Y-58553917D01*
X80205400Y-58895683D01*
X80272075Y-59230881D01*
X80402863Y-59546631D01*
X80592737Y-59830798D01*
X80834402Y-60072463D01*
X81118569Y-60262337D01*
X81434319Y-60393125D01*
X81769517Y-60459800D01*
X82111283Y-60459800D01*
X82446481Y-60393125D01*
X82762231Y-60262337D01*
X83046398Y-60072463D01*
X83288063Y-59830798D01*
X83477937Y-59546631D01*
X83608725Y-59230881D01*
X83675400Y-58895683D01*
X83675400Y-58553917D01*
X83670348Y-58528517D01*
X143146600Y-58528517D01*
X143146600Y-58870283D01*
X143213275Y-59205481D01*
X143344063Y-59521231D01*
X143533937Y-59805398D01*
X143775602Y-60047063D01*
X144059769Y-60236937D01*
X144375519Y-60367725D01*
X144710717Y-60434400D01*
X145052483Y-60434400D01*
X145387681Y-60367725D01*
X145703431Y-60236937D01*
X145987598Y-60047063D01*
X146229263Y-59805398D01*
X146419137Y-59521231D01*
X146549925Y-59205481D01*
X146616600Y-58870283D01*
X146616600Y-58528517D01*
X206037000Y-58528517D01*
X206037000Y-58870283D01*
X206103675Y-59205481D01*
X206234463Y-59521231D01*
X206424337Y-59805398D01*
X206666002Y-60047063D01*
X206950169Y-60236937D01*
X207265919Y-60367725D01*
X207601117Y-60434400D01*
X207942883Y-60434400D01*
X208278081Y-60367725D01*
X208593831Y-60236937D01*
X208877998Y-60047063D01*
X209119663Y-59805398D01*
X209309537Y-59521231D01*
X209440325Y-59205481D01*
X209507000Y-58870283D01*
X209507000Y-58528517D01*
X209440325Y-58193319D01*
X209309537Y-57877569D01*
X209119663Y-57593402D01*
X208877998Y-57351737D01*
X208593831Y-57161863D01*
X208278081Y-57031075D01*
X207942883Y-56964400D01*
X207601117Y-56964400D01*
X207265919Y-57031075D01*
X206950169Y-57161863D01*
X206666002Y-57351737D01*
X206424337Y-57593402D01*
X206234463Y-57877569D01*
X206103675Y-58193319D01*
X206037000Y-58528517D01*
X146616600Y-58528517D01*
X146549925Y-58193319D01*
X146419137Y-57877569D01*
X146229263Y-57593402D01*
X145987598Y-57351737D01*
X145703431Y-57161863D01*
X145387681Y-57031075D01*
X145052483Y-56964400D01*
X144710717Y-56964400D01*
X144375519Y-57031075D01*
X144059769Y-57161863D01*
X143775602Y-57351737D01*
X143533937Y-57593402D01*
X143344063Y-57877569D01*
X143213275Y-58193319D01*
X143146600Y-58528517D01*
X83670348Y-58528517D01*
X83608725Y-58218719D01*
X83477937Y-57902969D01*
X83288063Y-57618802D01*
X83046398Y-57377137D01*
X82762231Y-57187263D01*
X82446481Y-57056475D01*
X82111283Y-56989800D01*
X81769517Y-56989800D01*
X81434319Y-57056475D01*
X81118569Y-57187263D01*
X80834402Y-57377137D01*
X80592737Y-57618802D01*
X80402863Y-57902969D01*
X80272075Y-58218719D01*
X80205400Y-58553917D01*
X17791500Y-58553917D01*
X17791500Y-18968017D01*
X17937300Y-18968017D01*
X17937300Y-19309783D01*
X18003975Y-19644981D01*
X18134763Y-19960731D01*
X18324637Y-20244898D01*
X18566302Y-20486563D01*
X18850469Y-20676437D01*
X19166219Y-20807225D01*
X19501417Y-20873900D01*
X19843183Y-20873900D01*
X20178381Y-20807225D01*
X20494131Y-20676437D01*
X20778298Y-20486563D01*
X21019963Y-20244898D01*
X21209837Y-19960731D01*
X21340625Y-19644981D01*
X21407300Y-19309783D01*
X21407300Y-19006117D01*
X80205400Y-19006117D01*
X80205400Y-19347883D01*
X80272075Y-19683081D01*
X80402863Y-19998831D01*
X80592737Y-20282998D01*
X80834402Y-20524663D01*
X81118569Y-20714537D01*
X81434319Y-20845325D01*
X81769517Y-20912000D01*
X82111283Y-20912000D01*
X82446481Y-20845325D01*
X82762231Y-20714537D01*
X83046398Y-20524663D01*
X83288063Y-20282998D01*
X83477937Y-19998831D01*
X83608725Y-19683081D01*
X83675400Y-19347883D01*
X83675400Y-19006117D01*
X83670348Y-18980717D01*
X143146600Y-18980717D01*
X143146600Y-19322483D01*
X143213275Y-19657681D01*
X143344063Y-19973431D01*
X143533937Y-20257598D01*
X143775602Y-20499263D01*
X144059769Y-20689137D01*
X144375519Y-20819925D01*
X144710717Y-20886600D01*
X145052483Y-20886600D01*
X145387681Y-20819925D01*
X145703431Y-20689137D01*
X145987598Y-20499263D01*
X146229263Y-20257598D01*
X146419137Y-19973431D01*
X146549925Y-19657681D01*
X146616600Y-19322483D01*
X146616600Y-18980717D01*
X206037000Y-18980717D01*
X206037000Y-19322483D01*
X206103675Y-19657681D01*
X206234463Y-19973431D01*
X206424337Y-20257598D01*
X206666002Y-20499263D01*
X206950169Y-20689137D01*
X207265919Y-20819925D01*
X207601117Y-20886600D01*
X207942883Y-20886600D01*
X208278081Y-20819925D01*
X208593831Y-20689137D01*
X208877998Y-20499263D01*
X209119663Y-20257598D01*
X209309537Y-19973431D01*
X209440325Y-19657681D01*
X209507000Y-19322483D01*
X209507000Y-19006117D01*
X268432100Y-19006117D01*
X268432100Y-19347883D01*
X268498775Y-19683081D01*
X268629563Y-19998831D01*
X268819437Y-20282998D01*
X269061102Y-20524663D01*
X269345269Y-20714537D01*
X269661019Y-20845325D01*
X269996217Y-20912000D01*
X270337983Y-20912000D01*
X270673181Y-20845325D01*
X270988931Y-20714537D01*
X271273098Y-20524663D01*
X271514763Y-20282998D01*
X271704637Y-19998831D01*
X271835425Y-19683081D01*
X271902100Y-19347883D01*
X271902100Y-19006117D01*
X271835425Y-18670919D01*
X271704637Y-18355169D01*
X271514763Y-18071002D01*
X271273098Y-17829337D01*
X270988931Y-17639463D01*
X270673181Y-17508675D01*
X270337983Y-17442000D01*
X269996217Y-17442000D01*
X269661019Y-17508675D01*
X269345269Y-17639463D01*
X269061102Y-17829337D01*
X268819437Y-18071002D01*
X268629563Y-18355169D01*
X268498775Y-18670919D01*
X268432100Y-19006117D01*
X209507000Y-19006117D01*
X209507000Y-18980717D01*
X209440325Y-18645519D01*
X209309537Y-18329769D01*
X209119663Y-18045602D01*
X208877998Y-17803937D01*
X208593831Y-17614063D01*
X208278081Y-17483275D01*
X207942883Y-17416600D01*
X207601117Y-17416600D01*
X207265919Y-17483275D01*
X206950169Y-17614063D01*
X206666002Y-17803937D01*
X206424337Y-18045602D01*
X206234463Y-18329769D01*
X206103675Y-18645519D01*
X206037000Y-18980717D01*
X146616600Y-18980717D01*
X146549925Y-18645519D01*
X146419137Y-18329769D01*
X146229263Y-18045602D01*
X145987598Y-17803937D01*
X145703431Y-17614063D01*
X145387681Y-17483275D01*
X145052483Y-17416600D01*
X144710717Y-17416600D01*
X144375519Y-17483275D01*
X144059769Y-17614063D01*
X143775602Y-17803937D01*
X143533937Y-18045602D01*
X143344063Y-18329769D01*
X143213275Y-18645519D01*
X143146600Y-18980717D01*
X83670348Y-18980717D01*
X83608725Y-18670919D01*
X83477937Y-18355169D01*
X83288063Y-18071002D01*
X83046398Y-17829337D01*
X82762231Y-17639463D01*
X82446481Y-17508675D01*
X82111283Y-17442000D01*
X81769517Y-17442000D01*
X81434319Y-17508675D01*
X81118569Y-17639463D01*
X80834402Y-17829337D01*
X80592737Y-18071002D01*
X80402863Y-18355169D01*
X80272075Y-18670919D01*
X80205400Y-19006117D01*
X21407300Y-19006117D01*
X21407300Y-18968017D01*
X21340625Y-18632819D01*
X21209837Y-18317069D01*
X21019963Y-18032902D01*
X20778298Y-17791237D01*
X20494131Y-17601363D01*
X20178381Y-17470575D01*
X19843183Y-17403900D01*
X19501417Y-17403900D01*
X19166219Y-17470575D01*
X18850469Y-17601363D01*
X18566302Y-17791237D01*
X18324637Y-18032902D01*
X18134763Y-18317069D01*
X18003975Y-18632819D01*
X17937300Y-18968017D01*
X17791500Y-18968017D01*
X17791500Y-18765917D01*
X18255719Y-17791058D01*
X19224695Y-17283500D01*
X270575451Y-17283500D01*
X271571708Y-17852790D01*
X271571708Y-17852790D01*
G37*
X271571708Y-17852790D02*
X272086000Y-18787868D01*
X272086001Y-98754342D01*
X271690733Y-99553662D01*
X270589918Y-100128000D01*
X19224695Y-100128000D01*
X18249020Y-99616933D01*
X17791500Y-98701894D01*
X17791500Y-98050917D01*
X17924600Y-98050917D01*
X17924600Y-98392683D01*
X17991275Y-98727881D01*
X18122063Y-99043631D01*
X18311937Y-99327798D01*
X18553602Y-99569463D01*
X18837769Y-99759337D01*
X19153519Y-99890125D01*
X19488717Y-99956800D01*
X19830483Y-99956800D01*
X20165681Y-99890125D01*
X20481431Y-99759337D01*
X20765598Y-99569463D01*
X21007263Y-99327798D01*
X21197137Y-99043631D01*
X21327925Y-98727881D01*
X21394600Y-98392683D01*
X21394600Y-98076317D01*
X80256200Y-98076317D01*
X80256200Y-98418083D01*
X80322875Y-98753281D01*
X80453663Y-99069031D01*
X80643537Y-99353198D01*
X80885202Y-99594863D01*
X81169369Y-99784737D01*
X81485119Y-99915525D01*
X81820317Y-99982200D01*
X82162083Y-99982200D01*
X82497281Y-99915525D01*
X82813031Y-99784737D01*
X83097198Y-99594863D01*
X83338863Y-99353198D01*
X83528737Y-99069031D01*
X83659525Y-98753281D01*
X83726200Y-98418083D01*
X83726200Y-98076317D01*
X83721148Y-98050917D01*
X143197400Y-98050917D01*
X143197400Y-98392683D01*
X143264075Y-98727881D01*
X143394863Y-99043631D01*
X143584737Y-99327798D01*
X143826402Y-99569463D01*
X144110569Y-99759337D01*
X144426319Y-99890125D01*
X144761517Y-99956800D01*
X145103283Y-99956800D01*
X145438481Y-99890125D01*
X145754231Y-99759337D01*
X146038398Y-99569463D01*
X146280063Y-99327798D01*
X146469937Y-99043631D01*
X146600725Y-98727881D01*
X146667400Y-98392683D01*
X146667400Y-98050917D01*
X206087800Y-98050917D01*
X206087800Y-98392683D01*
X206154475Y-98727881D01*
X206285263Y-99043631D01*
X206475137Y-99327798D01*
X206716802Y-99569463D01*
X207000969Y-99759337D01*
X207316719Y-99890125D01*
X207651917Y-99956800D01*
X207993683Y-99956800D01*
X208328881Y-99890125D01*
X208644631Y-99759337D01*
X208928798Y-99569463D01*
X209170463Y-99327798D01*
X209360337Y-99043631D01*
X209491125Y-98727881D01*
X209557800Y-98392683D01*
X209557800Y-98050917D01*
X268444800Y-98050917D01*
X268444800Y-98392683D01*
X268511475Y-98727881D01*
X268642263Y-99043631D01*
X268832137Y-99327798D01*
X269073802Y-99569463D01*
X269357969Y-99759337D01*
X269673719Y-99890125D01*
X270008917Y-99956800D01*
X270350683Y-99956800D01*
X270685881Y-99890125D01*
X271001631Y-99759337D01*
X271285798Y-99569463D01*
X271527463Y-99327798D01*
X271717337Y-99043631D01*
X271848125Y-98727881D01*
X271914800Y-98392683D01*
X271914800Y-98050917D01*
X271848125Y-97715719D01*
X271717337Y-97399969D01*
X271527463Y-97115802D01*
X271285798Y-96874137D01*
X271001631Y-96684263D01*
X270685881Y-96553475D01*
X270350683Y-96486800D01*
X270008917Y-96486800D01*
X269673719Y-96553475D01*
X269357969Y-96684263D01*
X269073802Y-96874137D01*
X268832137Y-97115802D01*
X268642263Y-97399969D01*
X268511475Y-97715719D01*
X268444800Y-98050917D01*
X209557800Y-98050917D01*
X209491125Y-97715719D01*
X209360337Y-97399969D01*
X209170463Y-97115802D01*
X208928798Y-96874137D01*
X208644631Y-96684263D01*
X208328881Y-96553475D01*
X207993683Y-96486800D01*
X207651917Y-96486800D01*
X207316719Y-96553475D01*
X207000969Y-96684263D01*
X206716802Y-96874137D01*
X206475137Y-97115802D01*
X206285263Y-97399969D01*
X206154475Y-97715719D01*
X206087800Y-98050917D01*
X146667400Y-98050917D01*
X146600725Y-97715719D01*
X146469937Y-97399969D01*
X146280063Y-97115802D01*
X146038398Y-96874137D01*
X145754231Y-96684263D01*
X145438481Y-96553475D01*
X145103283Y-96486800D01*
X144761517Y-96486800D01*
X144426319Y-96553475D01*
X144110569Y-96684263D01*
X143826402Y-96874137D01*
X143584737Y-97115802D01*
X143394863Y-97399969D01*
X143264075Y-97715719D01*
X143197400Y-98050917D01*
X83721148Y-98050917D01*
X83659525Y-97741119D01*
X83528737Y-97425369D01*
X83338863Y-97141202D01*
X83097198Y-96899537D01*
X82813031Y-96709663D01*
X82497281Y-96578875D01*
X82162083Y-96512200D01*
X81820317Y-96512200D01*
X81485119Y-96578875D01*
X81169369Y-96709663D01*
X80885202Y-96899537D01*
X80643537Y-97141202D01*
X80453663Y-97425369D01*
X80322875Y-97741119D01*
X80256200Y-98076317D01*
X21394600Y-98076317D01*
X21394600Y-98050917D01*
X21327925Y-97715719D01*
X21197137Y-97399969D01*
X21007263Y-97115802D01*
X20765598Y-96874137D01*
X20481431Y-96684263D01*
X20165681Y-96553475D01*
X19830483Y-96486800D01*
X19488717Y-96486800D01*
X19153519Y-96553475D01*
X18837769Y-96684263D01*
X18553602Y-96874137D01*
X18311937Y-97115802D01*
X18122063Y-97399969D01*
X17991275Y-97715719D01*
X17924600Y-98050917D01*
X17791500Y-98050917D01*
X17791500Y-77189400D01*
X28057523Y-77189400D01*
X28092400Y-77192835D01*
X28127277Y-77189400D01*
X28231584Y-77179127D01*
X28365420Y-77138528D01*
X28488763Y-77072600D01*
X28596875Y-76983875D01*
X28685600Y-76875763D01*
X28751528Y-76752420D01*
X28792127Y-76618584D01*
X28805835Y-76479400D01*
X28802400Y-76444523D01*
X28802400Y-60499576D01*
X28805835Y-60464700D01*
X28792127Y-60325516D01*
X28751528Y-60191680D01*
X28685600Y-60068337D01*
X28596875Y-59960225D01*
X28488763Y-59871500D01*
X28365420Y-59805572D01*
X28231584Y-59764973D01*
X28127277Y-59754700D01*
X28092400Y-59751265D01*
X28057523Y-59754700D01*
X17791500Y-59754700D01*
X17791500Y-58553917D01*
X80205400Y-58553917D01*
X80205400Y-58895683D01*
X80272075Y-59230881D01*
X80402863Y-59546631D01*
X80592737Y-59830798D01*
X80834402Y-60072463D01*
X81118569Y-60262337D01*
X81434319Y-60393125D01*
X81769517Y-60459800D01*
X82111283Y-60459800D01*
X82446481Y-60393125D01*
X82762231Y-60262337D01*
X83046398Y-60072463D01*
X83288063Y-59830798D01*
X83477937Y-59546631D01*
X83608725Y-59230881D01*
X83675400Y-58895683D01*
X83675400Y-58553917D01*
X83670348Y-58528517D01*
X143146600Y-58528517D01*
X143146600Y-58870283D01*
X143213275Y-59205481D01*
X143344063Y-59521231D01*
X143533937Y-59805398D01*
X143775602Y-60047063D01*
X144059769Y-60236937D01*
X144375519Y-60367725D01*
X144710717Y-60434400D01*
X145052483Y-60434400D01*
X145387681Y-60367725D01*
X145703431Y-60236937D01*
X145987598Y-60047063D01*
X146229263Y-59805398D01*
X146419137Y-59521231D01*
X146549925Y-59205481D01*
X146616600Y-58870283D01*
X146616600Y-58528517D01*
X206037000Y-58528517D01*
X206037000Y-58870283D01*
X206103675Y-59205481D01*
X206234463Y-59521231D01*
X206424337Y-59805398D01*
X206666002Y-60047063D01*
X206950169Y-60236937D01*
X207265919Y-60367725D01*
X207601117Y-60434400D01*
X207942883Y-60434400D01*
X208278081Y-60367725D01*
X208593831Y-60236937D01*
X208877998Y-60047063D01*
X209119663Y-59805398D01*
X209309537Y-59521231D01*
X209440325Y-59205481D01*
X209507000Y-58870283D01*
X209507000Y-58528517D01*
X209440325Y-58193319D01*
X209309537Y-57877569D01*
X209119663Y-57593402D01*
X208877998Y-57351737D01*
X208593831Y-57161863D01*
X208278081Y-57031075D01*
X207942883Y-56964400D01*
X207601117Y-56964400D01*
X207265919Y-57031075D01*
X206950169Y-57161863D01*
X206666002Y-57351737D01*
X206424337Y-57593402D01*
X206234463Y-57877569D01*
X206103675Y-58193319D01*
X206037000Y-58528517D01*
X146616600Y-58528517D01*
X146549925Y-58193319D01*
X146419137Y-57877569D01*
X146229263Y-57593402D01*
X145987598Y-57351737D01*
X145703431Y-57161863D01*
X145387681Y-57031075D01*
X145052483Y-56964400D01*
X144710717Y-56964400D01*
X144375519Y-57031075D01*
X144059769Y-57161863D01*
X143775602Y-57351737D01*
X143533937Y-57593402D01*
X143344063Y-57877569D01*
X143213275Y-58193319D01*
X143146600Y-58528517D01*
X83670348Y-58528517D01*
X83608725Y-58218719D01*
X83477937Y-57902969D01*
X83288063Y-57618802D01*
X83046398Y-57377137D01*
X82762231Y-57187263D01*
X82446481Y-57056475D01*
X82111283Y-56989800D01*
X81769517Y-56989800D01*
X81434319Y-57056475D01*
X81118569Y-57187263D01*
X80834402Y-57377137D01*
X80592737Y-57618802D01*
X80402863Y-57902969D01*
X80272075Y-58218719D01*
X80205400Y-58553917D01*
X17791500Y-58553917D01*
X17791500Y-18968017D01*
X17937300Y-18968017D01*
X17937300Y-19309783D01*
X18003975Y-19644981D01*
X18134763Y-19960731D01*
X18324637Y-20244898D01*
X18566302Y-20486563D01*
X18850469Y-20676437D01*
X19166219Y-20807225D01*
X19501417Y-20873900D01*
X19843183Y-20873900D01*
X20178381Y-20807225D01*
X20494131Y-20676437D01*
X20778298Y-20486563D01*
X21019963Y-20244898D01*
X21209837Y-19960731D01*
X21340625Y-19644981D01*
X21407300Y-19309783D01*
X21407300Y-19006117D01*
X80205400Y-19006117D01*
X80205400Y-19347883D01*
X80272075Y-19683081D01*
X80402863Y-19998831D01*
X80592737Y-20282998D01*
X80834402Y-20524663D01*
X81118569Y-20714537D01*
X81434319Y-20845325D01*
X81769517Y-20912000D01*
X82111283Y-20912000D01*
X82446481Y-20845325D01*
X82762231Y-20714537D01*
X83046398Y-20524663D01*
X83288063Y-20282998D01*
X83477937Y-19998831D01*
X83608725Y-19683081D01*
X83675400Y-19347883D01*
X83675400Y-19006117D01*
X83670348Y-18980717D01*
X143146600Y-18980717D01*
X143146600Y-19322483D01*
X143213275Y-19657681D01*
X143344063Y-19973431D01*
X143533937Y-20257598D01*
X143775602Y-20499263D01*
X144059769Y-20689137D01*
X144375519Y-20819925D01*
X144710717Y-20886600D01*
X145052483Y-20886600D01*
X145387681Y-20819925D01*
X145703431Y-20689137D01*
X145987598Y-20499263D01*
X146229263Y-20257598D01*
X146419137Y-19973431D01*
X146549925Y-19657681D01*
X146616600Y-19322483D01*
X146616600Y-18980717D01*
X206037000Y-18980717D01*
X206037000Y-19322483D01*
X206103675Y-19657681D01*
X206234463Y-19973431D01*
X206424337Y-20257598D01*
X206666002Y-20499263D01*
X206950169Y-20689137D01*
X207265919Y-20819925D01*
X207601117Y-20886600D01*
X207942883Y-20886600D01*
X208278081Y-20819925D01*
X208593831Y-20689137D01*
X208877998Y-20499263D01*
X209119663Y-20257598D01*
X209309537Y-19973431D01*
X209440325Y-19657681D01*
X209507000Y-19322483D01*
X209507000Y-19006117D01*
X268432100Y-19006117D01*
X268432100Y-19347883D01*
X268498775Y-19683081D01*
X268629563Y-19998831D01*
X268819437Y-20282998D01*
X269061102Y-20524663D01*
X269345269Y-20714537D01*
X269661019Y-20845325D01*
X269996217Y-20912000D01*
X270337983Y-20912000D01*
X270673181Y-20845325D01*
X270988931Y-20714537D01*
X271273098Y-20524663D01*
X271514763Y-20282998D01*
X271704637Y-19998831D01*
X271835425Y-19683081D01*
X271902100Y-19347883D01*
X271902100Y-19006117D01*
X271835425Y-18670919D01*
X271704637Y-18355169D01*
X271514763Y-18071002D01*
X271273098Y-17829337D01*
X270988931Y-17639463D01*
X270673181Y-17508675D01*
X270337983Y-17442000D01*
X269996217Y-17442000D01*
X269661019Y-17508675D01*
X269345269Y-17639463D01*
X269061102Y-17829337D01*
X268819437Y-18071002D01*
X268629563Y-18355169D01*
X268498775Y-18670919D01*
X268432100Y-19006117D01*
X209507000Y-19006117D01*
X209507000Y-18980717D01*
X209440325Y-18645519D01*
X209309537Y-18329769D01*
X209119663Y-18045602D01*
X208877998Y-17803937D01*
X208593831Y-17614063D01*
X208278081Y-17483275D01*
X207942883Y-17416600D01*
X207601117Y-17416600D01*
X207265919Y-17483275D01*
X206950169Y-17614063D01*
X206666002Y-17803937D01*
X206424337Y-18045602D01*
X206234463Y-18329769D01*
X206103675Y-18645519D01*
X206037000Y-18980717D01*
X146616600Y-18980717D01*
X146549925Y-18645519D01*
X146419137Y-18329769D01*
X146229263Y-18045602D01*
X145987598Y-17803937D01*
X145703431Y-17614063D01*
X145387681Y-17483275D01*
X145052483Y-17416600D01*
X144710717Y-17416600D01*
X144375519Y-17483275D01*
X144059769Y-17614063D01*
X143775602Y-17803937D01*
X143533937Y-18045602D01*
X143344063Y-18329769D01*
X143213275Y-18645519D01*
X143146600Y-18980717D01*
X83670348Y-18980717D01*
X83608725Y-18670919D01*
X83477937Y-18355169D01*
X83288063Y-18071002D01*
X83046398Y-17829337D01*
X82762231Y-17639463D01*
X82446481Y-17508675D01*
X82111283Y-17442000D01*
X81769517Y-17442000D01*
X81434319Y-17508675D01*
X81118569Y-17639463D01*
X80834402Y-17829337D01*
X80592737Y-18071002D01*
X80402863Y-18355169D01*
X80272075Y-18670919D01*
X80205400Y-19006117D01*
X21407300Y-19006117D01*
X21407300Y-18968017D01*
X21340625Y-18632819D01*
X21209837Y-18317069D01*
X21019963Y-18032902D01*
X20778298Y-17791237D01*
X20494131Y-17601363D01*
X20178381Y-17470575D01*
X19843183Y-17403900D01*
X19501417Y-17403900D01*
X19166219Y-17470575D01*
X18850469Y-17601363D01*
X18566302Y-17791237D01*
X18324637Y-18032902D01*
X18134763Y-18317069D01*
X18003975Y-18632819D01*
X17937300Y-18968017D01*
X17791500Y-18968017D01*
X17791500Y-18765917D01*
X18255719Y-17791058D01*
X19224695Y-17283500D01*
X270575451Y-17283500D01*
X271571708Y-17852790D01*
M02*
