G04 #@! TF.GenerationSoftware,KiCad,Pcbnew,(5.1.4-0-10_14)*
G04 #@! TF.CreationDate,2020-04-12T12:15:55-07:00*
G04 #@! TF.ProjectId,bottom_plate,626f7474-6f6d-45f7-906c-6174652e6b69,rev?*
G04 #@! TF.SameCoordinates,Original*
G04 #@! TF.FileFunction,Soldermask,Bot*
G04 #@! TF.FilePolarity,Negative*
%FSLAX46Y46*%
G04 Gerber Fmt 4.6, Leading zero omitted, Abs format (unit mm)*
G04 Created by KiCad (PCBNEW (5.1.4-0-10_14)) date 2020-04-12 12:15:55*
%MOMM*%
%LPD*%
G04 APERTURE LIST*
%ADD10C,0.010000*%
%ADD11C,0.100000*%
G04 APERTURE END LIST*
D10*
G36*
X254675894Y-82031017D02*
G01*
X254410399Y-82164938D01*
X254216507Y-82396478D01*
X254213288Y-82402632D01*
X254120437Y-82706935D01*
X254144772Y-82994160D01*
X254265745Y-83244090D01*
X254462807Y-83436509D01*
X254715412Y-83551201D01*
X255003013Y-83567949D01*
X255298344Y-83470215D01*
X255522486Y-83278925D01*
X255650300Y-83023844D01*
X255682144Y-82739712D01*
X255618374Y-82461270D01*
X255459348Y-82223256D01*
X255284216Y-82095462D01*
X254978623Y-82004572D01*
X254675894Y-82031017D01*
X254675894Y-82031017D01*
G37*
X254675894Y-82031017D02*
X254410399Y-82164938D01*
X254216507Y-82396478D01*
X254213288Y-82402632D01*
X254120437Y-82706935D01*
X254144772Y-82994160D01*
X254265745Y-83244090D01*
X254462807Y-83436509D01*
X254715412Y-83551201D01*
X255003013Y-83567949D01*
X255298344Y-83470215D01*
X255522486Y-83278925D01*
X255650300Y-83023844D01*
X255682144Y-82739712D01*
X255618374Y-82461270D01*
X255459348Y-82223256D01*
X255284216Y-82095462D01*
X254978623Y-82004572D01*
X254675894Y-82031017D01*
G36*
X208639666Y-81524328D02*
G01*
X208602173Y-81561798D01*
X208514076Y-81715965D01*
X208558868Y-81835287D01*
X208735525Y-81918433D01*
X208900600Y-81949902D01*
X209237643Y-82043463D01*
X209451068Y-82173526D01*
X209585092Y-82293710D01*
X209686703Y-82412741D01*
X209760364Y-82551320D01*
X209810537Y-82730148D01*
X209841682Y-82969925D01*
X209858262Y-83291354D01*
X209864739Y-83715135D01*
X209865652Y-84097034D01*
X209869317Y-84570294D01*
X209879728Y-84974603D01*
X209896010Y-85291749D01*
X209917289Y-85503523D01*
X209937102Y-85584429D01*
X210044470Y-85679615D01*
X210196139Y-85716883D01*
X210332492Y-85690093D01*
X210386602Y-85630726D01*
X210394675Y-85541272D01*
X210400747Y-85332319D01*
X210404679Y-85022398D01*
X210406332Y-84630042D01*
X210405568Y-84173782D01*
X210402248Y-83672150D01*
X210401691Y-83611841D01*
X210383315Y-81680164D01*
X210189390Y-81657926D01*
X210041561Y-81665842D01*
X209953659Y-81758185D01*
X209917959Y-81841027D01*
X209840453Y-82046364D01*
X209708914Y-81879140D01*
X209442835Y-81649042D01*
X209077542Y-81499465D01*
X208963816Y-81474165D01*
X208770391Y-81461248D01*
X208639666Y-81524328D01*
X208639666Y-81524328D01*
G37*
X208639666Y-81524328D02*
X208602173Y-81561798D01*
X208514076Y-81715965D01*
X208558868Y-81835287D01*
X208735525Y-81918433D01*
X208900600Y-81949902D01*
X209237643Y-82043463D01*
X209451068Y-82173526D01*
X209585092Y-82293710D01*
X209686703Y-82412741D01*
X209760364Y-82551320D01*
X209810537Y-82730148D01*
X209841682Y-82969925D01*
X209858262Y-83291354D01*
X209864739Y-83715135D01*
X209865652Y-84097034D01*
X209869317Y-84570294D01*
X209879728Y-84974603D01*
X209896010Y-85291749D01*
X209917289Y-85503523D01*
X209937102Y-85584429D01*
X210044470Y-85679615D01*
X210196139Y-85716883D01*
X210332492Y-85690093D01*
X210386602Y-85630726D01*
X210394675Y-85541272D01*
X210400747Y-85332319D01*
X210404679Y-85022398D01*
X210406332Y-84630042D01*
X210405568Y-84173782D01*
X210402248Y-83672150D01*
X210401691Y-83611841D01*
X210383315Y-81680164D01*
X210189390Y-81657926D01*
X210041561Y-81665842D01*
X209953659Y-81758185D01*
X209917959Y-81841027D01*
X209840453Y-82046364D01*
X209708914Y-81879140D01*
X209442835Y-81649042D01*
X209077542Y-81499465D01*
X208963816Y-81474165D01*
X208770391Y-81461248D01*
X208639666Y-81524328D01*
G36*
X230107846Y-81525706D02*
G01*
X230033484Y-81651253D01*
X230033924Y-81738245D01*
X230085630Y-81835781D01*
X230225691Y-81908582D01*
X230399619Y-81955783D01*
X230712782Y-82041654D01*
X230929508Y-82146052D01*
X231091213Y-82294708D01*
X231204456Y-82455785D01*
X231258075Y-82548845D01*
X231299005Y-82646279D01*
X231329539Y-82768497D01*
X231351972Y-82935906D01*
X231368597Y-83168913D01*
X231381708Y-83487927D01*
X231393599Y-83913356D01*
X231400434Y-84199457D01*
X231434945Y-85683424D01*
X231607985Y-85703646D01*
X231773964Y-85687544D01*
X231866816Y-85638075D01*
X231894298Y-85572838D01*
X231915824Y-85430678D01*
X231931899Y-85200037D01*
X231943029Y-84869358D01*
X231949718Y-84427083D01*
X231952473Y-83861653D01*
X231952608Y-83676441D01*
X231951886Y-83088466D01*
X231948039Y-82624362D01*
X231938552Y-82269961D01*
X231920908Y-82011092D01*
X231892590Y-81833584D01*
X231851082Y-81723267D01*
X231793866Y-81665973D01*
X231718425Y-81647529D01*
X231622244Y-81653767D01*
X231594043Y-81657610D01*
X231473727Y-81710270D01*
X231420040Y-81848306D01*
X231413637Y-81900196D01*
X231392328Y-82120229D01*
X231152492Y-81854759D01*
X230940355Y-81670388D01*
X230703871Y-81542593D01*
X230468991Y-81474080D01*
X230261665Y-81467549D01*
X230107846Y-81525706D01*
X230107846Y-81525706D01*
G37*
X230107846Y-81525706D02*
X230033484Y-81651253D01*
X230033924Y-81738245D01*
X230085630Y-81835781D01*
X230225691Y-81908582D01*
X230399619Y-81955783D01*
X230712782Y-82041654D01*
X230929508Y-82146052D01*
X231091213Y-82294708D01*
X231204456Y-82455785D01*
X231258075Y-82548845D01*
X231299005Y-82646279D01*
X231329539Y-82768497D01*
X231351972Y-82935906D01*
X231368597Y-83168913D01*
X231381708Y-83487927D01*
X231393599Y-83913356D01*
X231400434Y-84199457D01*
X231434945Y-85683424D01*
X231607985Y-85703646D01*
X231773964Y-85687544D01*
X231866816Y-85638075D01*
X231894298Y-85572838D01*
X231915824Y-85430678D01*
X231931899Y-85200037D01*
X231943029Y-84869358D01*
X231949718Y-84427083D01*
X231952473Y-83861653D01*
X231952608Y-83676441D01*
X231951886Y-83088466D01*
X231948039Y-82624362D01*
X231938552Y-82269961D01*
X231920908Y-82011092D01*
X231892590Y-81833584D01*
X231851082Y-81723267D01*
X231793866Y-81665973D01*
X231718425Y-81647529D01*
X231622244Y-81653767D01*
X231594043Y-81657610D01*
X231473727Y-81710270D01*
X231420040Y-81848306D01*
X231413637Y-81900196D01*
X231392328Y-82120229D01*
X231152492Y-81854759D01*
X230940355Y-81670388D01*
X230703871Y-81542593D01*
X230468991Y-81474080D01*
X230261665Y-81467549D01*
X230107846Y-81525706D01*
G36*
X244637559Y-79863247D02*
G01*
X244173815Y-79874315D01*
X243824287Y-79887934D01*
X243565146Y-79906654D01*
X243372566Y-79933029D01*
X243222720Y-79969611D01*
X243091778Y-80018952D01*
X243062828Y-80031916D01*
X242705335Y-80263300D01*
X242446029Y-80570192D01*
X242289445Y-80928163D01*
X242240118Y-81312786D01*
X242302583Y-81699632D01*
X242481374Y-82064273D01*
X242648432Y-82264302D01*
X242843462Y-82426842D01*
X243045004Y-82545622D01*
X243136279Y-82577918D01*
X243359549Y-82626956D01*
X243002892Y-82747697D01*
X242597107Y-82948749D01*
X242296010Y-83237537D01*
X242105629Y-83605746D01*
X242031994Y-84045057D01*
X242031298Y-84087916D01*
X242085668Y-84571974D01*
X242249095Y-84981387D01*
X242515060Y-85306638D01*
X242877049Y-85538209D01*
X243073833Y-85610599D01*
X243268659Y-85648647D01*
X243554895Y-85679211D01*
X243906609Y-85702076D01*
X244297873Y-85717026D01*
X244702757Y-85723844D01*
X245095332Y-85722316D01*
X245449668Y-85712225D01*
X245739836Y-85693356D01*
X245939906Y-85665492D01*
X246019239Y-85635109D01*
X246041472Y-85574807D01*
X246059780Y-85436429D01*
X246074425Y-85210918D01*
X246085671Y-84889216D01*
X246093779Y-84462267D01*
X246099013Y-83921014D01*
X246101636Y-83256398D01*
X246101967Y-82888044D01*
X245549891Y-82888044D01*
X245549891Y-85234783D01*
X244497309Y-85233267D01*
X244068107Y-85229946D01*
X243750577Y-85219706D01*
X243518417Y-85199996D01*
X243345325Y-85168269D01*
X243204999Y-85121975D01*
X243163405Y-85103980D01*
X242903575Y-84924014D01*
X242737163Y-84657247D01*
X242658873Y-84293294D01*
X242650978Y-84099321D01*
X242685433Y-83747458D01*
X242795184Y-83464045D01*
X242989806Y-83243778D01*
X243278877Y-83081352D01*
X243671973Y-82971462D01*
X244178672Y-82908805D01*
X244808549Y-82888076D01*
X244837839Y-82888044D01*
X245549891Y-82888044D01*
X246101967Y-82888044D01*
X246102065Y-82779158D01*
X246101796Y-82473914D01*
X245549891Y-82473914D01*
X244911440Y-82473514D01*
X244565493Y-82465452D01*
X244214090Y-82444398D01*
X243920424Y-82414445D01*
X243859229Y-82405363D01*
X243433292Y-82286623D01*
X243120133Y-82088432D01*
X242919872Y-81810911D01*
X242832627Y-81454181D01*
X242828462Y-81343753D01*
X242858738Y-81027549D01*
X242957525Y-80777454D01*
X243136768Y-80586429D01*
X243408411Y-80447436D01*
X243784396Y-80353437D01*
X244276667Y-80297395D01*
X244635353Y-80278972D01*
X245549891Y-80247210D01*
X245549891Y-82473914D01*
X246101796Y-82473914D01*
X246101442Y-82073524D01*
X246099285Y-81493659D01*
X246095157Y-81027294D01*
X246088624Y-80662159D01*
X246079251Y-80385983D01*
X246066601Y-80186498D01*
X246050242Y-80051434D01*
X246029736Y-79968520D01*
X246004650Y-79925488D01*
X246000739Y-79921940D01*
X245917219Y-79890030D01*
X245748100Y-79868868D01*
X245480082Y-79857880D01*
X245099866Y-79856494D01*
X244637559Y-79863247D01*
X244637559Y-79863247D01*
G37*
X244637559Y-79863247D02*
X244173815Y-79874315D01*
X243824287Y-79887934D01*
X243565146Y-79906654D01*
X243372566Y-79933029D01*
X243222720Y-79969611D01*
X243091778Y-80018952D01*
X243062828Y-80031916D01*
X242705335Y-80263300D01*
X242446029Y-80570192D01*
X242289445Y-80928163D01*
X242240118Y-81312786D01*
X242302583Y-81699632D01*
X242481374Y-82064273D01*
X242648432Y-82264302D01*
X242843462Y-82426842D01*
X243045004Y-82545622D01*
X243136279Y-82577918D01*
X243359549Y-82626956D01*
X243002892Y-82747697D01*
X242597107Y-82948749D01*
X242296010Y-83237537D01*
X242105629Y-83605746D01*
X242031994Y-84045057D01*
X242031298Y-84087916D01*
X242085668Y-84571974D01*
X242249095Y-84981387D01*
X242515060Y-85306638D01*
X242877049Y-85538209D01*
X243073833Y-85610599D01*
X243268659Y-85648647D01*
X243554895Y-85679211D01*
X243906609Y-85702076D01*
X244297873Y-85717026D01*
X244702757Y-85723844D01*
X245095332Y-85722316D01*
X245449668Y-85712225D01*
X245739836Y-85693356D01*
X245939906Y-85665492D01*
X246019239Y-85635109D01*
X246041472Y-85574807D01*
X246059780Y-85436429D01*
X246074425Y-85210918D01*
X246085671Y-84889216D01*
X246093779Y-84462267D01*
X246099013Y-83921014D01*
X246101636Y-83256398D01*
X246101967Y-82888044D01*
X245549891Y-82888044D01*
X245549891Y-85234783D01*
X244497309Y-85233267D01*
X244068107Y-85229946D01*
X243750577Y-85219706D01*
X243518417Y-85199996D01*
X243345325Y-85168269D01*
X243204999Y-85121975D01*
X243163405Y-85103980D01*
X242903575Y-84924014D01*
X242737163Y-84657247D01*
X242658873Y-84293294D01*
X242650978Y-84099321D01*
X242685433Y-83747458D01*
X242795184Y-83464045D01*
X242989806Y-83243778D01*
X243278877Y-83081352D01*
X243671973Y-82971462D01*
X244178672Y-82908805D01*
X244808549Y-82888076D01*
X244837839Y-82888044D01*
X245549891Y-82888044D01*
X246101967Y-82888044D01*
X246102065Y-82779158D01*
X246101796Y-82473914D01*
X245549891Y-82473914D01*
X244911440Y-82473514D01*
X244565493Y-82465452D01*
X244214090Y-82444398D01*
X243920424Y-82414445D01*
X243859229Y-82405363D01*
X243433292Y-82286623D01*
X243120133Y-82088432D01*
X242919872Y-81810911D01*
X242832627Y-81454181D01*
X242828462Y-81343753D01*
X242858738Y-81027549D01*
X242957525Y-80777454D01*
X243136768Y-80586429D01*
X243408411Y-80447436D01*
X243784396Y-80353437D01*
X244276667Y-80297395D01*
X244635353Y-80278972D01*
X245549891Y-80247210D01*
X245549891Y-82473914D01*
X246101796Y-82473914D01*
X246101442Y-82073524D01*
X246099285Y-81493659D01*
X246095157Y-81027294D01*
X246088624Y-80662159D01*
X246079251Y-80385983D01*
X246066601Y-80186498D01*
X246050242Y-80051434D01*
X246029736Y-79968520D01*
X246004650Y-79925488D01*
X246000739Y-79921940D01*
X245917219Y-79890030D01*
X245748100Y-79868868D01*
X245480082Y-79857880D01*
X245099866Y-79856494D01*
X244637559Y-79863247D01*
G36*
X222223044Y-81562617D02*
G01*
X221887770Y-81634229D01*
X221598844Y-81731880D01*
X221382970Y-81847588D01*
X221266851Y-81973372D01*
X221254239Y-82029030D01*
X221293067Y-82132421D01*
X221417788Y-82172635D01*
X221640756Y-82150192D01*
X221974324Y-82065609D01*
X221993082Y-82060069D01*
X222444139Y-81963045D01*
X222854756Y-81944544D01*
X223209479Y-81998287D01*
X223492855Y-82117994D01*
X223689432Y-82297387D01*
X223783756Y-82530187D01*
X223768164Y-82781327D01*
X223726654Y-82885423D01*
X223647037Y-82973034D01*
X223509841Y-83053160D01*
X223295592Y-83134799D01*
X222984817Y-83226950D01*
X222567323Y-83336262D01*
X222153669Y-83446830D01*
X221850499Y-83544131D01*
X221632470Y-83639557D01*
X221474244Y-83744503D01*
X221350479Y-83870361D01*
X221334127Y-83890721D01*
X221181740Y-84187859D01*
X221127011Y-84537184D01*
X221168635Y-84894647D01*
X221305304Y-85216199D01*
X221376351Y-85313298D01*
X221619514Y-85538360D01*
X221916455Y-85685103D01*
X222292984Y-85762617D01*
X222703695Y-85780824D01*
X223016677Y-85768672D01*
X223314010Y-85739306D01*
X223540150Y-85698569D01*
X223572284Y-85689467D01*
X223924492Y-85553122D01*
X224164434Y-85402566D01*
X224281303Y-85245375D01*
X224291195Y-85185391D01*
X224242285Y-85059523D01*
X224096004Y-85030856D01*
X223853027Y-85099412D01*
X223706635Y-85164733D01*
X223281578Y-85325600D01*
X222866545Y-85401187D01*
X222480389Y-85396425D01*
X222141964Y-85316244D01*
X221870123Y-85165577D01*
X221683718Y-84949353D01*
X221601603Y-84672504D01*
X221599348Y-84613587D01*
X221612038Y-84422571D01*
X221661669Y-84271243D01*
X221765574Y-84148125D01*
X221941090Y-84041736D01*
X222205553Y-83940595D01*
X222576299Y-83833222D01*
X222904793Y-83749090D01*
X223385426Y-83618085D01*
X223744774Y-83488835D01*
X223998842Y-83348699D01*
X224163636Y-83185038D01*
X224255162Y-82985212D01*
X224289426Y-82736581D01*
X224290937Y-82654415D01*
X224237543Y-82278580D01*
X224075956Y-81980535D01*
X223803159Y-81757796D01*
X223416135Y-81607875D01*
X222925824Y-81529430D01*
X222577963Y-81525023D01*
X222223044Y-81562617D01*
X222223044Y-81562617D01*
G37*
X222223044Y-81562617D02*
X221887770Y-81634229D01*
X221598844Y-81731880D01*
X221382970Y-81847588D01*
X221266851Y-81973372D01*
X221254239Y-82029030D01*
X221293067Y-82132421D01*
X221417788Y-82172635D01*
X221640756Y-82150192D01*
X221974324Y-82065609D01*
X221993082Y-82060069D01*
X222444139Y-81963045D01*
X222854756Y-81944544D01*
X223209479Y-81998287D01*
X223492855Y-82117994D01*
X223689432Y-82297387D01*
X223783756Y-82530187D01*
X223768164Y-82781327D01*
X223726654Y-82885423D01*
X223647037Y-82973034D01*
X223509841Y-83053160D01*
X223295592Y-83134799D01*
X222984817Y-83226950D01*
X222567323Y-83336262D01*
X222153669Y-83446830D01*
X221850499Y-83544131D01*
X221632470Y-83639557D01*
X221474244Y-83744503D01*
X221350479Y-83870361D01*
X221334127Y-83890721D01*
X221181740Y-84187859D01*
X221127011Y-84537184D01*
X221168635Y-84894647D01*
X221305304Y-85216199D01*
X221376351Y-85313298D01*
X221619514Y-85538360D01*
X221916455Y-85685103D01*
X222292984Y-85762617D01*
X222703695Y-85780824D01*
X223016677Y-85768672D01*
X223314010Y-85739306D01*
X223540150Y-85698569D01*
X223572284Y-85689467D01*
X223924492Y-85553122D01*
X224164434Y-85402566D01*
X224281303Y-85245375D01*
X224291195Y-85185391D01*
X224242285Y-85059523D01*
X224096004Y-85030856D01*
X223853027Y-85099412D01*
X223706635Y-85164733D01*
X223281578Y-85325600D01*
X222866545Y-85401187D01*
X222480389Y-85396425D01*
X222141964Y-85316244D01*
X221870123Y-85165577D01*
X221683718Y-84949353D01*
X221601603Y-84672504D01*
X221599348Y-84613587D01*
X221612038Y-84422571D01*
X221661669Y-84271243D01*
X221765574Y-84148125D01*
X221941090Y-84041736D01*
X222205553Y-83940595D01*
X222576299Y-83833222D01*
X222904793Y-83749090D01*
X223385426Y-83618085D01*
X223744774Y-83488835D01*
X223998842Y-83348699D01*
X224163636Y-83185038D01*
X224255162Y-82985212D01*
X224289426Y-82736581D01*
X224290937Y-82654415D01*
X224237543Y-82278580D01*
X224075956Y-81980535D01*
X223803159Y-81757796D01*
X223416135Y-81607875D01*
X222925824Y-81529430D01*
X222577963Y-81525023D01*
X222223044Y-81562617D01*
G36*
X201355885Y-81552553D02*
G01*
X201121129Y-81611229D01*
X200748698Y-81790910D01*
X200436894Y-82079647D01*
X200198749Y-82456915D01*
X200047297Y-82902190D01*
X199995543Y-83383724D01*
X199995543Y-83716305D01*
X203258793Y-83716305D01*
X203218360Y-84057703D01*
X203107583Y-84508144D01*
X202901780Y-84869867D01*
X202615502Y-85138110D01*
X202263297Y-85308114D01*
X201859715Y-85375119D01*
X201419307Y-85334366D01*
X200956621Y-85181094D01*
X200526348Y-84938367D01*
X200298828Y-84821365D01*
X200141656Y-84809617D01*
X200067105Y-84883142D01*
X200087447Y-85021961D01*
X200214952Y-85206096D01*
X200307073Y-85295364D01*
X200587250Y-85512897D01*
X200866324Y-85656335D01*
X201203895Y-85753719D01*
X201338281Y-85780526D01*
X201638035Y-85830212D01*
X201860759Y-85846358D01*
X202063626Y-85827768D01*
X202303807Y-85773245D01*
X202356616Y-85759199D01*
X202820333Y-85567917D01*
X203201950Y-85272630D01*
X203493676Y-84885671D01*
X203687721Y-84419370D01*
X203776294Y-83886061D01*
X203774048Y-83515527D01*
X203749432Y-83371196D01*
X203242195Y-83371196D01*
X200461052Y-83371196D01*
X200506750Y-83077854D01*
X200604133Y-82749794D01*
X200777221Y-82433457D01*
X200996271Y-82175096D01*
X201167836Y-82049823D01*
X201479788Y-81949169D01*
X201847710Y-81929880D01*
X202216185Y-81991774D01*
X202384806Y-82053786D01*
X202724311Y-82282634D01*
X202986219Y-82625157D01*
X203169838Y-83080392D01*
X203196262Y-83181386D01*
X203242195Y-83371196D01*
X203749432Y-83371196D01*
X203677464Y-82949248D01*
X203478350Y-82464204D01*
X203188452Y-82068824D01*
X202819512Y-81771539D01*
X202383275Y-81580779D01*
X201891484Y-81504974D01*
X201355885Y-81552553D01*
X201355885Y-81552553D01*
G37*
X201355885Y-81552553D02*
X201121129Y-81611229D01*
X200748698Y-81790910D01*
X200436894Y-82079647D01*
X200198749Y-82456915D01*
X200047297Y-82902190D01*
X199995543Y-83383724D01*
X199995543Y-83716305D01*
X203258793Y-83716305D01*
X203218360Y-84057703D01*
X203107583Y-84508144D01*
X202901780Y-84869867D01*
X202615502Y-85138110D01*
X202263297Y-85308114D01*
X201859715Y-85375119D01*
X201419307Y-85334366D01*
X200956621Y-85181094D01*
X200526348Y-84938367D01*
X200298828Y-84821365D01*
X200141656Y-84809617D01*
X200067105Y-84883142D01*
X200087447Y-85021961D01*
X200214952Y-85206096D01*
X200307073Y-85295364D01*
X200587250Y-85512897D01*
X200866324Y-85656335D01*
X201203895Y-85753719D01*
X201338281Y-85780526D01*
X201638035Y-85830212D01*
X201860759Y-85846358D01*
X202063626Y-85827768D01*
X202303807Y-85773245D01*
X202356616Y-85759199D01*
X202820333Y-85567917D01*
X203201950Y-85272630D01*
X203493676Y-84885671D01*
X203687721Y-84419370D01*
X203776294Y-83886061D01*
X203774048Y-83515527D01*
X203749432Y-83371196D01*
X203242195Y-83371196D01*
X200461052Y-83371196D01*
X200506750Y-83077854D01*
X200604133Y-82749794D01*
X200777221Y-82433457D01*
X200996271Y-82175096D01*
X201167836Y-82049823D01*
X201479788Y-81949169D01*
X201847710Y-81929880D01*
X202216185Y-81991774D01*
X202384806Y-82053786D01*
X202724311Y-82282634D01*
X202986219Y-82625157D01*
X203169838Y-83080392D01*
X203196262Y-83181386D01*
X203242195Y-83371196D01*
X203749432Y-83371196D01*
X203677464Y-82949248D01*
X203478350Y-82464204D01*
X203188452Y-82068824D01*
X202819512Y-81771539D01*
X202383275Y-81580779D01*
X201891484Y-81504974D01*
X201355885Y-81552553D01*
G36*
X205512705Y-81528774D02*
G01*
X205117251Y-81632712D01*
X204791395Y-81823575D01*
X204751240Y-81859073D01*
X204614698Y-82025238D01*
X204591943Y-82155202D01*
X204592542Y-82156807D01*
X204655321Y-82242551D01*
X204766085Y-82255205D01*
X204948240Y-82192116D01*
X205144291Y-82094294D01*
X205560943Y-81943797D01*
X205978430Y-81922394D01*
X206374573Y-82023069D01*
X206727192Y-82238803D01*
X207014109Y-82562580D01*
X207101891Y-82713647D01*
X207190418Y-82908090D01*
X207243541Y-83095681D01*
X207269684Y-83322820D01*
X207277273Y-83635910D01*
X207277337Y-83679951D01*
X207271513Y-84004654D01*
X207247972Y-84240140D01*
X207197613Y-84434967D01*
X207111332Y-84637693D01*
X207089385Y-84682609D01*
X206874484Y-85029100D01*
X206621004Y-85254382D01*
X206303076Y-85374700D01*
X205936470Y-85406670D01*
X205577764Y-85382378D01*
X205280681Y-85301096D01*
X205153504Y-85244529D01*
X204885577Y-85139617D01*
X204711188Y-85134403D01*
X204628158Y-85229113D01*
X204620000Y-85300476D01*
X204684398Y-85444096D01*
X204859493Y-85574067D01*
X205118137Y-85684119D01*
X205433180Y-85767987D01*
X205777474Y-85819403D01*
X206123870Y-85832099D01*
X206445219Y-85799808D01*
X206606322Y-85759019D01*
X206980551Y-85588305D01*
X207279469Y-85335631D01*
X207528866Y-84977143D01*
X207601033Y-84839017D01*
X207707171Y-84613199D01*
X207774057Y-84428560D01*
X207810559Y-84239930D01*
X207825545Y-84002134D01*
X207827914Y-83683245D01*
X207822865Y-83346926D01*
X207804362Y-83104886D01*
X207764616Y-82913477D01*
X207695835Y-82729051D01*
X207633957Y-82596530D01*
X207475971Y-82331515D01*
X207278637Y-82079215D01*
X207155416Y-81956524D01*
X206799113Y-81725635D01*
X206385390Y-81576522D01*
X205946003Y-81510473D01*
X205512705Y-81528774D01*
X205512705Y-81528774D01*
G37*
X205512705Y-81528774D02*
X205117251Y-81632712D01*
X204791395Y-81823575D01*
X204751240Y-81859073D01*
X204614698Y-82025238D01*
X204591943Y-82155202D01*
X204592542Y-82156807D01*
X204655321Y-82242551D01*
X204766085Y-82255205D01*
X204948240Y-82192116D01*
X205144291Y-82094294D01*
X205560943Y-81943797D01*
X205978430Y-81922394D01*
X206374573Y-82023069D01*
X206727192Y-82238803D01*
X207014109Y-82562580D01*
X207101891Y-82713647D01*
X207190418Y-82908090D01*
X207243541Y-83095681D01*
X207269684Y-83322820D01*
X207277273Y-83635910D01*
X207277337Y-83679951D01*
X207271513Y-84004654D01*
X207247972Y-84240140D01*
X207197613Y-84434967D01*
X207111332Y-84637693D01*
X207089385Y-84682609D01*
X206874484Y-85029100D01*
X206621004Y-85254382D01*
X206303076Y-85374700D01*
X205936470Y-85406670D01*
X205577764Y-85382378D01*
X205280681Y-85301096D01*
X205153504Y-85244529D01*
X204885577Y-85139617D01*
X204711188Y-85134403D01*
X204628158Y-85229113D01*
X204620000Y-85300476D01*
X204684398Y-85444096D01*
X204859493Y-85574067D01*
X205118137Y-85684119D01*
X205433180Y-85767987D01*
X205777474Y-85819403D01*
X206123870Y-85832099D01*
X206445219Y-85799808D01*
X206606322Y-85759019D01*
X206980551Y-85588305D01*
X207279469Y-85335631D01*
X207528866Y-84977143D01*
X207601033Y-84839017D01*
X207707171Y-84613199D01*
X207774057Y-84428560D01*
X207810559Y-84239930D01*
X207825545Y-84002134D01*
X207827914Y-83683245D01*
X207822865Y-83346926D01*
X207804362Y-83104886D01*
X207764616Y-82913477D01*
X207695835Y-82729051D01*
X207633957Y-82596530D01*
X207475971Y-82331515D01*
X207278637Y-82079215D01*
X207155416Y-81956524D01*
X206799113Y-81725635D01*
X206385390Y-81576522D01*
X205946003Y-81510473D01*
X205512705Y-81528774D01*
G36*
X212017755Y-81669922D02*
G01*
X211927595Y-81726403D01*
X211912018Y-81817671D01*
X211897936Y-82027833D01*
X211885936Y-82337741D01*
X211876609Y-82728249D01*
X211870544Y-83180210D01*
X211868339Y-83651346D01*
X211869160Y-84245661D01*
X211873961Y-84715910D01*
X211885105Y-85076059D01*
X211904956Y-85340076D01*
X211935878Y-85521930D01*
X211980235Y-85635587D01*
X212040390Y-85695014D01*
X212118707Y-85714180D01*
X212216258Y-85707235D01*
X212324175Y-85672919D01*
X212379455Y-85583478D01*
X212405234Y-85399070D01*
X212406700Y-85379220D01*
X212428455Y-85075015D01*
X212555255Y-85283520D01*
X212765588Y-85507588D01*
X213072812Y-85678433D01*
X213442949Y-85786767D01*
X213842024Y-85823301D01*
X214236059Y-85778744D01*
X214303485Y-85761492D01*
X214549402Y-85663521D01*
X214773702Y-85527783D01*
X214836558Y-85475074D01*
X214964187Y-85336594D01*
X215063051Y-85182947D01*
X215136325Y-84995619D01*
X215187181Y-84756094D01*
X215218794Y-84445858D01*
X215234337Y-84046395D01*
X215236984Y-83539190D01*
X215233501Y-83159334D01*
X215214837Y-81680164D01*
X215015261Y-81657381D01*
X214847646Y-81669922D01*
X214757486Y-81726403D01*
X214739952Y-81820548D01*
X214724432Y-82030702D01*
X214711781Y-82334834D01*
X214702854Y-82710914D01*
X214698506Y-83136913D01*
X214698231Y-83253158D01*
X214696685Y-83743852D01*
X214691771Y-84117329D01*
X214681850Y-84394403D01*
X214665278Y-84595888D01*
X214640415Y-84742600D01*
X214605618Y-84855353D01*
X214564870Y-84944190D01*
X214409906Y-85175403D01*
X214211815Y-85319478D01*
X213933343Y-85398791D01*
X213774191Y-85419089D01*
X213374655Y-85393757D01*
X213021470Y-85243010D01*
X212733342Y-84976683D01*
X212626521Y-84815806D01*
X212568059Y-84705958D01*
X212523833Y-84597454D01*
X212491236Y-84468614D01*
X212467658Y-84297761D01*
X212450491Y-84063217D01*
X212437127Y-83743303D01*
X212424956Y-83316342D01*
X212419456Y-83095109D01*
X212384945Y-81680164D01*
X212185369Y-81657381D01*
X212017755Y-81669922D01*
X212017755Y-81669922D01*
G37*
X212017755Y-81669922D02*
X211927595Y-81726403D01*
X211912018Y-81817671D01*
X211897936Y-82027833D01*
X211885936Y-82337741D01*
X211876609Y-82728249D01*
X211870544Y-83180210D01*
X211868339Y-83651346D01*
X211869160Y-84245661D01*
X211873961Y-84715910D01*
X211885105Y-85076059D01*
X211904956Y-85340076D01*
X211935878Y-85521930D01*
X211980235Y-85635587D01*
X212040390Y-85695014D01*
X212118707Y-85714180D01*
X212216258Y-85707235D01*
X212324175Y-85672919D01*
X212379455Y-85583478D01*
X212405234Y-85399070D01*
X212406700Y-85379220D01*
X212428455Y-85075015D01*
X212555255Y-85283520D01*
X212765588Y-85507588D01*
X213072812Y-85678433D01*
X213442949Y-85786767D01*
X213842024Y-85823301D01*
X214236059Y-85778744D01*
X214303485Y-85761492D01*
X214549402Y-85663521D01*
X214773702Y-85527783D01*
X214836558Y-85475074D01*
X214964187Y-85336594D01*
X215063051Y-85182947D01*
X215136325Y-84995619D01*
X215187181Y-84756094D01*
X215218794Y-84445858D01*
X215234337Y-84046395D01*
X215236984Y-83539190D01*
X215233501Y-83159334D01*
X215214837Y-81680164D01*
X215015261Y-81657381D01*
X214847646Y-81669922D01*
X214757486Y-81726403D01*
X214739952Y-81820548D01*
X214724432Y-82030702D01*
X214711781Y-82334834D01*
X214702854Y-82710914D01*
X214698506Y-83136913D01*
X214698231Y-83253158D01*
X214696685Y-83743852D01*
X214691771Y-84117329D01*
X214681850Y-84394403D01*
X214665278Y-84595888D01*
X214640415Y-84742600D01*
X214605618Y-84855353D01*
X214564870Y-84944190D01*
X214409906Y-85175403D01*
X214211815Y-85319478D01*
X213933343Y-85398791D01*
X213774191Y-85419089D01*
X213374655Y-85393757D01*
X213021470Y-85243010D01*
X212733342Y-84976683D01*
X212626521Y-84815806D01*
X212568059Y-84705958D01*
X212523833Y-84597454D01*
X212491236Y-84468614D01*
X212467658Y-84297761D01*
X212450491Y-84063217D01*
X212437127Y-83743303D01*
X212424956Y-83316342D01*
X212419456Y-83095109D01*
X212384945Y-81680164D01*
X212185369Y-81657381D01*
X212017755Y-81669922D01*
G36*
X217736879Y-81567210D02*
G01*
X217313111Y-81714733D01*
X216931785Y-81954853D01*
X216613589Y-82287569D01*
X216415582Y-82626612D01*
X216335179Y-82828572D01*
X216285533Y-83028198D01*
X216259865Y-83268995D01*
X216251396Y-83594468D01*
X216251167Y-83681794D01*
X216281489Y-84216986D01*
X216377583Y-84648845D01*
X216547144Y-84999268D01*
X216797867Y-85290153D01*
X216824801Y-85314270D01*
X217237138Y-85590074D01*
X217713506Y-85765768D01*
X218216588Y-85832792D01*
X218709067Y-85782586D01*
X218783039Y-85763482D01*
X219257880Y-85564341D01*
X219643029Y-85264602D01*
X219933213Y-84872889D01*
X220123161Y-84397823D01*
X220207600Y-83848029D01*
X220206279Y-83742898D01*
X219662723Y-83742898D01*
X219614535Y-84177970D01*
X219484357Y-84583391D01*
X219268871Y-84933668D01*
X219182447Y-85028858D01*
X218838592Y-85288734D01*
X218454446Y-85418262D01*
X218024726Y-85418697D01*
X217768641Y-85364806D01*
X217426435Y-85201701D01*
X217147175Y-84928559D01*
X216939981Y-84562458D01*
X216813973Y-84120479D01*
X216778269Y-83619700D01*
X216782527Y-83517980D01*
X216861835Y-83015472D01*
X217030073Y-82591005D01*
X217278942Y-82258555D01*
X217600142Y-82032097D01*
X217686857Y-81995152D01*
X217957840Y-81936966D01*
X218288046Y-81926354D01*
X218607583Y-81962062D01*
X218790007Y-82014991D01*
X219101974Y-82215940D01*
X219348548Y-82514696D01*
X219526411Y-82885770D01*
X219632242Y-83303668D01*
X219662723Y-83742898D01*
X220206279Y-83742898D01*
X220202495Y-83441780D01*
X220157724Y-83130483D01*
X220077334Y-82808358D01*
X220012171Y-82626612D01*
X219768222Y-82218553D01*
X219442582Y-81903090D01*
X219055939Y-81680225D01*
X218628981Y-81549956D01*
X218182398Y-81512285D01*
X217736879Y-81567210D01*
X217736879Y-81567210D01*
G37*
X217736879Y-81567210D02*
X217313111Y-81714733D01*
X216931785Y-81954853D01*
X216613589Y-82287569D01*
X216415582Y-82626612D01*
X216335179Y-82828572D01*
X216285533Y-83028198D01*
X216259865Y-83268995D01*
X216251396Y-83594468D01*
X216251167Y-83681794D01*
X216281489Y-84216986D01*
X216377583Y-84648845D01*
X216547144Y-84999268D01*
X216797867Y-85290153D01*
X216824801Y-85314270D01*
X217237138Y-85590074D01*
X217713506Y-85765768D01*
X218216588Y-85832792D01*
X218709067Y-85782586D01*
X218783039Y-85763482D01*
X219257880Y-85564341D01*
X219643029Y-85264602D01*
X219933213Y-84872889D01*
X220123161Y-84397823D01*
X220207600Y-83848029D01*
X220206279Y-83742898D01*
X219662723Y-83742898D01*
X219614535Y-84177970D01*
X219484357Y-84583391D01*
X219268871Y-84933668D01*
X219182447Y-85028858D01*
X218838592Y-85288734D01*
X218454446Y-85418262D01*
X218024726Y-85418697D01*
X217768641Y-85364806D01*
X217426435Y-85201701D01*
X217147175Y-84928559D01*
X216939981Y-84562458D01*
X216813973Y-84120479D01*
X216778269Y-83619700D01*
X216782527Y-83517980D01*
X216861835Y-83015472D01*
X217030073Y-82591005D01*
X217278942Y-82258555D01*
X217600142Y-82032097D01*
X217686857Y-81995152D01*
X217957840Y-81936966D01*
X218288046Y-81926354D01*
X218607583Y-81962062D01*
X218790007Y-82014991D01*
X219101974Y-82215940D01*
X219348548Y-82514696D01*
X219526411Y-82885770D01*
X219632242Y-83303668D01*
X219662723Y-83742898D01*
X220206279Y-83742898D01*
X220202495Y-83441780D01*
X220157724Y-83130483D01*
X220077334Y-82808358D01*
X220012171Y-82626612D01*
X219768222Y-82218553D01*
X219442582Y-81903090D01*
X219055939Y-81680225D01*
X218628981Y-81549956D01*
X218182398Y-81512285D01*
X217736879Y-81567210D01*
G36*
X225796217Y-79863044D02*
G01*
X225637119Y-79885598D01*
X225637119Y-85683424D01*
X225796217Y-85705978D01*
X225995897Y-85679308D01*
X226120033Y-85543322D01*
X226154782Y-85356344D01*
X226154782Y-85149698D01*
X226426756Y-85395411D01*
X226808342Y-85651717D01*
X227248831Y-85800703D01*
X227710493Y-85832772D01*
X227983858Y-85791439D01*
X228422721Y-85618970D01*
X228779946Y-85338705D01*
X229051517Y-84957003D01*
X229233416Y-84480221D01*
X229321628Y-83914716D01*
X229327629Y-83728007D01*
X228788342Y-83728007D01*
X228788272Y-83748565D01*
X228739150Y-84260801D01*
X228605199Y-84691779D01*
X228397238Y-85032567D01*
X228126085Y-85274237D01*
X227802562Y-85407858D01*
X227437486Y-85424501D01*
X227041678Y-85315236D01*
X226944829Y-85270049D01*
X226605313Y-85031501D01*
X226362741Y-84703991D01*
X226215130Y-84282993D01*
X226160494Y-83763984D01*
X226165875Y-83494134D01*
X226240246Y-82972832D01*
X226401672Y-82553510D01*
X226647640Y-82239284D01*
X226975635Y-82033272D01*
X227383144Y-81938590D01*
X227422715Y-81935692D01*
X227684461Y-81929553D01*
X227866718Y-81958368D01*
X228026065Y-82033823D01*
X228085749Y-82072634D01*
X228399972Y-82356114D01*
X228618995Y-82719784D01*
X228747044Y-83173722D01*
X228788342Y-83728007D01*
X229327629Y-83728007D01*
X229329782Y-83661061D01*
X229278370Y-83073897D01*
X229127802Y-82569935D01*
X228883583Y-82156128D01*
X228551218Y-81839427D01*
X228136211Y-81626786D01*
X227644066Y-81525156D01*
X227638278Y-81524684D01*
X227215845Y-81544117D01*
X226815751Y-81660217D01*
X226477683Y-81858454D01*
X226325744Y-82005242D01*
X226154782Y-82208418D01*
X226154782Y-81107226D01*
X226152001Y-80654397D01*
X226140334Y-80322256D01*
X226114795Y-80093500D01*
X226070398Y-79950830D01*
X226002156Y-79876943D01*
X225905084Y-79854538D01*
X225796217Y-79863044D01*
X225796217Y-79863044D01*
G37*
X225796217Y-79863044D02*
X225637119Y-79885598D01*
X225637119Y-85683424D01*
X225796217Y-85705978D01*
X225995897Y-85679308D01*
X226120033Y-85543322D01*
X226154782Y-85356344D01*
X226154782Y-85149698D01*
X226426756Y-85395411D01*
X226808342Y-85651717D01*
X227248831Y-85800703D01*
X227710493Y-85832772D01*
X227983858Y-85791439D01*
X228422721Y-85618970D01*
X228779946Y-85338705D01*
X229051517Y-84957003D01*
X229233416Y-84480221D01*
X229321628Y-83914716D01*
X229327629Y-83728007D01*
X228788342Y-83728007D01*
X228788272Y-83748565D01*
X228739150Y-84260801D01*
X228605199Y-84691779D01*
X228397238Y-85032567D01*
X228126085Y-85274237D01*
X227802562Y-85407858D01*
X227437486Y-85424501D01*
X227041678Y-85315236D01*
X226944829Y-85270049D01*
X226605313Y-85031501D01*
X226362741Y-84703991D01*
X226215130Y-84282993D01*
X226160494Y-83763984D01*
X226165875Y-83494134D01*
X226240246Y-82972832D01*
X226401672Y-82553510D01*
X226647640Y-82239284D01*
X226975635Y-82033272D01*
X227383144Y-81938590D01*
X227422715Y-81935692D01*
X227684461Y-81929553D01*
X227866718Y-81958368D01*
X228026065Y-82033823D01*
X228085749Y-82072634D01*
X228399972Y-82356114D01*
X228618995Y-82719784D01*
X228747044Y-83173722D01*
X228788342Y-83728007D01*
X229327629Y-83728007D01*
X229329782Y-83661061D01*
X229278370Y-83073897D01*
X229127802Y-82569935D01*
X228883583Y-82156128D01*
X228551218Y-81839427D01*
X228136211Y-81626786D01*
X227644066Y-81525156D01*
X227638278Y-81524684D01*
X227215845Y-81544117D01*
X226815751Y-81660217D01*
X226477683Y-81858454D01*
X226325744Y-82005242D01*
X226154782Y-82208418D01*
X226154782Y-81107226D01*
X226152001Y-80654397D01*
X226140334Y-80322256D01*
X226114795Y-80093500D01*
X226070398Y-79950830D01*
X226002156Y-79876943D01*
X225905084Y-79854538D01*
X225796217Y-79863044D01*
G36*
X234198830Y-81590602D02*
G01*
X233880941Y-81731011D01*
X233747833Y-81828244D01*
X233611764Y-81949746D01*
X233506566Y-82069877D01*
X233427856Y-82208209D01*
X233371251Y-82384314D01*
X233332365Y-82617764D01*
X233306817Y-82928131D01*
X233290222Y-83334987D01*
X233278196Y-83857905D01*
X233276817Y-83931258D01*
X233268491Y-84474837D01*
X233268080Y-84895947D01*
X233278485Y-85210071D01*
X233302608Y-85432693D01*
X233343349Y-85579294D01*
X233403608Y-85665359D01*
X233486287Y-85706371D01*
X233594287Y-85717812D01*
X233611559Y-85717935D01*
X233731487Y-85710553D01*
X233792064Y-85664993D01*
X233813546Y-85546132D01*
X233816195Y-85363109D01*
X233816195Y-85008283D01*
X234097038Y-85327336D01*
X234336916Y-85558661D01*
X234588530Y-85701908D01*
X234730761Y-85751184D01*
X234983569Y-85817944D01*
X235188275Y-85842761D01*
X235407559Y-85827712D01*
X235667065Y-85782219D01*
X236081929Y-85648044D01*
X236386983Y-85430264D01*
X236582529Y-85128527D01*
X236668870Y-84742482D01*
X236673525Y-84613587D01*
X236667265Y-84556676D01*
X236162934Y-84556676D01*
X236116470Y-84892367D01*
X235970869Y-85138978D01*
X235716821Y-85312249D01*
X235715699Y-85312760D01*
X235327578Y-85426736D01*
X234948266Y-85406215D01*
X234729458Y-85335021D01*
X234360287Y-85109539D01*
X234081489Y-84783945D01*
X233899788Y-84367940D01*
X233835994Y-84045822D01*
X233794392Y-83694564D01*
X234523385Y-83741694D01*
X235066555Y-83790752D01*
X235485163Y-83863213D01*
X235791607Y-83965241D01*
X235998288Y-84103000D01*
X236117604Y-84282653D01*
X236161955Y-84510363D01*
X236162934Y-84556676D01*
X236667265Y-84556676D01*
X236630091Y-84218760D01*
X236495584Y-83921436D01*
X236263696Y-83710168D01*
X236140779Y-83646539D01*
X235857286Y-83553907D01*
X235475911Y-83474321D01*
X235036633Y-83413742D01*
X234579430Y-83378131D01*
X234294353Y-83371196D01*
X233816195Y-83371196D01*
X233816453Y-82974321D01*
X233866247Y-82571396D01*
X234016172Y-82261962D01*
X234267928Y-82042729D01*
X234308636Y-82020469D01*
X234552249Y-81949874D01*
X234881395Y-81929435D01*
X235254163Y-81956266D01*
X235628642Y-82027476D01*
X235947397Y-82133425D01*
X236156903Y-82220023D01*
X236278282Y-82253153D01*
X236349601Y-82235295D01*
X236408932Y-82168928D01*
X236412739Y-82163735D01*
X236470346Y-82047185D01*
X236422802Y-81943133D01*
X236396979Y-81913417D01*
X236203059Y-81777782D01*
X235898769Y-81662853D01*
X235511197Y-81576620D01*
X235093098Y-81528730D01*
X234595764Y-81524760D01*
X234198830Y-81590602D01*
X234198830Y-81590602D01*
G37*
X234198830Y-81590602D02*
X233880941Y-81731011D01*
X233747833Y-81828244D01*
X233611764Y-81949746D01*
X233506566Y-82069877D01*
X233427856Y-82208209D01*
X233371251Y-82384314D01*
X233332365Y-82617764D01*
X233306817Y-82928131D01*
X233290222Y-83334987D01*
X233278196Y-83857905D01*
X233276817Y-83931258D01*
X233268491Y-84474837D01*
X233268080Y-84895947D01*
X233278485Y-85210071D01*
X233302608Y-85432693D01*
X233343349Y-85579294D01*
X233403608Y-85665359D01*
X233486287Y-85706371D01*
X233594287Y-85717812D01*
X233611559Y-85717935D01*
X233731487Y-85710553D01*
X233792064Y-85664993D01*
X233813546Y-85546132D01*
X233816195Y-85363109D01*
X233816195Y-85008283D01*
X234097038Y-85327336D01*
X234336916Y-85558661D01*
X234588530Y-85701908D01*
X234730761Y-85751184D01*
X234983569Y-85817944D01*
X235188275Y-85842761D01*
X235407559Y-85827712D01*
X235667065Y-85782219D01*
X236081929Y-85648044D01*
X236386983Y-85430264D01*
X236582529Y-85128527D01*
X236668870Y-84742482D01*
X236673525Y-84613587D01*
X236667265Y-84556676D01*
X236162934Y-84556676D01*
X236116470Y-84892367D01*
X235970869Y-85138978D01*
X235716821Y-85312249D01*
X235715699Y-85312760D01*
X235327578Y-85426736D01*
X234948266Y-85406215D01*
X234729458Y-85335021D01*
X234360287Y-85109539D01*
X234081489Y-84783945D01*
X233899788Y-84367940D01*
X233835994Y-84045822D01*
X233794392Y-83694564D01*
X234523385Y-83741694D01*
X235066555Y-83790752D01*
X235485163Y-83863213D01*
X235791607Y-83965241D01*
X235998288Y-84103000D01*
X236117604Y-84282653D01*
X236161955Y-84510363D01*
X236162934Y-84556676D01*
X236667265Y-84556676D01*
X236630091Y-84218760D01*
X236495584Y-83921436D01*
X236263696Y-83710168D01*
X236140779Y-83646539D01*
X235857286Y-83553907D01*
X235475911Y-83474321D01*
X235036633Y-83413742D01*
X234579430Y-83378131D01*
X234294353Y-83371196D01*
X233816195Y-83371196D01*
X233816453Y-82974321D01*
X233866247Y-82571396D01*
X234016172Y-82261962D01*
X234267928Y-82042729D01*
X234308636Y-82020469D01*
X234552249Y-81949874D01*
X234881395Y-81929435D01*
X235254163Y-81956266D01*
X235628642Y-82027476D01*
X235947397Y-82133425D01*
X236156903Y-82220023D01*
X236278282Y-82253153D01*
X236349601Y-82235295D01*
X236408932Y-82168928D01*
X236412739Y-82163735D01*
X236470346Y-82047185D01*
X236422802Y-81943133D01*
X236396979Y-81913417D01*
X236203059Y-81777782D01*
X235898769Y-81662853D01*
X235511197Y-81576620D01*
X235093098Y-81528730D01*
X234595764Y-81524760D01*
X234198830Y-81590602D01*
G36*
X238745044Y-81573043D02*
G01*
X238573967Y-81617641D01*
X238189099Y-81796947D01*
X237840779Y-82083797D01*
X237558628Y-82447865D01*
X237377154Y-82842996D01*
X237281703Y-83312452D01*
X237272051Y-83806062D01*
X237341728Y-84291805D01*
X237484266Y-84737660D01*
X237693195Y-85111606D01*
X237876432Y-85314270D01*
X238288769Y-85590074D01*
X238765136Y-85765768D01*
X239268219Y-85832792D01*
X239760698Y-85782586D01*
X239834669Y-85763482D01*
X240309276Y-85564367D01*
X240694389Y-85264822D01*
X240984461Y-84874000D01*
X241173947Y-84401055D01*
X241257301Y-83855141D01*
X241253475Y-83656921D01*
X240683228Y-83656921D01*
X240683223Y-83681794D01*
X240677421Y-84002445D01*
X240654796Y-84232080D01*
X240606354Y-84417502D01*
X240523095Y-84605516D01*
X240495320Y-84659296D01*
X240232058Y-85032542D01*
X239902264Y-85286522D01*
X239515559Y-85417106D01*
X239081565Y-85420167D01*
X238839670Y-85369789D01*
X238489740Y-85204245D01*
X238186429Y-84925536D01*
X238006239Y-84656671D01*
X237932735Y-84496750D01*
X237886913Y-84325440D01*
X237862778Y-84104363D01*
X237854336Y-83795141D01*
X237853967Y-83681794D01*
X237871696Y-83235728D01*
X237933223Y-82890466D01*
X238051064Y-82612361D01*
X238237730Y-82367766D01*
X238400599Y-82211951D01*
X238680130Y-82028216D01*
X239008733Y-81937608D01*
X239417185Y-81932335D01*
X239482573Y-81937971D01*
X239861725Y-82041003D01*
X240188553Y-82269079D01*
X240455979Y-82616828D01*
X240511304Y-82719015D01*
X240598812Y-82914530D01*
X240651089Y-83104960D01*
X240676454Y-83336894D01*
X240683228Y-83656921D01*
X241253475Y-83656921D01*
X241249076Y-83429017D01*
X241143311Y-82875554D01*
X240933266Y-82404457D01*
X240631118Y-82023970D01*
X240249045Y-81742340D01*
X239799223Y-81567812D01*
X239293831Y-81508631D01*
X238745044Y-81573043D01*
X238745044Y-81573043D01*
G37*
X238745044Y-81573043D02*
X238573967Y-81617641D01*
X238189099Y-81796947D01*
X237840779Y-82083797D01*
X237558628Y-82447865D01*
X237377154Y-82842996D01*
X237281703Y-83312452D01*
X237272051Y-83806062D01*
X237341728Y-84291805D01*
X237484266Y-84737660D01*
X237693195Y-85111606D01*
X237876432Y-85314270D01*
X238288769Y-85590074D01*
X238765136Y-85765768D01*
X239268219Y-85832792D01*
X239760698Y-85782586D01*
X239834669Y-85763482D01*
X240309276Y-85564367D01*
X240694389Y-85264822D01*
X240984461Y-84874000D01*
X241173947Y-84401055D01*
X241257301Y-83855141D01*
X241253475Y-83656921D01*
X240683228Y-83656921D01*
X240683223Y-83681794D01*
X240677421Y-84002445D01*
X240654796Y-84232080D01*
X240606354Y-84417502D01*
X240523095Y-84605516D01*
X240495320Y-84659296D01*
X240232058Y-85032542D01*
X239902264Y-85286522D01*
X239515559Y-85417106D01*
X239081565Y-85420167D01*
X238839670Y-85369789D01*
X238489740Y-85204245D01*
X238186429Y-84925536D01*
X238006239Y-84656671D01*
X237932735Y-84496750D01*
X237886913Y-84325440D01*
X237862778Y-84104363D01*
X237854336Y-83795141D01*
X237853967Y-83681794D01*
X237871696Y-83235728D01*
X237933223Y-82890466D01*
X238051064Y-82612361D01*
X238237730Y-82367766D01*
X238400599Y-82211951D01*
X238680130Y-82028216D01*
X239008733Y-81937608D01*
X239417185Y-81932335D01*
X239482573Y-81937971D01*
X239861725Y-82041003D01*
X240188553Y-82269079D01*
X240455979Y-82616828D01*
X240511304Y-82719015D01*
X240598812Y-82914530D01*
X240651089Y-83104960D01*
X240676454Y-83336894D01*
X240683228Y-83656921D01*
X241253475Y-83656921D01*
X241249076Y-83429017D01*
X241143311Y-82875554D01*
X240933266Y-82404457D01*
X240631118Y-82023970D01*
X240249045Y-81742340D01*
X239799223Y-81567812D01*
X239293831Y-81508631D01*
X238745044Y-81573043D01*
G36*
X254317011Y-77733498D02*
G01*
X253806339Y-77802884D01*
X253324257Y-77932481D01*
X252818484Y-78134177D01*
X252597120Y-78238052D01*
X252274551Y-78404136D01*
X252010252Y-78568205D01*
X251761226Y-78761646D01*
X251484477Y-79015852D01*
X251347774Y-79150137D01*
X250814585Y-79744495D01*
X250408525Y-80349069D01*
X250119284Y-80986987D01*
X249936551Y-81681378D01*
X249850018Y-82455370D01*
X249847150Y-82516523D01*
X249843369Y-83160805D01*
X249898353Y-83722856D01*
X250021473Y-84249346D01*
X250222099Y-84786947D01*
X250365201Y-85096740D01*
X250525841Y-85409216D01*
X250682397Y-85665047D01*
X250864211Y-85904081D01*
X251100626Y-86166164D01*
X251311687Y-86382033D01*
X251608642Y-86671791D01*
X251854244Y-86886330D01*
X252087691Y-87054627D01*
X252348182Y-87205655D01*
X252592305Y-87328628D01*
X252924675Y-87478370D01*
X253269950Y-87615073D01*
X253574218Y-87718095D01*
X253694456Y-87750603D01*
X254117491Y-87818250D01*
X254622653Y-87850760D01*
X255159419Y-87848774D01*
X255677264Y-87812930D01*
X256125666Y-87743865D01*
X256232419Y-87718524D01*
X256918452Y-87484367D01*
X257547346Y-87150851D01*
X258144082Y-86703152D01*
X258494232Y-86376407D01*
X259033442Y-85766096D01*
X259443332Y-85135604D01*
X259731583Y-84466310D01*
X259905875Y-83739588D01*
X259973886Y-82936817D01*
X259974376Y-82888547D01*
X259047364Y-82888547D01*
X259022244Y-83345706D01*
X258962275Y-83744195D01*
X258913617Y-83923370D01*
X258596744Y-84663011D01*
X258180222Y-85313098D01*
X257670523Y-85867125D01*
X257074122Y-86318587D01*
X256397491Y-86660978D01*
X256075706Y-86775500D01*
X255369190Y-86928200D01*
X254657358Y-86943596D01*
X253953691Y-86826800D01*
X253217066Y-86571835D01*
X252559182Y-86206531D01*
X251987137Y-85736691D01*
X251508029Y-85168117D01*
X251137171Y-84524267D01*
X250875318Y-83813747D01*
X250751267Y-83096564D01*
X250764995Y-82373821D01*
X250916479Y-81646619D01*
X251205695Y-80916063D01*
X251212720Y-80901760D01*
X251593693Y-80282701D01*
X252084284Y-79742933D01*
X252676945Y-79288752D01*
X253364128Y-78926452D01*
X253763478Y-78774043D01*
X254073250Y-78703212D01*
X254471960Y-78659304D01*
X254913011Y-78643059D01*
X255349804Y-78655219D01*
X255735739Y-78696524D01*
X255937663Y-78739467D01*
X256163942Y-78817585D01*
X256456714Y-78939064D01*
X256761424Y-79080902D01*
X256834945Y-79117803D01*
X257451495Y-79509112D01*
X257985604Y-80008893D01*
X258432789Y-80611692D01*
X258788565Y-81312054D01*
X258913617Y-81645653D01*
X258993050Y-81990460D01*
X259037632Y-82420778D01*
X259047364Y-82888547D01*
X259974376Y-82888547D01*
X259975434Y-82784511D01*
X259925538Y-81966248D01*
X259770729Y-81227351D01*
X259503327Y-80549195D01*
X259115654Y-79913158D01*
X258600028Y-79300617D01*
X258494232Y-79192616D01*
X257881231Y-78651467D01*
X257247571Y-78240484D01*
X256575059Y-77952159D01*
X255845505Y-77778981D01*
X255040717Y-77713441D01*
X254908551Y-77712434D01*
X254317011Y-77733498D01*
X254317011Y-77733498D01*
G37*
X254317011Y-77733498D02*
X253806339Y-77802884D01*
X253324257Y-77932481D01*
X252818484Y-78134177D01*
X252597120Y-78238052D01*
X252274551Y-78404136D01*
X252010252Y-78568205D01*
X251761226Y-78761646D01*
X251484477Y-79015852D01*
X251347774Y-79150137D01*
X250814585Y-79744495D01*
X250408525Y-80349069D01*
X250119284Y-80986987D01*
X249936551Y-81681378D01*
X249850018Y-82455370D01*
X249847150Y-82516523D01*
X249843369Y-83160805D01*
X249898353Y-83722856D01*
X250021473Y-84249346D01*
X250222099Y-84786947D01*
X250365201Y-85096740D01*
X250525841Y-85409216D01*
X250682397Y-85665047D01*
X250864211Y-85904081D01*
X251100626Y-86166164D01*
X251311687Y-86382033D01*
X251608642Y-86671791D01*
X251854244Y-86886330D01*
X252087691Y-87054627D01*
X252348182Y-87205655D01*
X252592305Y-87328628D01*
X252924675Y-87478370D01*
X253269950Y-87615073D01*
X253574218Y-87718095D01*
X253694456Y-87750603D01*
X254117491Y-87818250D01*
X254622653Y-87850760D01*
X255159419Y-87848774D01*
X255677264Y-87812930D01*
X256125666Y-87743865D01*
X256232419Y-87718524D01*
X256918452Y-87484367D01*
X257547346Y-87150851D01*
X258144082Y-86703152D01*
X258494232Y-86376407D01*
X259033442Y-85766096D01*
X259443332Y-85135604D01*
X259731583Y-84466310D01*
X259905875Y-83739588D01*
X259973886Y-82936817D01*
X259974376Y-82888547D01*
X259047364Y-82888547D01*
X259022244Y-83345706D01*
X258962275Y-83744195D01*
X258913617Y-83923370D01*
X258596744Y-84663011D01*
X258180222Y-85313098D01*
X257670523Y-85867125D01*
X257074122Y-86318587D01*
X256397491Y-86660978D01*
X256075706Y-86775500D01*
X255369190Y-86928200D01*
X254657358Y-86943596D01*
X253953691Y-86826800D01*
X253217066Y-86571835D01*
X252559182Y-86206531D01*
X251987137Y-85736691D01*
X251508029Y-85168117D01*
X251137171Y-84524267D01*
X250875318Y-83813747D01*
X250751267Y-83096564D01*
X250764995Y-82373821D01*
X250916479Y-81646619D01*
X251205695Y-80916063D01*
X251212720Y-80901760D01*
X251593693Y-80282701D01*
X252084284Y-79742933D01*
X252676945Y-79288752D01*
X253364128Y-78926452D01*
X253763478Y-78774043D01*
X254073250Y-78703212D01*
X254471960Y-78659304D01*
X254913011Y-78643059D01*
X255349804Y-78655219D01*
X255735739Y-78696524D01*
X255937663Y-78739467D01*
X256163942Y-78817585D01*
X256456714Y-78939064D01*
X256761424Y-79080902D01*
X256834945Y-79117803D01*
X257451495Y-79509112D01*
X257985604Y-80008893D01*
X258432789Y-80611692D01*
X258788565Y-81312054D01*
X258913617Y-81645653D01*
X258993050Y-81990460D01*
X259037632Y-82420778D01*
X259047364Y-82888547D01*
X259974376Y-82888547D01*
X259975434Y-82784511D01*
X259925538Y-81966248D01*
X259770729Y-81227351D01*
X259503327Y-80549195D01*
X259115654Y-79913158D01*
X258600028Y-79300617D01*
X258494232Y-79192616D01*
X257881231Y-78651467D01*
X257247571Y-78240484D01*
X256575059Y-77952159D01*
X255845505Y-77778981D01*
X255040717Y-77713441D01*
X254908551Y-77712434D01*
X254317011Y-77733498D01*
D11*
G36*
X82199239Y-97115032D02*
G01*
X82326934Y-97140432D01*
X82536403Y-97227197D01*
X82724920Y-97353160D01*
X82885240Y-97513480D01*
X83011203Y-97701997D01*
X83011204Y-97701999D01*
X83097968Y-97911467D01*
X83137148Y-98108435D01*
X83142200Y-98133836D01*
X83142200Y-98360564D01*
X83097968Y-98582934D01*
X83011203Y-98792403D01*
X82885240Y-98980920D01*
X82724920Y-99141240D01*
X82536403Y-99267203D01*
X82326934Y-99353968D01*
X82232259Y-99372800D01*
X82104565Y-99398200D01*
X81877835Y-99398200D01*
X81750141Y-99372800D01*
X81655466Y-99353968D01*
X81445997Y-99267203D01*
X81257480Y-99141240D01*
X81097160Y-98980920D01*
X80971197Y-98792403D01*
X80884432Y-98582934D01*
X80840200Y-98360564D01*
X80840200Y-98133836D01*
X80845253Y-98108435D01*
X80884432Y-97911467D01*
X80971196Y-97701999D01*
X80971197Y-97701997D01*
X81097160Y-97513480D01*
X81257480Y-97353160D01*
X81445997Y-97227197D01*
X81655466Y-97140432D01*
X81783161Y-97115032D01*
X81877835Y-97096200D01*
X82104565Y-97096200D01*
X82199239Y-97115032D01*
X82199239Y-97115032D01*
G37*
G36*
X270404349Y-97092916D02*
G01*
X270515534Y-97115032D01*
X270725003Y-97201797D01*
X270913520Y-97327760D01*
X271073840Y-97488080D01*
X271199803Y-97676597D01*
X271286568Y-97886066D01*
X271308684Y-97997251D01*
X271330800Y-98108435D01*
X271330800Y-98335165D01*
X271308684Y-98446349D01*
X271286568Y-98557534D01*
X271199803Y-98767003D01*
X271073840Y-98955520D01*
X270913520Y-99115840D01*
X270725003Y-99241803D01*
X270515534Y-99328568D01*
X270404349Y-99350684D01*
X270293165Y-99372800D01*
X270066435Y-99372800D01*
X269955251Y-99350684D01*
X269844066Y-99328568D01*
X269634597Y-99241803D01*
X269446080Y-99115840D01*
X269285760Y-98955520D01*
X269159797Y-98767003D01*
X269073032Y-98557534D01*
X269050916Y-98446349D01*
X269028800Y-98335165D01*
X269028800Y-98108435D01*
X269050916Y-97997251D01*
X269073032Y-97886066D01*
X269159797Y-97676597D01*
X269285760Y-97488080D01*
X269446080Y-97327760D01*
X269634597Y-97201797D01*
X269844066Y-97115032D01*
X269955251Y-97092916D01*
X270066435Y-97070800D01*
X270293165Y-97070800D01*
X270404349Y-97092916D01*
X270404349Y-97092916D01*
G37*
G36*
X208047349Y-97092916D02*
G01*
X208158534Y-97115032D01*
X208368003Y-97201797D01*
X208556520Y-97327760D01*
X208716840Y-97488080D01*
X208842803Y-97676597D01*
X208929568Y-97886066D01*
X208951684Y-97997251D01*
X208973800Y-98108435D01*
X208973800Y-98335165D01*
X208951684Y-98446349D01*
X208929568Y-98557534D01*
X208842803Y-98767003D01*
X208716840Y-98955520D01*
X208556520Y-99115840D01*
X208368003Y-99241803D01*
X208158534Y-99328568D01*
X208047349Y-99350684D01*
X207936165Y-99372800D01*
X207709435Y-99372800D01*
X207598251Y-99350684D01*
X207487066Y-99328568D01*
X207277597Y-99241803D01*
X207089080Y-99115840D01*
X206928760Y-98955520D01*
X206802797Y-98767003D01*
X206716032Y-98557534D01*
X206693916Y-98446349D01*
X206671800Y-98335165D01*
X206671800Y-98108435D01*
X206693916Y-97997251D01*
X206716032Y-97886066D01*
X206802797Y-97676597D01*
X206928760Y-97488080D01*
X207089080Y-97327760D01*
X207277597Y-97201797D01*
X207487066Y-97115032D01*
X207598251Y-97092916D01*
X207709435Y-97070800D01*
X207936165Y-97070800D01*
X208047349Y-97092916D01*
X208047349Y-97092916D01*
G37*
G36*
X145156949Y-97092916D02*
G01*
X145268134Y-97115032D01*
X145477603Y-97201797D01*
X145666120Y-97327760D01*
X145826440Y-97488080D01*
X145952403Y-97676597D01*
X146039168Y-97886066D01*
X146061284Y-97997251D01*
X146083400Y-98108435D01*
X146083400Y-98335165D01*
X146061284Y-98446349D01*
X146039168Y-98557534D01*
X145952403Y-98767003D01*
X145826440Y-98955520D01*
X145666120Y-99115840D01*
X145477603Y-99241803D01*
X145268134Y-99328568D01*
X145156949Y-99350684D01*
X145045765Y-99372800D01*
X144819035Y-99372800D01*
X144707851Y-99350684D01*
X144596666Y-99328568D01*
X144387197Y-99241803D01*
X144198680Y-99115840D01*
X144038360Y-98955520D01*
X143912397Y-98767003D01*
X143825632Y-98557534D01*
X143803516Y-98446349D01*
X143781400Y-98335165D01*
X143781400Y-98108435D01*
X143803516Y-97997251D01*
X143825632Y-97886066D01*
X143912397Y-97676597D01*
X144038360Y-97488080D01*
X144198680Y-97327760D01*
X144387197Y-97201797D01*
X144596666Y-97115032D01*
X144707851Y-97092916D01*
X144819035Y-97070800D01*
X145045765Y-97070800D01*
X145156949Y-97092916D01*
X145156949Y-97092916D01*
G37*
G36*
X19884149Y-97092916D02*
G01*
X19995334Y-97115032D01*
X20204803Y-97201797D01*
X20393320Y-97327760D01*
X20553640Y-97488080D01*
X20679603Y-97676597D01*
X20766368Y-97886066D01*
X20788484Y-97997251D01*
X20810600Y-98108435D01*
X20810600Y-98335165D01*
X20788484Y-98446349D01*
X20766368Y-98557534D01*
X20679603Y-98767003D01*
X20553640Y-98955520D01*
X20393320Y-99115840D01*
X20204803Y-99241803D01*
X19995334Y-99328568D01*
X19884149Y-99350684D01*
X19772965Y-99372800D01*
X19546235Y-99372800D01*
X19435051Y-99350684D01*
X19323866Y-99328568D01*
X19114397Y-99241803D01*
X18925880Y-99115840D01*
X18765560Y-98955520D01*
X18639597Y-98767003D01*
X18552832Y-98557534D01*
X18530716Y-98446349D01*
X18508600Y-98335165D01*
X18508600Y-98108435D01*
X18530716Y-97997251D01*
X18552832Y-97886066D01*
X18639597Y-97676597D01*
X18765560Y-97488080D01*
X18925880Y-97327760D01*
X19114397Y-97201797D01*
X19323866Y-97115032D01*
X19435051Y-97092916D01*
X19546235Y-97070800D01*
X19772965Y-97070800D01*
X19884149Y-97092916D01*
X19884149Y-97092916D01*
G37*
G36*
X82148439Y-57592632D02*
G01*
X82276134Y-57618032D01*
X82485603Y-57704797D01*
X82674120Y-57830760D01*
X82834440Y-57991080D01*
X82960403Y-58179597D01*
X82960404Y-58179599D01*
X83047168Y-58389067D01*
X83086348Y-58586035D01*
X83091400Y-58611436D01*
X83091400Y-58838164D01*
X83047168Y-59060534D01*
X82960403Y-59270003D01*
X82834440Y-59458520D01*
X82674120Y-59618840D01*
X82485603Y-59744803D01*
X82276134Y-59831568D01*
X82181459Y-59850400D01*
X82053765Y-59875800D01*
X81827035Y-59875800D01*
X81699341Y-59850400D01*
X81604666Y-59831568D01*
X81395197Y-59744803D01*
X81206680Y-59618840D01*
X81046360Y-59458520D01*
X80920397Y-59270003D01*
X80833632Y-59060534D01*
X80789400Y-58838164D01*
X80789400Y-58611436D01*
X80794453Y-58586035D01*
X80833632Y-58389067D01*
X80920396Y-58179599D01*
X80920397Y-58179597D01*
X81046360Y-57991080D01*
X81206680Y-57830760D01*
X81395197Y-57704797D01*
X81604666Y-57618032D01*
X81732361Y-57592632D01*
X81827035Y-57573800D01*
X82053765Y-57573800D01*
X82148439Y-57592632D01*
X82148439Y-57592632D01*
G37*
G36*
X207996549Y-57570516D02*
G01*
X208107734Y-57592632D01*
X208317203Y-57679397D01*
X208505720Y-57805360D01*
X208666040Y-57965680D01*
X208792003Y-58154197D01*
X208878768Y-58363666D01*
X208900884Y-58474851D01*
X208923000Y-58586035D01*
X208923000Y-58812765D01*
X208900884Y-58923949D01*
X208878768Y-59035134D01*
X208792003Y-59244603D01*
X208666040Y-59433120D01*
X208505720Y-59593440D01*
X208317203Y-59719403D01*
X208107734Y-59806168D01*
X207996549Y-59828284D01*
X207885365Y-59850400D01*
X207658635Y-59850400D01*
X207547451Y-59828284D01*
X207436266Y-59806168D01*
X207226797Y-59719403D01*
X207038280Y-59593440D01*
X206877960Y-59433120D01*
X206751997Y-59244603D01*
X206665232Y-59035134D01*
X206643116Y-58923949D01*
X206621000Y-58812765D01*
X206621000Y-58586035D01*
X206643116Y-58474851D01*
X206665232Y-58363666D01*
X206751997Y-58154197D01*
X206877960Y-57965680D01*
X207038280Y-57805360D01*
X207226797Y-57679397D01*
X207436266Y-57592632D01*
X207547451Y-57570516D01*
X207658635Y-57548400D01*
X207885365Y-57548400D01*
X207996549Y-57570516D01*
X207996549Y-57570516D01*
G37*
G36*
X145106149Y-57570516D02*
G01*
X145217334Y-57592632D01*
X145426803Y-57679397D01*
X145615320Y-57805360D01*
X145775640Y-57965680D01*
X145901603Y-58154197D01*
X145988368Y-58363666D01*
X146010484Y-58474851D01*
X146032600Y-58586035D01*
X146032600Y-58812765D01*
X146010484Y-58923949D01*
X145988368Y-59035134D01*
X145901603Y-59244603D01*
X145775640Y-59433120D01*
X145615320Y-59593440D01*
X145426803Y-59719403D01*
X145217334Y-59806168D01*
X145106149Y-59828284D01*
X144994965Y-59850400D01*
X144768235Y-59850400D01*
X144657051Y-59828284D01*
X144545866Y-59806168D01*
X144336397Y-59719403D01*
X144147880Y-59593440D01*
X143987560Y-59433120D01*
X143861597Y-59244603D01*
X143774832Y-59035134D01*
X143752716Y-58923949D01*
X143730600Y-58812765D01*
X143730600Y-58586035D01*
X143752716Y-58474851D01*
X143774832Y-58363666D01*
X143861597Y-58154197D01*
X143987560Y-57965680D01*
X144147880Y-57805360D01*
X144336397Y-57679397D01*
X144545866Y-57592632D01*
X144657051Y-57570516D01*
X144768235Y-57548400D01*
X144994965Y-57548400D01*
X145106149Y-57570516D01*
X145106149Y-57570516D01*
G37*
G36*
X270311292Y-18032132D02*
G01*
X270502834Y-18070232D01*
X270712303Y-18156997D01*
X270900820Y-18282960D01*
X271061140Y-18443280D01*
X271187103Y-18631797D01*
X271187104Y-18631799D01*
X271273868Y-18841267D01*
X271313048Y-19038235D01*
X271318100Y-19063636D01*
X271318100Y-19290364D01*
X271273868Y-19512734D01*
X271187103Y-19722203D01*
X271061140Y-19910720D01*
X270900820Y-20071040D01*
X270712303Y-20197003D01*
X270502834Y-20283768D01*
X270472006Y-20289900D01*
X270280465Y-20328000D01*
X270053735Y-20328000D01*
X269862194Y-20289900D01*
X269831366Y-20283768D01*
X269621897Y-20197003D01*
X269433380Y-20071040D01*
X269273060Y-19910720D01*
X269147097Y-19722203D01*
X269060332Y-19512734D01*
X269016100Y-19290364D01*
X269016100Y-19063636D01*
X269021153Y-19038235D01*
X269060332Y-18841267D01*
X269147096Y-18631799D01*
X269147097Y-18631797D01*
X269273060Y-18443280D01*
X269433380Y-18282960D01*
X269621897Y-18156997D01*
X269831366Y-18070232D01*
X270022908Y-18032132D01*
X270053735Y-18026000D01*
X270280465Y-18026000D01*
X270311292Y-18032132D01*
X270311292Y-18032132D01*
G37*
G36*
X82084592Y-18032132D02*
G01*
X82276134Y-18070232D01*
X82485603Y-18156997D01*
X82674120Y-18282960D01*
X82834440Y-18443280D01*
X82960403Y-18631797D01*
X82960404Y-18631799D01*
X83047168Y-18841267D01*
X83086348Y-19038235D01*
X83091400Y-19063636D01*
X83091400Y-19290364D01*
X83047168Y-19512734D01*
X82960403Y-19722203D01*
X82834440Y-19910720D01*
X82674120Y-20071040D01*
X82485603Y-20197003D01*
X82276134Y-20283768D01*
X82245306Y-20289900D01*
X82053765Y-20328000D01*
X81827035Y-20328000D01*
X81635494Y-20289900D01*
X81604666Y-20283768D01*
X81395197Y-20197003D01*
X81206680Y-20071040D01*
X81046360Y-19910720D01*
X80920397Y-19722203D01*
X80833632Y-19512734D01*
X80789400Y-19290364D01*
X80789400Y-19063636D01*
X80794453Y-19038235D01*
X80833632Y-18841267D01*
X80920396Y-18631799D01*
X80920397Y-18631797D01*
X81046360Y-18443280D01*
X81206680Y-18282960D01*
X81395197Y-18156997D01*
X81604666Y-18070232D01*
X81796208Y-18032132D01*
X81827035Y-18026000D01*
X82053765Y-18026000D01*
X82084592Y-18032132D01*
X82084592Y-18032132D01*
G37*
G36*
X207996549Y-18022716D02*
G01*
X208107734Y-18044832D01*
X208317203Y-18131597D01*
X208505720Y-18257560D01*
X208666040Y-18417880D01*
X208792003Y-18606397D01*
X208878768Y-18815866D01*
X208900884Y-18927051D01*
X208923000Y-19038235D01*
X208923000Y-19264965D01*
X208900884Y-19376149D01*
X208878768Y-19487334D01*
X208792003Y-19696803D01*
X208666040Y-19885320D01*
X208505720Y-20045640D01*
X208317203Y-20171603D01*
X208107734Y-20258368D01*
X207996549Y-20280484D01*
X207885365Y-20302600D01*
X207658635Y-20302600D01*
X207547451Y-20280484D01*
X207436266Y-20258368D01*
X207226797Y-20171603D01*
X207038280Y-20045640D01*
X206877960Y-19885320D01*
X206751997Y-19696803D01*
X206665232Y-19487334D01*
X206643116Y-19376149D01*
X206621000Y-19264965D01*
X206621000Y-19038235D01*
X206643116Y-18927051D01*
X206665232Y-18815866D01*
X206751997Y-18606397D01*
X206877960Y-18417880D01*
X207038280Y-18257560D01*
X207226797Y-18131597D01*
X207436266Y-18044832D01*
X207547451Y-18022716D01*
X207658635Y-18000600D01*
X207885365Y-18000600D01*
X207996549Y-18022716D01*
X207996549Y-18022716D01*
G37*
G36*
X145106149Y-18022716D02*
G01*
X145217334Y-18044832D01*
X145426803Y-18131597D01*
X145615320Y-18257560D01*
X145775640Y-18417880D01*
X145901603Y-18606397D01*
X145988368Y-18815866D01*
X146010484Y-18927051D01*
X146032600Y-19038235D01*
X146032600Y-19264965D01*
X146010484Y-19376149D01*
X145988368Y-19487334D01*
X145901603Y-19696803D01*
X145775640Y-19885320D01*
X145615320Y-20045640D01*
X145426803Y-20171603D01*
X145217334Y-20258368D01*
X145106149Y-20280484D01*
X144994965Y-20302600D01*
X144768235Y-20302600D01*
X144657051Y-20280484D01*
X144545866Y-20258368D01*
X144336397Y-20171603D01*
X144147880Y-20045640D01*
X143987560Y-19885320D01*
X143861597Y-19696803D01*
X143774832Y-19487334D01*
X143752716Y-19376149D01*
X143730600Y-19264965D01*
X143730600Y-19038235D01*
X143752716Y-18927051D01*
X143774832Y-18815866D01*
X143861597Y-18606397D01*
X143987560Y-18417880D01*
X144147880Y-18257560D01*
X144336397Y-18131597D01*
X144545866Y-18044832D01*
X144657051Y-18022716D01*
X144768235Y-18000600D01*
X144994965Y-18000600D01*
X145106149Y-18022716D01*
X145106149Y-18022716D01*
G37*
G36*
X19896849Y-18010016D02*
G01*
X20008034Y-18032132D01*
X20217503Y-18118897D01*
X20406020Y-18244860D01*
X20566340Y-18405180D01*
X20692303Y-18593697D01*
X20779068Y-18803166D01*
X20786647Y-18841267D01*
X20823300Y-19025535D01*
X20823300Y-19252265D01*
X20815721Y-19290365D01*
X20779068Y-19474634D01*
X20692303Y-19684103D01*
X20566340Y-19872620D01*
X20406020Y-20032940D01*
X20217503Y-20158903D01*
X20008034Y-20245668D01*
X19896849Y-20267784D01*
X19785665Y-20289900D01*
X19558935Y-20289900D01*
X19447751Y-20267784D01*
X19336566Y-20245668D01*
X19127097Y-20158903D01*
X18938580Y-20032940D01*
X18778260Y-19872620D01*
X18652297Y-19684103D01*
X18565532Y-19474634D01*
X18528879Y-19290365D01*
X18521300Y-19252265D01*
X18521300Y-19025535D01*
X18557953Y-18841267D01*
X18565532Y-18803166D01*
X18652297Y-18593697D01*
X18778260Y-18405180D01*
X18938580Y-18244860D01*
X19127097Y-18118897D01*
X19336566Y-18032132D01*
X19447751Y-18010016D01*
X19558935Y-17987900D01*
X19785665Y-17987900D01*
X19896849Y-18010016D01*
X19896849Y-18010016D01*
G37*
M02*
