G04 #@! TF.GenerationSoftware,KiCad,Pcbnew,(5.1.4-0-10_14)*
G04 #@! TF.CreationDate,2020-04-12T12:15:55-07:00*
G04 #@! TF.ProjectId,bottom_plate,626f7474-6f6d-45f7-906c-6174652e6b69,rev?*
G04 #@! TF.SameCoordinates,Original*
G04 #@! TF.FileFunction,Soldermask,Top*
G04 #@! TF.FilePolarity,Negative*
%FSLAX46Y46*%
G04 Gerber Fmt 4.6, Leading zero omitted, Abs format (unit mm)*
G04 Created by KiCad (PCBNEW (5.1.4-0-10_14)) date 2020-04-12 12:15:55*
%MOMM*%
%LPD*%
G04 APERTURE LIST*
%ADD10C,0.100000*%
G04 APERTURE END LIST*
D10*
G36*
X82199239Y-97115032D02*
G01*
X82326934Y-97140432D01*
X82536403Y-97227197D01*
X82724920Y-97353160D01*
X82885240Y-97513480D01*
X83011203Y-97701997D01*
X83011204Y-97701999D01*
X83097968Y-97911467D01*
X83137148Y-98108435D01*
X83142200Y-98133836D01*
X83142200Y-98360564D01*
X83097968Y-98582934D01*
X83011203Y-98792403D01*
X82885240Y-98980920D01*
X82724920Y-99141240D01*
X82536403Y-99267203D01*
X82326934Y-99353968D01*
X82232259Y-99372800D01*
X82104565Y-99398200D01*
X81877835Y-99398200D01*
X81750141Y-99372800D01*
X81655466Y-99353968D01*
X81445997Y-99267203D01*
X81257480Y-99141240D01*
X81097160Y-98980920D01*
X80971197Y-98792403D01*
X80884432Y-98582934D01*
X80840200Y-98360564D01*
X80840200Y-98133836D01*
X80845253Y-98108435D01*
X80884432Y-97911467D01*
X80971196Y-97701999D01*
X80971197Y-97701997D01*
X81097160Y-97513480D01*
X81257480Y-97353160D01*
X81445997Y-97227197D01*
X81655466Y-97140432D01*
X81783161Y-97115032D01*
X81877835Y-97096200D01*
X82104565Y-97096200D01*
X82199239Y-97115032D01*
X82199239Y-97115032D01*
G37*
G36*
X270404349Y-97092916D02*
G01*
X270515534Y-97115032D01*
X270725003Y-97201797D01*
X270913520Y-97327760D01*
X271073840Y-97488080D01*
X271199803Y-97676597D01*
X271286568Y-97886066D01*
X271308684Y-97997251D01*
X271330800Y-98108435D01*
X271330800Y-98335165D01*
X271308684Y-98446349D01*
X271286568Y-98557534D01*
X271199803Y-98767003D01*
X271073840Y-98955520D01*
X270913520Y-99115840D01*
X270725003Y-99241803D01*
X270515534Y-99328568D01*
X270404349Y-99350684D01*
X270293165Y-99372800D01*
X270066435Y-99372800D01*
X269955251Y-99350684D01*
X269844066Y-99328568D01*
X269634597Y-99241803D01*
X269446080Y-99115840D01*
X269285760Y-98955520D01*
X269159797Y-98767003D01*
X269073032Y-98557534D01*
X269050916Y-98446349D01*
X269028800Y-98335165D01*
X269028800Y-98108435D01*
X269050916Y-97997251D01*
X269073032Y-97886066D01*
X269159797Y-97676597D01*
X269285760Y-97488080D01*
X269446080Y-97327760D01*
X269634597Y-97201797D01*
X269844066Y-97115032D01*
X269955251Y-97092916D01*
X270066435Y-97070800D01*
X270293165Y-97070800D01*
X270404349Y-97092916D01*
X270404349Y-97092916D01*
G37*
G36*
X208047349Y-97092916D02*
G01*
X208158534Y-97115032D01*
X208368003Y-97201797D01*
X208556520Y-97327760D01*
X208716840Y-97488080D01*
X208842803Y-97676597D01*
X208929568Y-97886066D01*
X208951684Y-97997251D01*
X208973800Y-98108435D01*
X208973800Y-98335165D01*
X208951684Y-98446349D01*
X208929568Y-98557534D01*
X208842803Y-98767003D01*
X208716840Y-98955520D01*
X208556520Y-99115840D01*
X208368003Y-99241803D01*
X208158534Y-99328568D01*
X208047349Y-99350684D01*
X207936165Y-99372800D01*
X207709435Y-99372800D01*
X207598251Y-99350684D01*
X207487066Y-99328568D01*
X207277597Y-99241803D01*
X207089080Y-99115840D01*
X206928760Y-98955520D01*
X206802797Y-98767003D01*
X206716032Y-98557534D01*
X206693916Y-98446349D01*
X206671800Y-98335165D01*
X206671800Y-98108435D01*
X206693916Y-97997251D01*
X206716032Y-97886066D01*
X206802797Y-97676597D01*
X206928760Y-97488080D01*
X207089080Y-97327760D01*
X207277597Y-97201797D01*
X207487066Y-97115032D01*
X207598251Y-97092916D01*
X207709435Y-97070800D01*
X207936165Y-97070800D01*
X208047349Y-97092916D01*
X208047349Y-97092916D01*
G37*
G36*
X145156949Y-97092916D02*
G01*
X145268134Y-97115032D01*
X145477603Y-97201797D01*
X145666120Y-97327760D01*
X145826440Y-97488080D01*
X145952403Y-97676597D01*
X146039168Y-97886066D01*
X146061284Y-97997251D01*
X146083400Y-98108435D01*
X146083400Y-98335165D01*
X146061284Y-98446349D01*
X146039168Y-98557534D01*
X145952403Y-98767003D01*
X145826440Y-98955520D01*
X145666120Y-99115840D01*
X145477603Y-99241803D01*
X145268134Y-99328568D01*
X145156949Y-99350684D01*
X145045765Y-99372800D01*
X144819035Y-99372800D01*
X144707851Y-99350684D01*
X144596666Y-99328568D01*
X144387197Y-99241803D01*
X144198680Y-99115840D01*
X144038360Y-98955520D01*
X143912397Y-98767003D01*
X143825632Y-98557534D01*
X143803516Y-98446349D01*
X143781400Y-98335165D01*
X143781400Y-98108435D01*
X143803516Y-97997251D01*
X143825632Y-97886066D01*
X143912397Y-97676597D01*
X144038360Y-97488080D01*
X144198680Y-97327760D01*
X144387197Y-97201797D01*
X144596666Y-97115032D01*
X144707851Y-97092916D01*
X144819035Y-97070800D01*
X145045765Y-97070800D01*
X145156949Y-97092916D01*
X145156949Y-97092916D01*
G37*
G36*
X19884149Y-97092916D02*
G01*
X19995334Y-97115032D01*
X20204803Y-97201797D01*
X20393320Y-97327760D01*
X20553640Y-97488080D01*
X20679603Y-97676597D01*
X20766368Y-97886066D01*
X20788484Y-97997251D01*
X20810600Y-98108435D01*
X20810600Y-98335165D01*
X20788484Y-98446349D01*
X20766368Y-98557534D01*
X20679603Y-98767003D01*
X20553640Y-98955520D01*
X20393320Y-99115840D01*
X20204803Y-99241803D01*
X19995334Y-99328568D01*
X19884149Y-99350684D01*
X19772965Y-99372800D01*
X19546235Y-99372800D01*
X19435051Y-99350684D01*
X19323866Y-99328568D01*
X19114397Y-99241803D01*
X18925880Y-99115840D01*
X18765560Y-98955520D01*
X18639597Y-98767003D01*
X18552832Y-98557534D01*
X18530716Y-98446349D01*
X18508600Y-98335165D01*
X18508600Y-98108435D01*
X18530716Y-97997251D01*
X18552832Y-97886066D01*
X18639597Y-97676597D01*
X18765560Y-97488080D01*
X18925880Y-97327760D01*
X19114397Y-97201797D01*
X19323866Y-97115032D01*
X19435051Y-97092916D01*
X19546235Y-97070800D01*
X19772965Y-97070800D01*
X19884149Y-97092916D01*
X19884149Y-97092916D01*
G37*
G36*
X82148439Y-57592632D02*
G01*
X82276134Y-57618032D01*
X82485603Y-57704797D01*
X82674120Y-57830760D01*
X82834440Y-57991080D01*
X82960403Y-58179597D01*
X82960404Y-58179599D01*
X83047168Y-58389067D01*
X83086348Y-58586035D01*
X83091400Y-58611436D01*
X83091400Y-58838164D01*
X83047168Y-59060534D01*
X82960403Y-59270003D01*
X82834440Y-59458520D01*
X82674120Y-59618840D01*
X82485603Y-59744803D01*
X82276134Y-59831568D01*
X82181459Y-59850400D01*
X82053765Y-59875800D01*
X81827035Y-59875800D01*
X81699341Y-59850400D01*
X81604666Y-59831568D01*
X81395197Y-59744803D01*
X81206680Y-59618840D01*
X81046360Y-59458520D01*
X80920397Y-59270003D01*
X80833632Y-59060534D01*
X80789400Y-58838164D01*
X80789400Y-58611436D01*
X80794453Y-58586035D01*
X80833632Y-58389067D01*
X80920396Y-58179599D01*
X80920397Y-58179597D01*
X81046360Y-57991080D01*
X81206680Y-57830760D01*
X81395197Y-57704797D01*
X81604666Y-57618032D01*
X81732361Y-57592632D01*
X81827035Y-57573800D01*
X82053765Y-57573800D01*
X82148439Y-57592632D01*
X82148439Y-57592632D01*
G37*
G36*
X207996549Y-57570516D02*
G01*
X208107734Y-57592632D01*
X208317203Y-57679397D01*
X208505720Y-57805360D01*
X208666040Y-57965680D01*
X208792003Y-58154197D01*
X208878768Y-58363666D01*
X208900884Y-58474851D01*
X208923000Y-58586035D01*
X208923000Y-58812765D01*
X208900884Y-58923949D01*
X208878768Y-59035134D01*
X208792003Y-59244603D01*
X208666040Y-59433120D01*
X208505720Y-59593440D01*
X208317203Y-59719403D01*
X208107734Y-59806168D01*
X207996549Y-59828284D01*
X207885365Y-59850400D01*
X207658635Y-59850400D01*
X207547451Y-59828284D01*
X207436266Y-59806168D01*
X207226797Y-59719403D01*
X207038280Y-59593440D01*
X206877960Y-59433120D01*
X206751997Y-59244603D01*
X206665232Y-59035134D01*
X206643116Y-58923949D01*
X206621000Y-58812765D01*
X206621000Y-58586035D01*
X206643116Y-58474851D01*
X206665232Y-58363666D01*
X206751997Y-58154197D01*
X206877960Y-57965680D01*
X207038280Y-57805360D01*
X207226797Y-57679397D01*
X207436266Y-57592632D01*
X207547451Y-57570516D01*
X207658635Y-57548400D01*
X207885365Y-57548400D01*
X207996549Y-57570516D01*
X207996549Y-57570516D01*
G37*
G36*
X145106149Y-57570516D02*
G01*
X145217334Y-57592632D01*
X145426803Y-57679397D01*
X145615320Y-57805360D01*
X145775640Y-57965680D01*
X145901603Y-58154197D01*
X145988368Y-58363666D01*
X146010484Y-58474851D01*
X146032600Y-58586035D01*
X146032600Y-58812765D01*
X146010484Y-58923949D01*
X145988368Y-59035134D01*
X145901603Y-59244603D01*
X145775640Y-59433120D01*
X145615320Y-59593440D01*
X145426803Y-59719403D01*
X145217334Y-59806168D01*
X145106149Y-59828284D01*
X144994965Y-59850400D01*
X144768235Y-59850400D01*
X144657051Y-59828284D01*
X144545866Y-59806168D01*
X144336397Y-59719403D01*
X144147880Y-59593440D01*
X143987560Y-59433120D01*
X143861597Y-59244603D01*
X143774832Y-59035134D01*
X143752716Y-58923949D01*
X143730600Y-58812765D01*
X143730600Y-58586035D01*
X143752716Y-58474851D01*
X143774832Y-58363666D01*
X143861597Y-58154197D01*
X143987560Y-57965680D01*
X144147880Y-57805360D01*
X144336397Y-57679397D01*
X144545866Y-57592632D01*
X144657051Y-57570516D01*
X144768235Y-57548400D01*
X144994965Y-57548400D01*
X145106149Y-57570516D01*
X145106149Y-57570516D01*
G37*
G36*
X270311292Y-18032132D02*
G01*
X270502834Y-18070232D01*
X270712303Y-18156997D01*
X270900820Y-18282960D01*
X271061140Y-18443280D01*
X271187103Y-18631797D01*
X271187104Y-18631799D01*
X271273868Y-18841267D01*
X271313048Y-19038235D01*
X271318100Y-19063636D01*
X271318100Y-19290364D01*
X271273868Y-19512734D01*
X271187103Y-19722203D01*
X271061140Y-19910720D01*
X270900820Y-20071040D01*
X270712303Y-20197003D01*
X270502834Y-20283768D01*
X270472006Y-20289900D01*
X270280465Y-20328000D01*
X270053735Y-20328000D01*
X269862194Y-20289900D01*
X269831366Y-20283768D01*
X269621897Y-20197003D01*
X269433380Y-20071040D01*
X269273060Y-19910720D01*
X269147097Y-19722203D01*
X269060332Y-19512734D01*
X269016100Y-19290364D01*
X269016100Y-19063636D01*
X269021153Y-19038235D01*
X269060332Y-18841267D01*
X269147096Y-18631799D01*
X269147097Y-18631797D01*
X269273060Y-18443280D01*
X269433380Y-18282960D01*
X269621897Y-18156997D01*
X269831366Y-18070232D01*
X270022908Y-18032132D01*
X270053735Y-18026000D01*
X270280465Y-18026000D01*
X270311292Y-18032132D01*
X270311292Y-18032132D01*
G37*
G36*
X82084592Y-18032132D02*
G01*
X82276134Y-18070232D01*
X82485603Y-18156997D01*
X82674120Y-18282960D01*
X82834440Y-18443280D01*
X82960403Y-18631797D01*
X82960404Y-18631799D01*
X83047168Y-18841267D01*
X83086348Y-19038235D01*
X83091400Y-19063636D01*
X83091400Y-19290364D01*
X83047168Y-19512734D01*
X82960403Y-19722203D01*
X82834440Y-19910720D01*
X82674120Y-20071040D01*
X82485603Y-20197003D01*
X82276134Y-20283768D01*
X82245306Y-20289900D01*
X82053765Y-20328000D01*
X81827035Y-20328000D01*
X81635494Y-20289900D01*
X81604666Y-20283768D01*
X81395197Y-20197003D01*
X81206680Y-20071040D01*
X81046360Y-19910720D01*
X80920397Y-19722203D01*
X80833632Y-19512734D01*
X80789400Y-19290364D01*
X80789400Y-19063636D01*
X80794453Y-19038235D01*
X80833632Y-18841267D01*
X80920396Y-18631799D01*
X80920397Y-18631797D01*
X81046360Y-18443280D01*
X81206680Y-18282960D01*
X81395197Y-18156997D01*
X81604666Y-18070232D01*
X81796208Y-18032132D01*
X81827035Y-18026000D01*
X82053765Y-18026000D01*
X82084592Y-18032132D01*
X82084592Y-18032132D01*
G37*
G36*
X207996549Y-18022716D02*
G01*
X208107734Y-18044832D01*
X208317203Y-18131597D01*
X208505720Y-18257560D01*
X208666040Y-18417880D01*
X208792003Y-18606397D01*
X208878768Y-18815866D01*
X208900884Y-18927051D01*
X208923000Y-19038235D01*
X208923000Y-19264965D01*
X208900884Y-19376149D01*
X208878768Y-19487334D01*
X208792003Y-19696803D01*
X208666040Y-19885320D01*
X208505720Y-20045640D01*
X208317203Y-20171603D01*
X208107734Y-20258368D01*
X207996549Y-20280484D01*
X207885365Y-20302600D01*
X207658635Y-20302600D01*
X207547451Y-20280484D01*
X207436266Y-20258368D01*
X207226797Y-20171603D01*
X207038280Y-20045640D01*
X206877960Y-19885320D01*
X206751997Y-19696803D01*
X206665232Y-19487334D01*
X206643116Y-19376149D01*
X206621000Y-19264965D01*
X206621000Y-19038235D01*
X206643116Y-18927051D01*
X206665232Y-18815866D01*
X206751997Y-18606397D01*
X206877960Y-18417880D01*
X207038280Y-18257560D01*
X207226797Y-18131597D01*
X207436266Y-18044832D01*
X207547451Y-18022716D01*
X207658635Y-18000600D01*
X207885365Y-18000600D01*
X207996549Y-18022716D01*
X207996549Y-18022716D01*
G37*
G36*
X145106149Y-18022716D02*
G01*
X145217334Y-18044832D01*
X145426803Y-18131597D01*
X145615320Y-18257560D01*
X145775640Y-18417880D01*
X145901603Y-18606397D01*
X145988368Y-18815866D01*
X146010484Y-18927051D01*
X146032600Y-19038235D01*
X146032600Y-19264965D01*
X146010484Y-19376149D01*
X145988368Y-19487334D01*
X145901603Y-19696803D01*
X145775640Y-19885320D01*
X145615320Y-20045640D01*
X145426803Y-20171603D01*
X145217334Y-20258368D01*
X145106149Y-20280484D01*
X144994965Y-20302600D01*
X144768235Y-20302600D01*
X144657051Y-20280484D01*
X144545866Y-20258368D01*
X144336397Y-20171603D01*
X144147880Y-20045640D01*
X143987560Y-19885320D01*
X143861597Y-19696803D01*
X143774832Y-19487334D01*
X143752716Y-19376149D01*
X143730600Y-19264965D01*
X143730600Y-19038235D01*
X143752716Y-18927051D01*
X143774832Y-18815866D01*
X143861597Y-18606397D01*
X143987560Y-18417880D01*
X144147880Y-18257560D01*
X144336397Y-18131597D01*
X144545866Y-18044832D01*
X144657051Y-18022716D01*
X144768235Y-18000600D01*
X144994965Y-18000600D01*
X145106149Y-18022716D01*
X145106149Y-18022716D01*
G37*
G36*
X19896849Y-18010016D02*
G01*
X20008034Y-18032132D01*
X20217503Y-18118897D01*
X20406020Y-18244860D01*
X20566340Y-18405180D01*
X20692303Y-18593697D01*
X20779068Y-18803166D01*
X20786647Y-18841267D01*
X20823300Y-19025535D01*
X20823300Y-19252265D01*
X20815721Y-19290365D01*
X20779068Y-19474634D01*
X20692303Y-19684103D01*
X20566340Y-19872620D01*
X20406020Y-20032940D01*
X20217503Y-20158903D01*
X20008034Y-20245668D01*
X19896849Y-20267784D01*
X19785665Y-20289900D01*
X19558935Y-20289900D01*
X19447751Y-20267784D01*
X19336566Y-20245668D01*
X19127097Y-20158903D01*
X18938580Y-20032940D01*
X18778260Y-19872620D01*
X18652297Y-19684103D01*
X18565532Y-19474634D01*
X18528879Y-19290365D01*
X18521300Y-19252265D01*
X18521300Y-19025535D01*
X18557953Y-18841267D01*
X18565532Y-18803166D01*
X18652297Y-18593697D01*
X18778260Y-18405180D01*
X18938580Y-18244860D01*
X19127097Y-18118897D01*
X19336566Y-18032132D01*
X19447751Y-18010016D01*
X19558935Y-17987900D01*
X19785665Y-17987900D01*
X19896849Y-18010016D01*
X19896849Y-18010016D01*
G37*
M02*
