  0
SECTION
  2
HEADER
  9
$ANGBASE
  50
0.0
  9
$ANGDIR
  70
1
  9
$MEASUREMENT
  70
0
  0
ENDSEC
  0
SECTION
  2
TABLES
  0
TABLE
  2
LTYPE
  70
4
  0
LTYPE
  5
40F
  2
CONTINUOUS
  70
0
  3
Solid line
  72
65
  73
0
  40
0.0
  0
LTYPE
  5
410
  2
DASHDOT
 70
0
  3
Dash Dot ____ _ ____ _
 72
65
 73
4
 40
2.0
 49
1.25
 49
-0.25
 49
0.25
 49
-0.25
  0
LTYPE
  5
411
  2
DASHED
 70
0
  3
Dashed __ __ __ __ __
 72
65
 73
2
 40
0.75
 49
0.5
 49
-0.25
  0
LTYPE
  5
43B
  2
DOTTED
 70
0
  3
Dotted .  .  .  .
 72
65
 73
2
 40
0.2
 49
0.0
 49
-0.2
  0
ENDTAB
  0
TABLE
  2
STYLE
  70
4
  0
STYLE
  2
KICAD
  70
0
  40
0
  41
1
  42
1
  50
0
  71
0
  3
isocp.shx
  0
STYLE
  2
KICADB
  70
0
  40
0
  41
1
  42
1
  50
0
  71
0
  3
isocp.shx
  0
STYLE
  2
KICADI
  70
0
  40
0
  41
1
  42
1
  50
15
  71
0
  3
isocp.shx
  0
STYLE
  2
KICADBI
  70
0
  40
0
  41
1
  42
1
  50
15
  71
0
  3
isocp.shx
  0
ENDTAB
  0
TABLE
  2
LAYER
  70
1
  0
LAYER
  2
BLACK
  70
0
  62
7
  6
CONTINUOUS
  0
ENDTAB
  0
ENDSEC
  0
SECTION
  2
ENTITIES
0
LINE
8
BLACK
6
CONTINUOUS
10
10.0997
20
-0.545293
11
10.1
21
-0.545318
0
LINE
8
BLACK
6
CONTINUOUS
10
10.1
20
-0.545318
11
10.1
21
-0.545328
0
LINE
8
BLACK
6
CONTINUOUS
10
10.1
20
-0.545328
11
10.1001
21
-0.545332
0
LINE
8
BLACK
6
CONTINUOUS
10
10.1001
20
-0.545332
11
10.1003
21
-0.545412
0
LINE
8
BLACK
6
CONTINUOUS
10
10.1003
20
-0.545412
11
10.1005
21
-0.545487
0
LINE
8
BLACK
6
CONTINUOUS
10
10.1005
20
-0.545487
11
10.1006
21
-0.545502
0
LINE
8
BLACK
6
CONTINUOUS
10
10.1006
20
-0.545502
11
10.1006
21
-0.545513
0
LINE
8
BLACK
6
CONTINUOUS
10
10.1006
20
-0.545513
11
10.1008
21
-0.54564
0
LINE
8
BLACK
6
CONTINUOUS
10
10.1008
20
-0.54564
11
10.1011
21
-0.545761
0
LINE
8
BLACK
6
CONTINUOUS
10
10.1011
20
-0.545761
11
10.1011
21
-0.545782
0
LINE
8
BLACK
6
CONTINUOUS
10
10.1011
20
-0.545782
11
10.1011
21
-0.545798
0
LINE
8
BLACK
6
CONTINUOUS
10
10.1011
20
-0.545798
11
10.1013
21
-0.545967
0
LINE
8
BLACK
6
CONTINUOUS
10
10.1013
20
-0.545967
11
10.1015
21
-0.54613
0
LINE
8
BLACK
6
CONTINUOUS
10
10.1015
20
-0.54613
11
10.1016
21
-0.546267
0
LINE
8
BLACK
6
CONTINUOUS
10
10.1016
20
-0.546267
11
10.19
21
-0.638578
0
LINE
8
BLACK
6
CONTINUOUS
10
10.19
20
-0.638578
11
10.1901
21
-0.638649
0
LINE
8
BLACK
6
CONTINUOUS
10
10.1901
20
-0.638649
11
10.1902
21
-0.638787
0
LINE
8
BLACK
6
CONTINUOUS
10
10.1902
20
-0.638787
11
10.1902
21
-0.63881
0
LINE
8
BLACK
6
CONTINUOUS
10
10.1902
20
-0.63881
11
10.1903
21
-0.6389
0
LINE
8
BLACK
6
CONTINUOUS
10
10.1903
20
-0.6389
11
10.1905
21
-0.639099
0
LINE
8
BLACK
6
CONTINUOUS
10
10.1905
20
-0.639099
11
10.1905
21
-0.639128
0
LINE
8
BLACK
6
CONTINUOUS
10
10.1905
20
-0.639128
11
10.1905
21
-0.639154
0
LINE
8
BLACK
6
CONTINUOUS
10
10.1905
20
-0.639154
11
10.1906
21
-0.639384
0
LINE
8
BLACK
6
CONTINUOUS
10
10.1906
20
-0.639384
11
10.1907
21
-0.639612
0
LINE
8
BLACK
6
CONTINUOUS
10
10.1907
20
-0.639612
11
10.1907
21
-0.639643
0
LINE
8
BLACK
6
CONTINUOUS
10
10.1907
20
-0.639643
11
10.1908
21
-0.639672
0
LINE
8
BLACK
6
CONTINUOUS
10
10.1908
20
-0.639672
11
10.1908
21
-0.639921
0
LINE
8
BLACK
6
CONTINUOUS
10
10.1908
20
-0.639921
11
10.1909
21
-0.640168
0
LINE
8
BLACK
6
CONTINUOUS
10
10.1909
20
-0.640168
11
10.1909
21
-0.640201
0
LINE
8
BLACK
6
CONTINUOUS
10
10.1909
20
-0.640201
11
10.1909
21
-0.640233
0
LINE
8
BLACK
6
CONTINUOUS
10
10.1909
20
-0.640233
11
10.1909
21
-0.640491
0
LINE
8
BLACK
6
CONTINUOUS
10
10.1909
20
-0.640491
11
10.1909
21
-0.640602
0
LINE
8
BLACK
6
CONTINUOUS
10
10.1909
20
-0.640602
11
10.1909
21
-0.640635
0
LINE
8
BLACK
6
CONTINUOUS
10
10.1909
20
-0.640635
11
10.191
21
-0.640813
0
LINE
8
BLACK
6
CONTINUOUS
10
10.191
20
-0.640813
11
10.1909
21
-0.640925
0
LINE
8
BLACK
6
CONTINUOUS
10
10.1909
20
-0.640925
11
10.1919
21
-3.22635
0
LINE
8
BLACK
6
CONTINUOUS
10
10.1919
20
-3.22635
11
10.1919
21
-3.22661
0
LINE
8
BLACK
6
CONTINUOUS
10
10.1919
20
-3.22661
11
10.1919
21
-3.22678
0
LINE
8
BLACK
6
CONTINUOUS
10
10.1919
20
-3.22678
11
10.1919
21
-3.22696
0
LINE
8
BLACK
6
CONTINUOUS
10
10.1919
20
-3.22696
11
10.1919
21
-3.22707
0
LINE
8
BLACK
6
CONTINUOUS
10
10.1919
20
-3.22707
11
10.1918
21
-3.22718
0
LINE
8
BLACK
6
CONTINUOUS
10
10.1918
20
-3.22718
11
10.1918
21
-3.22735
0
LINE
8
BLACK
6
CONTINUOUS
10
10.1918
20
-3.22735
11
10.1917
21
-3.22751
0
LINE
8
BLACK
6
CONTINUOUS
10
10.1917
20
-3.22751
11
10.1917
21
-3.22762
0
LINE
8
BLACK
6
CONTINUOUS
10
10.1917
20
-3.22762
11
10.1916
21
-3.22773
0
LINE
8
BLACK
6
CONTINUOUS
10
10.1916
20
-3.22773
11
10.1915
21
-3.22787
0
LINE
8
BLACK
6
CONTINUOUS
10
10.1915
20
-3.22787
11
10.1914
21
-3.22803
0
LINE
8
BLACK
6
CONTINUOUS
10
10.1914
20
-3.22803
11
10.1913
21
-3.22822
0
LINE
8
BLACK
6
CONTINUOUS
10
10.1913
20
-3.22822
11
10.0448
21
-3.41402
0
LINE
8
BLACK
6
CONTINUOUS
10
10.0448
20
-3.41402
11
10.0448
21
-3.41405
0
LINE
8
BLACK
6
CONTINUOUS
10
10.0448
20
-3.41405
11
10.0446
21
-3.41425
0
LINE
8
BLACK
6
CONTINUOUS
10
10.0446
20
-3.41425
11
10.0446
21
-3.41434
0
LINE
8
BLACK
6
CONTINUOUS
10
10.0446
20
-3.41434
11
10.0445
21
-3.41436
0
LINE
8
BLACK
6
CONTINUOUS
10
10.0445
20
-3.41436
11
10.0444
21
-3.4145
0
LINE
8
BLACK
6
CONTINUOUS
10
10.0444
20
-3.4145
11
10.0443
21
-3.41457
0
LINE
8
BLACK
6
CONTINUOUS
10
10.0443
20
-3.41457
11
10.0442
21
-3.41466
0
LINE
8
BLACK
6
CONTINUOUS
10
10.0442
20
-3.41466
11
10.0441
21
-3.41476
0
LINE
8
BLACK
6
CONTINUOUS
10
10.0441
20
-3.41476
11
10.044
21
-3.41487
0
LINE
8
BLACK
6
CONTINUOUS
10
10.044
20
-3.41487
11
10.0439
21
-3.41492
0
LINE
8
BLACK
6
CONTINUOUS
10
10.0439
20
-3.41492
11
10.0438
21
-3.41499
0
LINE
8
BLACK
6
CONTINUOUS
10
10.0438
20
-3.41499
11
10.0436
21
-3.41506
0
LINE
8
BLACK
6
CONTINUOUS
10
10.0436
20
-3.41506
11
10.0435
21
-3.41514
0
LINE
8
BLACK
6
CONTINUOUS
10
10.0435
20
-3.41514
11
10.0433
21
-3.41518
0
LINE
8
BLACK
6
CONTINUOUS
10
10.0433
20
-3.41518
11
10.0432
21
-3.41522
0
LINE
8
BLACK
6
CONTINUOUS
10
10.0432
20
-3.41522
11
10.0431
21
-3.41526
0
LINE
8
BLACK
6
CONTINUOUS
10
10.0431
20
-3.41526
11
10.0429
21
-3.41531
0
LINE
8
BLACK
6
CONTINUOUS
10
10.0429
20
-3.41531
11
10.0428
21
-3.41532
0
LINE
8
BLACK
6
CONTINUOUS
10
10.0428
20
-3.41532
11
10.0427
21
-3.41535
0
LINE
8
BLACK
6
CONTINUOUS
10
10.0427
20
-3.41535
11
10.0425
21
-3.41535
0
LINE
8
BLACK
6
CONTINUOUS
10
10.0425
20
-3.41535
11
10.0425
21
-3.41535
0
LINE
8
BLACK
6
CONTINUOUS
10
10.0425
20
-3.41535
11
10.0423
21
-3.41535
0
LINE
8
BLACK
6
CONTINUOUS
10
10.0423
20
-3.41535
11
10.0421
21
-3.41536
0
LINE
8
BLACK
6
CONTINUOUS
10
10.0421
20
-3.41536
11
10.0421
21
-3.41535
0
LINE
8
BLACK
6
CONTINUOUS
10
10.0421
20
-3.41535
11
0.715145
21
-3.41495
0
LINE
8
BLACK
6
CONTINUOUS
10
0.715145
20
-3.41495
11
0.715
21
-3.41497
0
LINE
8
BLACK
6
CONTINUOUS
10
0.715
20
-3.41497
11
0.714855
21
-3.41495
0
LINE
8
BLACK
6
CONTINUOUS
10
0.714855
20
-3.41495
11
0.714855
21
-3.41495
0
LINE
8
BLACK
6
CONTINUOUS
10
0.714855
20
-3.41495
11
0.714421
21
-3.41491
0
LINE
8
BLACK
6
CONTINUOUS
10
0.714421
20
-3.41491
11
0.714252
21
-3.41486
0
LINE
8
BLACK
6
CONTINUOUS
10
0.714252
20
-3.41486
11
0.713865
21
-3.41474
0
LINE
8
BLACK
6
CONTINUOUS
10
0.713865
20
-3.41474
11
0.713352
21
-3.41447
0
LINE
8
BLACK
6
CONTINUOUS
10
0.713352
20
-3.41447
11
0.713014
21
-3.41419
0
LINE
8
BLACK
6
CONTINUOUS
10
0.713014
20
-3.41419
11
0.713014
21
-3.41419
0
LINE
8
BLACK
6
CONTINUOUS
10
0.713014
20
-3.41419
11
0.712902
21
-3.4141
0
LINE
8
BLACK
6
CONTINUOUS
10
0.712902
20
-3.4141
11
0.71281
21
-3.41399
0
LINE
8
BLACK
6
CONTINUOUS
10
0.71281
20
-3.41399
11
0.548014
21
-3.24919
0
LINE
8
BLACK
6
CONTINUOUS
10
0.548014
20
-3.24919
11
0.547902
21
-3.2491
0
LINE
8
BLACK
6
CONTINUOUS
10
0.547902
20
-3.2491
11
0.547533
21
-3.24865
0
LINE
8
BLACK
6
CONTINUOUS
10
0.547533
20
-3.24865
11
0.547259
21
-3.24814
0
LINE
8
BLACK
6
CONTINUOUS
10
0.547259
20
-3.24814
11
0.547259
21
-3.24814
0
LINE
8
BLACK
6
CONTINUOUS
10
0.547259
20
-3.24814
11
0.54709
21
-3.24758
0
LINE
8
BLACK
6
CONTINUOUS
10
0.54709
20
-3.24758
11
0.547033
21
-3.247
0
LINE
8
BLACK
6
CONTINUOUS
10
0.547033
20
-3.247
11
0.547047
21
-3.24686
0
LINE
8
BLACK
6
CONTINUOUS
10
0.547047
20
-3.24686
11
0.547047
21
-0.630145
0
LINE
8
BLACK
6
CONTINUOUS
10
0.547047
20
-0.630145
11
0.547033
21
-0.63
0
LINE
8
BLACK
6
CONTINUOUS
10
0.547033
20
-0.63
11
0.547047
21
-0.629855
0
LINE
8
BLACK
6
CONTINUOUS
10
0.547047
20
-0.629855
11
0.54709
21
-0.629421
0
LINE
8
BLACK
6
CONTINUOUS
10
0.54709
20
-0.629421
11
0.547259
21
-0.628865
0
LINE
8
BLACK
6
CONTINUOUS
10
0.547259
20
-0.628865
11
0.547533
21
-0.628352
0
LINE
8
BLACK
6
CONTINUOUS
10
0.547533
20
-0.628352
11
0.547902
21
-0.627902
0
LINE
8
BLACK
6
CONTINUOUS
10
0.547902
20
-0.627902
11
0.548015
21
-0.62781
0
LINE
8
BLACK
6
CONTINUOUS
10
0.548015
20
-0.62781
11
0.62781
21
-0.548014
0
LINE
8
BLACK
6
CONTINUOUS
10
0.62781
20
-0.548014
11
0.627902
21
-0.547902
0
LINE
8
BLACK
6
CONTINUOUS
10
0.627902
20
-0.547902
11
0.628014
21
-0.54781
0
LINE
8
BLACK
6
CONTINUOUS
10
0.628014
20
-0.54781
11
0.628014
21
-0.54781
0
LINE
8
BLACK
6
CONTINUOUS
10
0.628014
20
-0.54781
11
0.628352
21
-0.547533
0
LINE
8
BLACK
6
CONTINUOUS
10
0.628352
20
-0.547533
11
0.628729
21
-0.547331
0
LINE
8
BLACK
6
CONTINUOUS
10
0.628729
20
-0.547331
11
0.628864
21
-0.547259
0
LINE
8
BLACK
6
CONTINUOUS
10
0.628864
20
-0.547259
11
0.628864
21
-0.547259
0
LINE
8
BLACK
6
CONTINUOUS
10
0.628864
20
-0.547259
11
0.628865
21
-0.547259
0
LINE
8
BLACK
6
CONTINUOUS
10
0.628865
20
-0.547259
11
0.629174
21
-0.547165
0
LINE
8
BLACK
6
CONTINUOUS
10
0.629174
20
-0.547165
11
0.629421
21
-0.54709
0
LINE
8
BLACK
6
CONTINUOUS
10
0.629421
20
-0.54709
11
0.629421
21
-0.54709
0
LINE
8
BLACK
6
CONTINUOUS
10
0.629421
20
-0.54709
11
0.629421
21
-0.54709
0
LINE
8
BLACK
6
CONTINUOUS
10
0.629421
20
-0.54709
11
0.629679
21
-0.547065
0
LINE
8
BLACK
6
CONTINUOUS
10
0.629679
20
-0.547065
11
0.629855
21
-0.547047
0
LINE
8
BLACK
6
CONTINUOUS
10
0.629855
20
-0.547047
11
0.629855
21
-0.547047
0
LINE
8
BLACK
6
CONTINUOUS
10
0.629855
20
-0.547047
11
0.63
21
-0.547033
0
LINE
8
BLACK
6
CONTINUOUS
10
0.63
20
-0.547033
11
0.630144
21
-0.547047
0
LINE
8
BLACK
6
CONTINUOUS
10
0.630144
20
-0.547047
11
10.0993
21
-0.545276
0
LINE
8
BLACK
6
CONTINUOUS
10
10.0993
20
-0.545276
11
10.0995
21
-0.545262
0
LINE
8
BLACK
6
CONTINUOUS
10
10.0995
20
-0.545262
11
10.0997
21
-0.545293
0
LINE
8
BLACK
6
CONTINUOUS
10
0.631223
20
-0.552953
11
0.552953
21
-0.631223
0
LINE
8
BLACK
6
CONTINUOUS
10
0.552953
20
-0.631223
11
0.552953
21
-3.24578
0
LINE
8
BLACK
6
CONTINUOUS
10
0.552953
20
-3.24578
11
0.716223
21
-3.40905
0
LINE
8
BLACK
6
CONTINUOUS
10
0.716223
20
-3.40905
11
10.0409
21
-3.40945
0
LINE
8
BLACK
6
CONTINUOUS
10
10.0409
20
-3.40945
11
10.186
21
-3.22535
0
LINE
8
BLACK
6
CONTINUOUS
10
10.186
20
-3.22535
11
10.185
21
-0.641934
0
LINE
8
BLACK
6
CONTINUOUS
10
10.185
20
-0.641934
11
10.0981
21
-0.551181
0
LINE
8
BLACK
6
CONTINUOUS
10
10.0981
20
-0.551181
11
0.631223
21
-0.552953
  0
ENDSEC
  0
EOF
