M48
; DRILL file {KiCad (5.1.4-0-10_14)} date Thursday, 05 March 2020 at 20:31:14
; FORMAT={-:-/ absolute / inch / decimal}
; #@! TF.CreationDate,2020-03-05T20:31:14-08:00
; #@! TF.GenerationSoftware,Kicad,Pcbnew,(5.1.4-0-10_14)
FMAT,2
INCH
T1C0.0157
T2C0.0394
T3C0.0430
T4C0.0433
T5C0.0590
T6C0.0670
T7C0.1181
T8C0.1200
T9C0.1378
T10C0.1570
%
G90
G05
T1
X0.619Y-3.2019
X0.6238Y-2.7127
X0.7303Y-2.3278
X0.8091Y-2.3868
X0.9544Y-2.5873
X1.0719Y-2.1732
X1.2057Y-1.2667
X1.2234Y-1.3376
X1.2815Y-1.2096
X1.2913Y-1.5256
X1.2963Y-1.997
X1.3917Y-2.2421
X1.4498Y-2.1585
X1.4606Y-2.3307
X1.4843Y-2.2195
X1.499Y-2.8848
X1.503Y-2.9852
X1.5033Y-3.0896
X1.6838Y-2.2185
X1.7156Y-2.5276
X1.7275Y-2.9137
X1.7451Y-2.2195
X1.8012Y-2.5423
X1.8524Y-2.6683
X1.8574Y-2.756
X1.8589Y-2.7166
X2.188Y-2.4587
X2.4035Y-2.7559
X2.5197Y-2.7757
X2.5364Y-2.1014
X2.5453Y-2.4134
X2.6348Y-2.1585
X2.7096Y-2.9242
X3.0827Y-2.8878
X3.2087Y-2.9419
X3.4754Y-2.4879
X3.8189Y-3.2037
X4.123Y-2.7138
X4.1272Y-3.3219
X4.1927Y-2.7145
X4.2228Y-2.5702
X4.9341Y-2.9331
X4.9702Y-2.5653
X5.0896Y-2.811
X5.1132Y-2.9242
X5.1663Y-2.8494
X5.2923Y-0.6025
X5.3012Y-2.8327
X5.4164Y-2.9379
X5.723Y-2.5707
X5.752Y-2.9951
X6.5541Y-0.9409
X6.7323Y-2.9587
X6.8622Y-2.9488
X6.938Y-2.8809
X7.0935Y-2.9734
X7.5719Y-0.7007
X7.814Y-2.9537
X7.94Y-2.8632
X7.9567Y-2.9557
X8.0583Y-3.0185
X8.3399Y-2.6847
X8.4459Y-2.7092
X9.2972Y-2.9626
X9.3307Y-2.8848
X9.4321Y-1.8602
X9.737Y-2.6772
X9.7677Y-2.7057
X10.1467Y-2.6132
T2
X5.933Y-1.152
X6.24Y-1.152
X8.3875Y-1.261
X8.6945Y-1.261
X6.384Y-2.005
X6.691Y-2.005
X1.995Y-1.901
X2.302Y-1.901
X7.995Y-2.0085
X8.302Y-2.0085
X6.0275Y-2.76
X6.3345Y-2.76
X3.12Y-1.2595
X3.427Y-1.2595
X2.4296Y-2.008
X2.7367Y-2.008
X8.184Y-2.76
X8.491Y-2.76
X2.1825Y-1.1505
X2.4895Y-1.1505
X4.1335Y-2.0045
X4.4405Y-2.0045
X9.324Y-2.0045
X1.4335Y-2.7465
X1.7405Y-2.7465
X6.121Y-1.259
X6.428Y-1.259
X4.927Y-1.2605
X7.433Y-1.1505
X7.74Y-1.1505
X5.633Y-2.0065
X5.94Y-2.0065
X9.631Y-2.0045
X9.171Y-1.155
X9.478Y-1.155
X7.6215Y-1.259
X7.9285Y-1.259
X7.132Y-2.0055
X4.0215Y-2.761
X4.3285Y-2.761
X9.683Y-2.76
X9.99Y-2.76
X4.62Y-1.2605
X3.6815Y-1.1515
X3.9885Y-1.1515
X5.1845Y-1.1505
X5.4915Y-1.1505
X7.439Y-2.0055
X10.0145Y-1.423
X0.6835Y-1.2585
X0.9905Y-1.2585
X10.0145Y-1.523
X2.3705Y-1.259
X2.6775Y-1.259
X10.0145Y-1.623
X10.0145Y-1.723
X8.9225Y-1.26
X9.2295Y-1.26
X9.0125Y-1.908
X9.3195Y-1.908
X1.4325Y-1.152
X1.7395Y-1.152
X8.9321Y-2.7595
X9.2392Y-2.7595
X6.6835Y-1.1505
X4.883Y-2.0045
X5.19Y-2.0045
X7.3385Y-2.6535
X7.6455Y-2.6535
X0.683Y-1.1535
X8.183Y-1.152
X8.49Y-1.152
X2.3025Y-2.0085
X6.9905Y-1.1505
X1.9955Y-2.0085
X3.872Y-1.2605
X4.179Y-1.2605
X0.99Y-1.1535
X6.8705Y-1.2595
X2.9325Y-1.1515
X3.2395Y-1.1515
X5.37Y-1.26
X5.677Y-1.26
X3.3845Y-2.005
X3.6915Y-2.005
X0.683Y-2.7595
X0.99Y-2.7595
X4.4325Y-1.1515
X4.7395Y-1.1515
X2.651Y-2.76
X9.366Y-1.256
X7.1775Y-1.2595
X9.673Y-1.256
X2.958Y-2.76
X1.6205Y-1.2605
X1.9275Y-1.2605
T3
X0.662Y-2.0484
X0.662Y-2.6484
X0.762Y-2.0484
X0.762Y-2.6484
X0.862Y-2.0484
X0.862Y-2.6484
X0.962Y-2.0484
X0.962Y-2.6484
X1.062Y-2.0484
X1.062Y-2.6484
X1.162Y-2.0484
X1.162Y-2.6484
X1.262Y-2.0484
X1.262Y-2.6484
X1.362Y-2.0484
X1.362Y-2.6484
X1.462Y-2.0484
X1.462Y-2.6484
X1.562Y-2.0484
X1.562Y-2.6484
X1.662Y-2.0484
X1.662Y-2.6484
X1.762Y-2.0484
X1.762Y-2.6484
T4
X9.0463Y-1.3376
X9.0463Y-1.5935
X9.2234Y-1.3376
X9.2234Y-1.5935
T5
X9.2635Y-2.529
X9.5135Y-2.429
X2.06Y-1.38
X7.81Y-1.48
X2.933Y-0.73
X1.81Y-1.48
X8.06Y-1.38
X4.401Y-2.88
X5.184Y-0.729
X4.81Y-1.48
X5.06Y-1.38
X4.151Y-2.98
X5.434Y-0.629
X3.496Y-2.231
X3.183Y-0.63
X3.746Y-2.131
X3.683Y-0.731
X3.933Y-0.631
X9.683Y-2.98
X0.873Y-1.48
X1.123Y-1.38
X9.933Y-2.88
X5.8385Y-2.981
X6.0885Y-2.881
X8.561Y-1.481
X8.811Y-1.381
X1.996Y-2.23
X2.901Y-2.88
X8.933Y-2.981
X0.777Y-2.981
X1.027Y-2.881
X9.183Y-2.881
X3.56Y-1.38
X9.607Y-0.9295
X6.183Y-0.63
X9.639Y-2.531
X9.357Y-1.0295
X2.651Y-2.98
X5.995Y-2.13
X5.561Y-1.481
X5.811Y-1.381
X9.652Y-1.38
X2.246Y-2.13
X5.745Y-2.23
X9.402Y-1.48
X2.433Y-0.631
X3.31Y-1.48
X8.246Y-2.13
X5.933Y-0.73
X9.889Y-2.431
X2.183Y-0.731
X8.183Y-0.73
X8.433Y-0.63
X1.683Y-0.63
X7.996Y-2.23
X2.745Y-2.23
X2.995Y-2.13
X4.995Y-2.23
X5.245Y-2.13
X9.7325Y-1.03
X9.9825Y-0.93
X7.433Y-0.73
X7.683Y-0.63
X8.433Y-2.88
X1.433Y-0.73
X8.183Y-2.98
X6.495Y-2.231
X6.745Y-2.131
X4.245Y-2.23
X4.495Y-2.13
X4.433Y-0.731
X4.683Y-0.631
X8.933Y-0.731
X9.183Y-0.631
X4.061Y-1.48
X4.311Y-1.38
X7.061Y-1.48
X7.311Y-1.38
X6.56Y-1.381
X7.245Y-2.23
X7.495Y-2.13
X3.9645Y-2.9805
X4.2145Y-2.8805
X0.964Y-2.23
X1.214Y-2.13
X6.027Y-2.98
X1.714Y-2.981
X1.964Y-2.881
X8.746Y-2.231
X8.996Y-2.131
X7.339Y-2.98
X7.589Y-2.88
X6.683Y-0.73
X6.933Y-0.63
X2.561Y-1.48
X2.811Y-1.38
X0.683Y-0.73
X0.933Y-0.63
X6.277Y-2.88
X6.31Y-1.481
T6
X9.1635Y-2.329
X9.5635Y-2.329
X3.446Y-2.331
X3.26Y-1.58
X3.66Y-1.58
X0.727Y-3.081
X5.695Y-2.33
X6.095Y-2.33
X9.633Y-3.08
X10.033Y-3.08
X2.695Y-2.33
X3.095Y-2.33
X6.1885Y-3.081
X3.633Y-0.831
X3.846Y-2.331
X8.696Y-2.331
X9.096Y-2.331
X1.127Y-3.081
X5.7885Y-3.081
X9.257Y-0.8295
X9.657Y-0.8295
X4.033Y-0.831
X8.346Y-2.33
X7.946Y-2.33
X8.883Y-3.081
X9.283Y-3.081
X5.911Y-1.581
X8.911Y-1.581
X5.511Y-1.581
X8.511Y-1.581
X9.352Y-1.58
X9.752Y-1.58
X2.601Y-3.08
X9.539Y-2.331
X9.939Y-2.331
X2.533Y-0.831
X1.946Y-2.33
X2.346Y-2.33
X3.001Y-3.08
X5.883Y-0.83
X6.283Y-0.83
X2.133Y-0.831
X7.76Y-1.58
X8.16Y-1.58
X2.883Y-0.83
X3.283Y-0.83
X4.101Y-3.08
X8.133Y-0.83
X8.533Y-0.83
X1.223Y-1.58
X4.501Y-3.08
X0.823Y-1.58
X5.345Y-2.33
X4.945Y-2.33
X9.6325Y-0.83
X10.0325Y-0.83
X4.195Y-2.33
X4.595Y-2.33
X8.133Y-3.08
X7.289Y-3.08
X7.689Y-3.08
X3.9145Y-3.0805
X4.3145Y-3.0805
X7.783Y-0.83
X6.445Y-2.331
X6.845Y-2.331
X7.011Y-1.58
X7.411Y-1.58
X7.383Y-0.83
X7.195Y-2.33
X7.595Y-2.33
X1.383Y-0.83
X1.76Y-1.58
X2.16Y-1.58
X8.533Y-3.08
X1.783Y-0.83
X5.134Y-0.829
X5.534Y-0.829
X4.76Y-1.58
X5.16Y-1.58
X4.383Y-0.831
X4.783Y-0.831
X6.633Y-0.83
X8.883Y-0.831
X9.283Y-0.831
X0.914Y-2.33
X2.511Y-1.58
X2.911Y-1.58
X1.033Y-0.83
X4.011Y-1.58
X4.411Y-1.58
X1.314Y-2.33
X6.377Y-3.08
X7.033Y-0.83
X5.977Y-3.08
X6.26Y-1.581
X6.66Y-1.581
X2.064Y-3.081
X0.633Y-0.83
X1.664Y-3.081
T7
X9.2135Y-2.229
X9.4635Y-2.129
X3.546Y-2.531
X3.796Y-2.431
X5.8885Y-3.281
X6.1385Y-3.181
X8.611Y-1.781
X8.861Y-1.681
X8.046Y-2.53
X8.296Y-2.43
X9.452Y-1.78
X9.702Y-1.68
X0.827Y-3.281
X1.077Y-3.181
X9.307Y-0.7295
X9.557Y-0.6295
X3.733Y-1.031
X3.983Y-0.931
X3.36Y-1.78
X3.61Y-1.68
X9.733Y-3.28
X9.983Y-3.18
X2.046Y-2.53
X2.296Y-2.43
X5.795Y-2.53
X5.611Y-1.781
X5.861Y-1.681
X2.701Y-3.28
X2.951Y-3.18
X5.983Y-1.03
X6.233Y-0.93
X2.483Y-0.931
X7.86Y-1.78
X8.11Y-1.68
X2.983Y-1.03
X3.233Y-0.93
X8.233Y-1.03
X8.483Y-0.93
X8.983Y-3.281
X9.233Y-3.181
X6.045Y-2.43
X9.589Y-2.231
X9.839Y-2.131
X2.233Y-1.031
X1.86Y-1.78
X2.11Y-1.68
X5.234Y-1.029
X5.484Y-0.929
X4.86Y-1.78
X1.173Y-1.68
X4.201Y-3.28
X4.451Y-3.18
X0.923Y-1.78
X5.11Y-1.68
X9.9325Y-0.63
X9.6825Y-0.73
X6.545Y-2.531
X6.795Y-2.431
X1.483Y-1.03
X1.733Y-0.93
X5.045Y-2.53
X5.295Y-2.43
X7.483Y-1.03
X7.733Y-0.93
X4.295Y-2.53
X4.545Y-2.43
X8.233Y-3.28
X8.483Y-3.18
X4.0145Y-3.2805
X1.264Y-2.43
X2.861Y-1.68
X4.111Y-1.78
X4.361Y-1.68
X7.111Y-1.78
X7.545Y-2.43
X4.483Y-1.031
X8.983Y-1.031
X9.233Y-0.931
X7.361Y-1.68
X7.295Y-2.53
X4.2645Y-3.1805
X4.733Y-0.931
X1.014Y-2.53
X2.611Y-1.78
X0.733Y-1.03
X0.983Y-0.93
X6.077Y-3.28
X6.327Y-3.18
X6.36Y-1.781
X9.046Y-2.431
X8.796Y-2.531
X7.639Y-3.18
X6.61Y-1.681
X7.389Y-3.28
X1.764Y-3.281
X2.014Y-3.181
X6.733Y-1.03
X6.983Y-0.93
X2.795Y-2.53
X3.045Y-2.43
T8
X5.7096Y-2.8057
X6.6467Y-2.8057
X3.8325Y-2.805
X4.7695Y-2.805
X8.9902Y-1.1047
X9.9272Y-1.1047
X3.6457Y-2.8057
X4.5827Y-2.8057
X5.5217Y-2.8057
X6.4587Y-2.8057
X8.8967Y-2.6028
X9.8337Y-2.6028
T9
X7.808Y-1.9555
X2.854Y-1.9565
X5.332Y-1.9555
T10
X7.489Y-3.08
X8.896Y-2.331
X1.023Y-1.58
X3.083Y-0.83
X8.333Y-3.08
X7.211Y-1.58
X1.583Y-0.83
X5.334Y-0.829
X4.1145Y-3.0805
X9.8337Y-2.0028
X4.583Y-0.831
X9.083Y-0.831
X1.114Y-2.33
X0.833Y-0.83
X6.6467Y-3.4057
X7.395Y-2.33
X9.8325Y-0.83
X8.8967Y-2.0028
X4.395Y-2.33
X5.7096Y-3.4057
X6.645Y-2.331
X4.96Y-1.58
X4.301Y-3.08
X3.8325Y-3.405
X4.7695Y-3.405
X7.583Y-0.83
X4.211Y-1.58
X2.711Y-1.58
X1.864Y-3.081
X3.833Y-0.831
X6.833Y-0.83
X8.9902Y-0.5047
X9.9272Y-0.5047
X6.46Y-1.581
X9.3635Y-2.329
X3.646Y-2.331
X0.927Y-3.081
X9.457Y-0.8295
X8.711Y-1.581
X8.146Y-2.33
X3.46Y-1.58
X5.9885Y-3.081
X9.833Y-3.08
X6.177Y-3.08
X2.895Y-2.33
X9.552Y-1.58
X5.5217Y-3.4057
X6.4587Y-3.4057
X2.146Y-2.33
X5.895Y-2.33
X6.083Y-0.83
X9.739Y-2.331
X8.333Y-0.83
X9.083Y-3.081
X5.711Y-1.581
X2.801Y-3.08
X3.6457Y-3.4057
X4.5827Y-3.4057
X2.333Y-0.831
X1.96Y-1.58
X7.96Y-1.58
X5.145Y-2.33
T0
M30
